# MagicaVoxel @ Ephtracy

# group
o 

# material
mtllib 1.mtl
usemtl palette

# normals
vn -1 0 0
vn 1 0 0
vn 0 0 1
vn 0 0 -1
vn 0 -1 0
vn 0 1 0

# texcoords
vt 0.841797 0.5
vt 0.873047 0.5
vt 0.994141 0.5

# verts
v 0.6 2.4 -0.5
v 0.6 2.4 -0.7
v 0.6 2.5 -0.5
v 0.6 2.5 -0.7
v 0.7 2.4 -0.7
v 0.7 2.4 -0.9
v 0.7 2.4 -1
v 0.7 2.4 -1.2
v 0.7 2.5 -0.7
v 0.7 2.5 -0.9
v 0.7 2.5 -1
v 0.7 2.5 -1.2
v 0.7 2.7 -0.9
v 0.7 2.7 -1
v 0.7 2.9 -0.9
v 0.7 2.9 -1
v 0.7 3.1 -0.9
v 0.7 3.1 -1
v 0.8 2 -0.8
v 0.8 2 -0.9
v 0.8 2.3 -0.9
v 0.8 2.3 -1.1
v 0.8 2.4 -0.5
v 0.8 2.4 -0.7
v 0.8 2.4 -0.8
v 0.8 2.4 -0.9
v 0.8 2.4 -1
v 0.8 2.4 -1.1
v 0.8 2.5 -0.5
v 0.8 2.5 -0.7
v 0.8 2.5 -0.8
v 0.8 2.5 -0.9
v 0.8 2.5 -1
v 0.8 2.5 -1.1
v 0.8 2.7 -0.9
v 0.8 2.7 -1
v 0.8 2.8 -0.8
v 0.8 2.8 -0.9
v 0.8 2.9 -0.8
v 0.8 2.9 -0.9
v 0.8 2.9 -1
v 0.8 3 -0.8
v 0.8 3 -0.9
v 0.8 3 -1
v 0.8 3 -1.1
v 1 2 -0.9
v 1 2 -1
v 1 2.3 -0.9
v 1 2.3 -1
v 1.1 3 -0.9
v 1.1 3 -1
v 1.1 3.1 -0.9
v 1.1 3.1 -1
v 0.7 2.4 -0.5
v 0.7 2.4 -0.7
v 0.7 2.5 -0.5
v 0.7 2.5 -0.7
v 0.8 2.4 -0.7
v 0.8 2.4 -0.8
v 0.8 2.4 -1.1
v 0.8 2.4 -1.2
v 0.8 2.5 -0.7
v 0.8 2.5 -0.8
v 0.8 2.5 -1.1
v 0.8 2.5 -1.2
v 0.8 3 -0.9
v 0.8 3 -1
v 0.8 3.1 -0.9
v 0.8 3.1 -1
v 0.9 2 -0.8
v 0.9 2 -0.9
v 0.9 2.3 -0.8
v 0.9 2.3 -0.9
v 0.9 2.4 -0.5
v 0.9 2.4 -0.7
v 0.9 2.5 -0.5
v 0.9 2.5 -0.7
v 1.1 2 -0.9
v 1.1 2 -1
v 1.1 2.3 -0.8
v 1.1 2.3 -0.9
v 1.1 2.3 -1
v 1.1 2.3 -1.1
v 1.1 2.4 -1
v 1.1 2.4 -1.1
v 1.1 2.6 -0.9
v 1.1 2.6 -1
v 1.1 2.6 -1.1
v 1.1 2.7 -0.9
v 1.1 2.7 -1
v 1.1 2.8 -0.8
v 1.1 2.8 -0.9
v 1.1 2.9 -0.8
v 1.1 2.9 -0.9
v 1.1 2.9 -1
v 1.1 3 -0.8
v 1.1 3 -0.9
v 1.1 3 -1
v 1.1 3 -1.1
v 1.2 2.4 -1
v 1.2 2.4 -1.1
v 1.2 2.6 -0.9
v 1.2 2.6 -1
v 1.2 2.6 -1.1
v 1.2 2.7 -0.9
v 1.2 2.7 -1
v 1.2 2.9 -0.9
v 1.2 2.9 -1
v 1.2 3.1 -0.9
v 1.2 3.1 -1
v 0.6 2.4 -0.5
v 0.6 2.5 -0.5
v 0.7 2.4 -0.5
v 0.7 2.5 -0.5
v 0.8 2.4 -0.5
v 0.8 2.5 -0.5
v 0.9 2.4 -0.5
v 0.9 2.5 -0.5
v 0.7 2.4 -0.7
v 0.7 2.5 -0.7
v 0.8 2.4 -0.7
v 0.8 2.5 -0.7
v 0.8 2 -0.8
v 0.8 2.4 -0.8
v 0.8 2.5 -0.8
v 0.8 2.8 -0.8
v 0.8 2.9 -0.8
v 0.8 3 -0.8
v 0.9 2 -0.8
v 0.9 2.3 -0.8
v 0.9 2.8 -0.8
v 0.9 2.9 -0.8
v 1 2.8 -0.8
v 1 2.9 -0.8
v 1.1 2.3 -0.8
v 1.1 2.8 -0.8
v 1.1 2.9 -0.8
v 1.1 3 -0.8
v 0.7 2.5 -0.9
v 0.7 2.7 -0.9
v 0.7 2.9 -0.9
v 0.7 3.1 -0.9
v 0.8 2.5 -0.9
v 0.8 2.7 -0.9
v 0.8 2.9 -0.9
v 0.8 3 -0.9
v 0.8 3.1 -0.9
v 1 2 -0.9
v 1 2.3 -0.9
v 1.1 2 -0.9
v 1.1 2.3 -0.9
v 1.1 2.6 -0.9
v 1.1 2.7 -0.9
v 1.1 2.9 -0.9
v 1.1 3 -0.9
v 1.1 3.1 -0.9
v 1.2 2.6 -0.9
v 1.2 2.7 -0.9
v 1.2 2.9 -0.9
v 1.2 3.1 -0.9
v 1.1 2.4 -1
v 1.1 2.6 -1
v 1.2 2.4 -1
v 1.2 2.6 -1
v 0.6 2.4 -0.7
v 0.6 2.5 -0.7
v 0.7 2.4 -0.7
v 0.7 2.5 -0.7
v 0.8 2.4 -0.7
v 0.8 2.5 -0.7
v 0.9 2.4 -0.7
v 0.9 2.5 -0.7
v 0.8 2 -0.9
v 0.8 2.3 -0.9
v 0.9 2 -0.9
v 0.9 2.3 -0.9
v 0.7 2.5 -1
v 0.7 2.7 -1
v 0.7 2.9 -1
v 0.7 3.1 -1
v 0.8 2.5 -1
v 0.8 2.7 -1
v 0.8 2.9 -1
v 0.8 3 -1
v 0.8 3.1 -1
v 1 2 -1
v 1 2.3 -1
v 1.1 2 -1
v 1.1 2.3 -1
v 1.1 2.6 -1
v 1.1 2.7 -1
v 1.1 2.9 -1
v 1.1 3 -1
v 1.1 3.1 -1
v 1.2 2.6 -1
v 1.2 2.7 -1
v 1.2 2.9 -1
v 1.2 3.1 -1
v 0.8 2.3 -1.1
v 0.8 2.4 -1.1
v 0.8 2.5 -1.1
v 0.8 3 -1.1
v 1.1 2.3 -1.1
v 1.1 2.4 -1.1
v 1.1 2.6 -1.1
v 1.1 3 -1.1
v 1.2 2.4 -1.1
v 1.2 2.6 -1.1
v 0.7 2.4 -1.2
v 0.7 2.5 -1.2
v 0.8 2.4 -1.2
v 0.8 2.5 -1.2
v 0.8 2 -0.8
v 0.9 2 -0.8
v 0.8 2 -0.9
v 0.9 2 -0.9
v 1 2 -0.9
v 1.1 2 -0.9
v 1 2 -1
v 1.1 2 -1
v 0.9 2.3 -0.8
v 1.1 2.3 -0.8
v 0.8 2.3 -0.9
v 0.9 2.3 -0.9
v 1 2.3 -0.9
v 1.1 2.3 -0.9
v 1 2.3 -1
v 1.1 2.3 -1
v 0.8 2.3 -1.1
v 1.1 2.3 -1.1
v 0.6 2.4 -0.5
v 0.7 2.4 -0.5
v 0.8 2.4 -0.5
v 0.9 2.4 -0.5
v 0.6 2.4 -0.7
v 0.7 2.4 -0.7
v 0.8 2.4 -0.7
v 0.9 2.4 -0.7
v 0.8 2.4 -0.8
v 0.7 2.4 -0.9
v 0.8 2.4 -0.9
v 0.7 2.4 -1
v 0.8 2.4 -1
v 1.1 2.4 -1
v 1.2 2.4 -1
v 0.8 2.4 -1.1
v 1.1 2.4 -1.1
v 1.2 2.4 -1.1
v 0.7 2.4 -1.2
v 0.8 2.4 -1.2
v 1.1 2.6 -0.9
v 1.2 2.6 -0.9
v 1.1 2.6 -1
v 1.2 2.6 -1
v 0.7 2.9 -0.9
v 0.8 2.9 -0.9
v 1.1 2.9 -0.9
v 1.2 2.9 -0.9
v 0.7 2.9 -1
v 0.8 2.9 -1
v 1.1 2.9 -1
v 1.2 2.9 -1
v 0.6 2.5 -0.5
v 0.7 2.5 -0.5
v 0.8 2.5 -0.5
v 0.9 2.5 -0.5
v 0.6 2.5 -0.7
v 0.7 2.5 -0.7
v 0.8 2.5 -0.7
v 0.9 2.5 -0.7
v 0.8 2.5 -0.8
v 0.7 2.5 -0.9
v 0.8 2.5 -0.9
v 0.7 2.5 -1
v 0.8 2.5 -1
v 0.8 2.5 -1.1
v 0.7 2.5 -1.2
v 0.8 2.5 -1.2
v 1.1 2.6 -1
v 1.2 2.6 -1
v 1.1 2.6 -1.1
v 1.2 2.6 -1.1
v 0.7 2.7 -0.9
v 0.8 2.7 -0.9
v 1.1 2.7 -0.9
v 1.2 2.7 -0.9
v 0.7 2.7 -1
v 0.8 2.7 -1
v 1.1 2.7 -1
v 1.2 2.7 -1
v 0.8 3 -0.8
v 1.1 3 -0.8
v 0.8 3 -0.9
v 1.1 3 -0.9
v 0.8 3 -1
v 1.1 3 -1
v 0.8 3 -1.1
v 1.1 3 -1.1
v 0.7 3.1 -0.9
v 0.8 3.1 -0.9
v 1.1 3.1 -0.9
v 1.2 3.1 -0.9
v 0.7 3.1 -1
v 0.8 3.1 -1
v 1.1 3.1 -1
v 1.2 3.1 -1

# faces
f 3/3/1 2/3/1 1/3/1
f 4/3/1 2/3/1 3/3/1
f 9/3/1 6/3/1 5/3/1
f 10/2/1 7/2/1 6/2/1
f 10/3/1 6/3/1 9/3/1
f 11/3/1 8/3/1 7/3/1
f 11/2/1 7/2/1 10/2/1
f 12/3/1 8/3/1 11/3/1
f 13/2/1 11/2/1 10/2/1
f 14/2/1 11/2/1 13/2/1
f 17/3/1 16/3/1 15/3/1
f 18/3/1 16/3/1 17/3/1
f 21/2/1 20/2/1 19/2/1
f 25/2/1 21/2/1 19/2/1
f 25/2/1 22/2/1 21/2/1
f 26/2/1 22/2/1 25/2/1
f 27/2/1 22/2/1 26/2/1
f 28/2/1 22/2/1 27/2/1
f 29/3/1 24/3/1 23/3/1
f 30/3/1 24/3/1 29/3/1
f 35/2/1 32/2/1 31/2/1
f 36/2/1 34/2/1 33/2/1
f 37/2/1 35/2/1 31/2/1
f 37/2/1 36/2/1 35/2/1
f 38/2/1 36/2/1 37/2/1
f 39/1/1 38/1/1 37/1/1
f 40/2/1 36/2/1 38/2/1
f 40/1/1 38/1/1 39/1/1
f 41/2/1 34/2/1 36/2/1
f 41/2/1 36/2/1 40/2/1
f 42/2/1 40/2/1 39/2/1
f 43/2/1 40/2/1 42/2/1
f 44/2/1 34/2/1 41/2/1
f 45/2/1 34/2/1 44/2/1
f 48/2/1 47/2/1 46/2/1
f 49/2/1 47/2/1 48/2/1
f 52/3/1 51/3/1 50/3/1
f 53/3/1 51/3/1 52/3/1
f 54/3/2 55/3/2 56/3/2
f 56/3/2 55/3/2 57/3/2
f 58/3/2 59/3/2 62/3/2
f 62/3/2 59/3/2 63/3/2
f 60/3/2 61/3/2 64/3/2
f 64/3/2 61/3/2 65/3/2
f 66/3/2 67/3/2 68/3/2
f 68/3/2 67/3/2 69/3/2
f 70/2/2 71/2/2 72/2/2
f 72/2/2 71/2/2 73/2/2
f 74/3/2 75/3/2 76/3/2
f 76/3/2 75/3/2 77/3/2
f 78/2/2 79/2/2 81/2/2
f 81/2/2 79/2/2 82/2/2
f 80/2/2 81/2/2 84/2/2
f 82/2/2 83/2/2 84/2/2
f 81/2/2 82/2/2 84/2/2
f 84/2/2 83/2/2 85/2/2
f 80/2/2 84/2/2 86/2/2
f 86/2/2 84/2/2 87/2/2
f 80/2/2 86/2/2 89/2/2
f 87/2/2 88/2/2 90/2/2
f 80/2/2 89/2/2 91/2/2
f 89/2/2 90/2/2 91/2/2
f 91/2/2 90/2/2 92/2/2
f 91/1/2 92/1/2 93/1/2
f 92/2/2 90/2/2 94/2/2
f 93/1/2 92/1/2 94/1/2
f 90/2/2 88/2/2 95/2/2
f 94/2/2 90/2/2 95/2/2
f 93/2/2 94/2/2 96/2/2
f 96/2/2 94/2/2 97/2/2
f 95/2/2 88/2/2 98/2/2
f 98/2/2 88/2/2 99/2/2
f 100/2/2 101/2/2 103/2/2
f 103/2/2 101/2/2 104/2/2
f 102/2/2 103/2/2 105/2/2
f 105/2/2 103/2/2 106/2/2
f 107/3/2 108/3/2 109/3/2
f 109/3/2 108/3/2 110/3/2
f 113/3/3 112/3/3 111/3/3
f 114/3/3 112/3/3 113/3/3
f 117/3/3 116/3/3 115/3/3
f 118/3/3 116/3/3 117/3/3
f 121/3/3 120/3/3 119/3/3
f 122/3/3 120/3/3 121/3/3
f 129/2/3 124/2/3 123/2/3
f 129/2/3 125/2/3 124/2/3
f 129/2/3 126/2/3 125/2/3
f 130/2/3 126/2/3 129/2/3
f 131/1/3 127/1/3 126/1/3
f 131/2/3 126/2/3 130/2/3
f 132/2/3 128/2/3 127/2/3
f 132/1/3 127/1/3 131/1/3
f 133/2/3 131/2/3 130/2/3
f 133/2/3 132/2/3 131/2/3
f 134/2/3 128/2/3 132/2/3
f 134/2/3 132/2/3 133/2/3
f 135/2/3 133/2/3 130/2/3
f 136/1/3 134/1/3 133/1/3
f 136/2/3 133/2/3 135/2/3
f 137/2/3 128/2/3 134/2/3
f 137/1/3 134/1/3 136/1/3
f 138/2/3 128/2/3 137/2/3
f 143/2/3 140/2/3 139/2/3
f 144/2/3 140/2/3 143/2/3
f 145/3/3 142/3/3 141/3/3
f 146/3/3 142/3/3 145/3/3
f 147/3/3 142/3/3 146/3/3
f 150/2/3 149/2/3 148/2/3
f 151/2/3 149/2/3 150/2/3
f 157/2/3 153/2/3 152/2/3
f 158/2/3 153/2/3 157/2/3
f 159/3/3 156/3/3 155/3/3
f 159/3/3 155/3/3 154/3/3
f 160/3/3 156/3/3 159/3/3
f 163/2/3 162/2/3 161/2/3
f 164/2/3 162/2/3 163/2/3
f 165/3/4 166/3/4 167/3/4
f 167/3/4 166/3/4 168/3/4
f 169/3/4 170/3/4 171/3/4
f 171/3/4 170/3/4 172/3/4
f 173/2/4 174/2/4 175/2/4
f 175/2/4 174/2/4 176/2/4
f 177/2/4 178/2/4 181/2/4
f 181/2/4 178/2/4 182/2/4
f 179/3/4 180/3/4 183/3/4
f 183/3/4 180/3/4 184/3/4
f 184/3/4 180/3/4 185/3/4
f 186/2/4 187/2/4 188/2/4
f 188/2/4 187/2/4 189/2/4
f 190/2/4 191/2/4 195/2/4
f 195/2/4 191/2/4 196/2/4
f 193/3/4 194/3/4 197/3/4
f 192/3/4 193/3/4 197/3/4
f 197/3/4 194/3/4 198/3/4
f 199/2/4 200/2/4 203/2/4
f 201/2/4 202/2/4 203/2/4
f 200/2/4 201/2/4 203/2/4
f 203/2/4 202/2/4 204/2/4
f 204/2/4 202/2/4 205/2/4
f 205/2/4 202/2/4 206/2/4
f 204/2/4 205/2/4 207/2/4
f 207/2/4 205/2/4 208/2/4
f 209/3/4 210/3/4 211/3/4
f 211/3/4 210/3/4 212/3/4
f 215/2/5 214/2/5 213/2/5
f 216/2/5 214/2/5 215/2/5
f 219/2/5 218/2/5 217/2/5
f 220/2/5 218/2/5 219/2/5
f 224/2/5 222/2/5 221/2/5
f 225/2/5 222/2/5 224/2/5
f 226/2/5 222/2/5 225/2/5
f 227/2/5 224/2/5 223/2/5
f 227/2/5 225/2/5 224/2/5
f 229/2/5 227/2/5 223/2/5
f 229/2/5 228/2/5 227/2/5
f 230/2/5 228/2/5 229/2/5
f 235/3/5 232/3/5 231/3/5
f 236/3/5 232/3/5 235/3/5
f 237/3/5 234/3/5 233/3/5
f 238/3/5 234/3/5 237/3/5
f 239/3/5 237/3/5 236/3/5
f 240/3/5 239/3/5 236/3/5
f 241/3/5 239/3/5 240/3/5
f 242/2/5 241/2/5 240/2/5
f 243/2/5 241/2/5 242/2/5
f 246/3/5 243/3/5 242/3/5
f 247/2/5 245/2/5 244/2/5
f 248/2/5 245/2/5 247/2/5
f 249/3/5 246/3/5 242/3/5
f 250/3/5 246/3/5 249/3/5
f 253/2/5 252/2/5 251/2/5
f 254/2/5 252/2/5 253/2/5
f 259/3/5 256/3/5 255/3/5
f 260/3/5 256/3/5 259/3/5
f 261/3/5 258/3/5 257/3/5
f 262/3/5 258/3/5 261/3/5
f 263/3/6 264/3/6 267/3/6
f 267/3/6 264/3/6 268/3/6
f 265/3/6 266/3/6 269/3/6
f 269/3/6 266/3/6 270/3/6
f 268/3/6 269/3/6 271/3/6
f 268/3/6 271/3/6 272/3/6
f 272/3/6 271/3/6 273/3/6
f 274/3/6 275/3/6 276/3/6
f 274/3/6 276/3/6 277/3/6
f 277/3/6 276/3/6 278/3/6
f 279/2/6 280/2/6 281/2/6
f 281/2/6 280/2/6 282/2/6
f 283/2/6 284/2/6 287/2/6
f 287/2/6 284/2/6 288/2/6
f 285/2/6 286/2/6 289/2/6
f 289/2/6 286/2/6 290/2/6
f 291/2/6 292/2/6 293/2/6
f 293/2/6 292/2/6 294/2/6
f 293/2/6 294/2/6 295/2/6
f 295/2/6 294/2/6 296/2/6
f 295/2/6 296/2/6 297/2/6
f 297/2/6 296/2/6 298/2/6
f 299/3/6 300/3/6 303/3/6
f 303/3/6 300/3/6 304/3/6
f 301/3/6 302/3/6 305/3/6
f 305/3/6 302/3/6 306/3/6
