# MagicaVoxel @ Ephtracy

# group
o 

# material
mtllib 2.mtl
usemtl palette

# normals
vn -1 0 0
vn 1 0 0
vn 0 0 1
vn 0 0 -1
vn 0 -1 0
vn 0 1 0

# texcoords
vt 0.841797 0.5
vt 0.873047 0.5
vt 0.994141 0.5

# verts
v 0.6 2.4 -0.5
v 0.6 2.4 -0.7
v 0.6 2.5 -0.5
v 0.6 2.5 -0.7
v 0.7 2.4 -0.7
v 0.7 2.4 -0.9
v 0.7 2.4 -1
v 0.7 2.4 -1.2
v 0.7 2.5 -0.7
v 0.7 2.5 -0.9
v 0.7 2.5 -1
v 0.7 2.5 -1.2
v 0.7 2.7 -0.9
v 0.7 2.7 -1
v 0.7 2.9 -0.9
v 0.7 2.9 -1
v 0.7 3.1 -0.9
v 0.7 3.1 -1
v 0.8 2 -0.9
v 0.8 2 -1
v 0.8 2.3 -0.8
v 0.8 2.3 -0.9
v 0.8 2.3 -1
v 0.8 2.3 -1.1
v 0.8 2.4 -0.5
v 0.8 2.4 -0.7
v 0.8 2.4 -0.8
v 0.8 2.4 -0.9
v 0.8 2.4 -1
v 0.8 2.4 -1.1
v 0.8 2.5 -0.5
v 0.8 2.5 -0.7
v 0.8 2.5 -0.8
v 0.8 2.5 -0.9
v 0.8 2.5 -1
v 0.8 2.5 -1.1
v 0.8 2.7 -0.9
v 0.8 2.7 -1
v 0.8 2.8 -0.8
v 0.8 2.8 -0.9
v 0.8 2.9 -0.8
v 0.8 2.9 -0.9
v 0.8 2.9 -1
v 0.8 3 -0.8
v 0.8 3 -0.9
v 0.8 3 -1
v 0.8 3 -1.1
v 1 2.1 -0.8
v 1 2.1 -0.9
v 1 2.2 -0.9
v 1 2.2 -1
v 1 2.3 -0.8
v 1 2.3 -1
v 1.1 3 -0.9
v 1.1 3 -1
v 1.1 3.1 -0.9
v 1.1 3.1 -1
v 0.7 2.4 -0.5
v 0.7 2.4 -0.7
v 0.7 2.5 -0.5
v 0.7 2.5 -0.7
v 0.8 2.4 -0.7
v 0.8 2.4 -0.8
v 0.8 2.4 -1.1
v 0.8 2.4 -1.2
v 0.8 2.5 -0.7
v 0.8 2.5 -0.8
v 0.8 2.5 -1.1
v 0.8 2.5 -1.2
v 0.8 3 -0.9
v 0.8 3 -1
v 0.8 3.1 -0.9
v 0.8 3.1 -1
v 0.9 2 -0.9
v 0.9 2 -1
v 0.9 2.3 -0.9
v 0.9 2.3 -1
v 0.9 2.4 -0.5
v 0.9 2.4 -0.7
v 0.9 2.5 -0.5
v 0.9 2.5 -0.7
v 1.1 2.1 -0.8
v 1.1 2.1 -0.9
v 1.1 2.2 -0.9
v 1.1 2.2 -1
v 1.1 2.3 -1
v 1.1 2.3 -1.1
v 1.1 2.4 -0.8
v 1.1 2.4 -0.9
v 1.1 2.5 -0.8
v 1.1 2.5 -0.9
v 1.1 2.5 -1
v 1.1 2.7 -0.9
v 1.1 2.7 -1
v 1.1 2.8 -0.8
v 1.1 2.8 -0.9
v 1.1 2.9 -0.8
v 1.1 2.9 -0.9
v 1.1 2.9 -1
v 1.1 3 -0.8
v 1.1 3 -0.9
v 1.1 3 -1
v 1.1 3 -1.1
v 1.2 2.4 -0.8
v 1.2 2.4 -0.9
v 1.2 2.5 -0.8
v 1.2 2.5 -0.9
v 1.2 2.5 -1
v 1.2 2.7 -0.9
v 1.2 2.7 -1
v 1.2 2.9 -0.9
v 1.2 2.9 -1
v 1.2 3.1 -0.9
v 1.2 3.1 -1
v 0.6 2.4 -0.5
v 0.6 2.5 -0.5
v 0.7 2.4 -0.5
v 0.7 2.5 -0.5
v 0.8 2.4 -0.5
v 0.8 2.5 -0.5
v 0.9 2.4 -0.5
v 0.9 2.5 -0.5
v 0.7 2.4 -0.7
v 0.7 2.5 -0.7
v 0.8 2.4 -0.7
v 0.8 2.5 -0.7
v 0.8 2.3 -0.8
v 0.8 2.4 -0.8
v 0.8 2.5 -0.8
v 0.8 2.8 -0.8
v 0.8 2.9 -0.8
v 0.8 3 -0.8
v 0.9 2.8 -0.8
v 0.9 2.9 -0.8
v 1 2.1 -0.8
v 1 2.3 -0.8
v 1 2.8 -0.8
v 1 2.9 -0.8
v 1.1 2.1 -0.8
v 1.1 2.4 -0.8
v 1.1 2.5 -0.8
v 1.1 2.8 -0.8
v 1.1 2.9 -0.8
v 1.1 3 -0.8
v 1.2 2.4 -0.8
v 1.2 2.5 -0.8
v 0.7 2.5 -0.9
v 0.7 2.7 -0.9
v 0.7 2.9 -0.9
v 0.7 3.1 -0.9
v 0.8 2 -0.9
v 0.8 2.3 -0.9
v 0.8 2.5 -0.9
v 0.8 2.7 -0.9
v 0.8 2.9 -0.9
v 0.8 3 -0.9
v 0.8 3.1 -0.9
v 0.9 2 -0.9
v 0.9 2.3 -0.9
v 1.1 2.5 -0.9
v 1.1 2.7 -0.9
v 1.1 2.9 -0.9
v 1.1 3 -0.9
v 1.1 3.1 -0.9
v 1.2 2.5 -0.9
v 1.2 2.7 -0.9
v 1.2 2.9 -0.9
v 1.2 3.1 -0.9
v 0.6 2.4 -0.7
v 0.6 2.5 -0.7
v 0.7 2.4 -0.7
v 0.7 2.5 -0.7
v 0.8 2.4 -0.7
v 0.8 2.5 -0.7
v 0.9 2.4 -0.7
v 0.9 2.5 -0.7
v 1 2.1 -0.9
v 1 2.2 -0.9
v 1.1 2.1 -0.9
v 1.1 2.2 -0.9
v 1.1 2.4 -0.9
v 1.1 2.5 -0.9
v 1.2 2.4 -0.9
v 1.2 2.5 -0.9
v 0.7 2.5 -1
v 0.7 2.7 -1
v 0.7 2.9 -1
v 0.7 3.1 -1
v 0.8 2 -1
v 0.8 2.3 -1
v 0.8 2.5 -1
v 0.8 2.7 -1
v 0.8 2.9 -1
v 0.8 3 -1
v 0.8 3.1 -1
v 0.9 2 -1
v 0.9 2.3 -1
v 1 2.2 -1
v 1 2.3 -1
v 1.1 2.2 -1
v 1.1 2.3 -1
v 1.1 2.5 -1
v 1.1 2.7 -1
v 1.1 2.9 -1
v 1.1 3 -1
v 1.1 3.1 -1
v 1.2 2.5 -1
v 1.2 2.7 -1
v 1.2 2.9 -1
v 1.2 3.1 -1
v 0.8 2.3 -1.1
v 0.8 2.4 -1.1
v 0.8 2.5 -1.1
v 0.8 3 -1.1
v 1.1 2.3 -1.1
v 1.1 3 -1.1
v 0.7 2.4 -1.2
v 0.7 2.5 -1.2
v 0.8 2.4 -1.2
v 0.8 2.5 -1.2
v 0.8 2 -0.9
v 0.9 2 -0.9
v 0.8 2 -1
v 0.9 2 -1
v 1 2.1 -0.8
v 1.1 2.1 -0.8
v 1 2.1 -0.9
v 1.1 2.1 -0.9
v 1 2.2 -0.9
v 1.1 2.2 -0.9
v 1 2.2 -1
v 1.1 2.2 -1
v 0.8 2.3 -0.8
v 1 2.3 -0.8
v 0.8 2.3 -0.9
v 0.9 2.3 -0.9
v 0.8 2.3 -1
v 0.9 2.3 -1
v 1 2.3 -1
v 1.1 2.3 -1
v 0.8 2.3 -1.1
v 1.1 2.3 -1.1
v 0.6 2.4 -0.5
v 0.7 2.4 -0.5
v 0.8 2.4 -0.5
v 0.9 2.4 -0.5
v 0.6 2.4 -0.7
v 0.7 2.4 -0.7
v 0.8 2.4 -0.7
v 0.9 2.4 -0.7
v 0.8 2.4 -0.8
v 1.1 2.4 -0.8
v 1.2 2.4 -0.8
v 0.7 2.4 -0.9
v 0.8 2.4 -0.9
v 1.1 2.4 -0.9
v 1.2 2.4 -0.9
v 0.7 2.4 -1
v 0.8 2.4 -1
v 0.8 2.4 -1.1
v 0.7 2.4 -1.2
v 0.8 2.4 -1.2
v 1.1 2.5 -0.9
v 1.2 2.5 -0.9
v 1.1 2.5 -1
v 1.2 2.5 -1
v 0.7 2.9 -0.9
v 0.8 2.9 -0.9
v 1.1 2.9 -0.9
v 1.2 2.9 -0.9
v 0.7 2.9 -1
v 0.8 2.9 -1
v 1.1 2.9 -1
v 1.2 2.9 -1
v 0.6 2.5 -0.5
v 0.7 2.5 -0.5
v 0.8 2.5 -0.5
v 0.9 2.5 -0.5
v 0.6 2.5 -0.7
v 0.7 2.5 -0.7
v 0.8 2.5 -0.7
v 0.9 2.5 -0.7
v 0.8 2.5 -0.8
v 1.1 2.5 -0.8
v 1.2 2.5 -0.8
v 0.7 2.5 -0.9
v 0.8 2.5 -0.9
v 1.1 2.5 -0.9
v 1.2 2.5 -0.9
v 0.7 2.5 -1
v 0.8 2.5 -1
v 0.8 2.5 -1.1
v 0.7 2.5 -1.2
v 0.8 2.5 -1.2
v 0.7 2.7 -0.9
v 0.8 2.7 -0.9
v 1.1 2.7 -0.9
v 1.2 2.7 -0.9
v 0.7 2.7 -1
v 0.8 2.7 -1
v 1.1 2.7 -1
v 1.2 2.7 -1
v 0.8 3 -0.8
v 1.1 3 -0.8
v 0.8 3 -0.9
v 1.1 3 -0.9
v 0.8 3 -1
v 1.1 3 -1
v 0.8 3 -1.1
v 1.1 3 -1.1
v 0.7 3.1 -0.9
v 0.8 3.1 -0.9
v 1.1 3.1 -0.9
v 1.2 3.1 -0.9
v 0.7 3.1 -1
v 0.8 3.1 -1
v 1.1 3.1 -1
v 1.2 3.1 -1

# faces
f 3/3/1 2/3/1 1/3/1
f 4/3/1 2/3/1 3/3/1
f 9/3/1 6/3/1 5/3/1
f 10/2/1 7/2/1 6/2/1
f 10/3/1 6/3/1 9/3/1
f 11/3/1 8/3/1 7/3/1
f 11/2/1 7/2/1 10/2/1
f 12/3/1 8/3/1 11/3/1
f 13/2/1 11/2/1 10/2/1
f 14/2/1 11/2/1 13/2/1
f 17/3/1 16/3/1 15/3/1
f 18/3/1 16/3/1 17/3/1
f 22/2/1 20/2/1 19/2/1
f 23/2/1 20/2/1 22/2/1
f 27/2/1 22/2/1 21/2/1
f 27/2/1 23/2/1 22/2/1
f 27/2/1 24/2/1 23/2/1
f 28/2/1 24/2/1 27/2/1
f 29/2/1 24/2/1 28/2/1
f 30/2/1 24/2/1 29/2/1
f 31/3/1 26/3/1 25/3/1
f 32/3/1 26/3/1 31/3/1
f 37/2/1 34/2/1 33/2/1
f 38/2/1 36/2/1 35/2/1
f 39/2/1 37/2/1 33/2/1
f 39/2/1 38/2/1 37/2/1
f 40/2/1 38/2/1 39/2/1
f 41/1/1 40/1/1 39/1/1
f 42/2/1 38/2/1 40/2/1
f 42/1/1 40/1/1 41/1/1
f 43/2/1 36/2/1 38/2/1
f 43/2/1 38/2/1 42/2/1
f 44/2/1 42/2/1 41/2/1
f 45/2/1 42/2/1 44/2/1
f 46/2/1 36/2/1 43/2/1
f 47/2/1 36/2/1 46/2/1
f 50/2/1 49/2/1 48/2/1
f 52/2/1 50/2/1 48/2/1
f 52/2/1 51/2/1 50/2/1
f 53/2/1 51/2/1 52/2/1
f 56/3/1 55/3/1 54/3/1
f 57/3/1 55/3/1 56/3/1
f 58/3/2 59/3/2 60/3/2
f 60/3/2 59/3/2 61/3/2
f 62/3/2 63/3/2 66/3/2
f 66/3/2 63/3/2 67/3/2
f 64/3/2 65/3/2 68/3/2
f 68/3/2 65/3/2 69/3/2
f 70/3/2 71/3/2 72/3/2
f 72/3/2 71/3/2 73/3/2
f 74/2/2 75/2/2 76/2/2
f 76/2/2 75/2/2 77/2/2
f 78/3/2 79/3/2 80/3/2
f 80/3/2 79/3/2 81/3/2
f 82/2/2 83/2/2 84/2/2
f 84/2/2 85/2/2 86/2/2
f 82/2/2 84/2/2 88/2/2
f 86/2/2 87/2/2 88/2/2
f 84/2/2 86/2/2 88/2/2
f 88/2/2 87/2/2 89/2/2
f 89/2/2 87/2/2 91/2/2
f 91/2/2 87/2/2 92/2/2
f 90/2/2 91/2/2 93/2/2
f 92/2/2 87/2/2 94/2/2
f 90/2/2 93/2/2 95/2/2
f 93/2/2 94/2/2 95/2/2
f 95/2/2 94/2/2 96/2/2
f 95/1/2 96/1/2 97/1/2
f 96/2/2 94/2/2 98/2/2
f 97/1/2 96/1/2 98/1/2
f 94/2/2 87/2/2 99/2/2
f 98/2/2 94/2/2 99/2/2
f 97/2/2 98/2/2 100/2/2
f 100/2/2 98/2/2 101/2/2
f 99/2/2 87/2/2 102/2/2
f 102/2/2 87/2/2 103/2/2
f 104/2/2 105/2/2 106/2/2
f 106/2/2 105/2/2 107/2/2
f 107/2/2 108/2/2 109/2/2
f 109/2/2 108/2/2 110/2/2
f 111/3/2 112/3/2 113/3/2
f 113/3/2 112/3/2 114/3/2
f 117/3/3 116/3/3 115/3/3
f 118/3/3 116/3/3 117/3/3
f 121/3/3 120/3/3 119/3/3
f 122/3/3 120/3/3 121/3/3
f 125/3/3 124/3/3 123/3/3
f 126/3/3 124/3/3 125/3/3
f 133/2/3 128/2/3 127/2/3
f 133/2/3 129/2/3 128/2/3
f 133/1/3 131/1/3 130/1/3
f 133/2/3 130/2/3 129/2/3
f 134/2/3 132/2/3 131/2/3
f 134/1/3 131/1/3 133/1/3
f 136/2/3 133/2/3 127/2/3
f 136/2/3 134/2/3 133/2/3
f 137/2/3 134/2/3 136/2/3
f 138/2/3 132/2/3 134/2/3
f 138/2/3 134/2/3 137/2/3
f 139/2/3 137/2/3 136/2/3
f 139/2/3 136/2/3 135/2/3
f 140/2/3 137/2/3 139/2/3
f 141/2/3 137/2/3 140/2/3
f 142/1/3 138/1/3 137/1/3
f 142/2/3 137/2/3 141/2/3
f 143/2/3 132/2/3 138/2/3
f 143/1/3 138/1/3 142/1/3
f 144/2/3 132/2/3 143/2/3
f 145/2/3 141/2/3 140/2/3
f 146/2/3 141/2/3 145/2/3
f 153/2/3 148/2/3 147/2/3
f 154/2/3 148/2/3 153/2/3
f 155/3/3 150/3/3 149/3/3
f 156/3/3 150/3/3 155/3/3
f 157/3/3 150/3/3 156/3/3
f 158/2/3 152/2/3 151/2/3
f 159/2/3 152/2/3 158/2/3
f 165/2/3 161/2/3 160/2/3
f 166/2/3 161/2/3 165/2/3
f 167/3/3 164/3/3 163/3/3
f 167/3/3 163/3/3 162/3/3
f 168/3/3 164/3/3 167/3/3
f 169/3/4 170/3/4 171/3/4
f 171/3/4 170/3/4 172/3/4
f 173/3/4 174/3/4 175/3/4
f 175/3/4 174/3/4 176/3/4
f 177/2/4 178/2/4 179/2/4
f 179/2/4 178/2/4 180/2/4
f 181/2/4 182/2/4 183/2/4
f 183/2/4 182/2/4 184/2/4
f 185/2/4 186/2/4 191/2/4
f 191/2/4 186/2/4 192/2/4
f 187/3/4 188/3/4 193/3/4
f 193/3/4 188/3/4 194/3/4
f 194/3/4 188/3/4 195/3/4
f 189/2/4 190/2/4 196/2/4
f 196/2/4 190/2/4 197/2/4
f 198/2/4 199/2/4 200/2/4
f 200/2/4 199/2/4 201/2/4
f 202/2/4 203/2/4 207/2/4
f 207/2/4 203/2/4 208/2/4
f 205/3/4 206/3/4 209/3/4
f 204/3/4 205/3/4 209/3/4
f 209/3/4 206/3/4 210/3/4
f 211/2/4 212/2/4 215/2/4
f 213/2/4 214/2/4 215/2/4
f 212/2/4 213/2/4 215/2/4
f 215/2/4 214/2/4 216/2/4
f 217/3/4 218/3/4 219/3/4
f 219/3/4 218/3/4 220/3/4
f 223/2/5 222/2/5 221/2/5
f 224/2/5 222/2/5 223/2/5
f 227/2/5 226/2/5 225/2/5
f 228/2/5 226/2/5 227/2/5
f 231/2/5 230/2/5 229/2/5
f 232/2/5 230/2/5 231/2/5
f 235/2/5 234/2/5 233/2/5
f 236/2/5 234/2/5 235/2/5
f 238/2/5 234/2/5 236/2/5
f 239/2/5 234/2/5 238/2/5
f 241/2/5 238/2/5 237/2/5
f 241/2/5 240/2/5 239/2/5
f 241/2/5 239/2/5 238/2/5
f 242/2/5 240/2/5 241/2/5
f 247/3/5 244/3/5 243/3/5
f 248/3/5 244/3/5 247/3/5
f 249/3/5 246/3/5 245/3/5
f 250/3/5 246/3/5 249/3/5
f 251/3/5 249/3/5 248/3/5
f 254/3/5 251/3/5 248/3/5
f 255/3/5 251/3/5 254/3/5
f 256/2/5 253/2/5 252/2/5
f 257/2/5 253/2/5 256/2/5
f 258/2/5 255/2/5 254/2/5
f 259/2/5 255/2/5 258/2/5
f 260/3/5 259/3/5 258/3/5
f 261/3/5 260/3/5 258/3/5
f 262/3/5 260/3/5 261/3/5
f 265/2/5 264/2/5 263/2/5
f 266/2/5 264/2/5 265/2/5
f 271/3/5 268/3/5 267/3/5
f 272/3/5 268/3/5 271/3/5
f 273/3/5 270/3/5 269/3/5
f 274/3/5 270/3/5 273/3/5
f 275/3/6 276/3/6 279/3/6
f 279/3/6 276/3/6 280/3/6
f 277/3/6 278/3/6 281/3/6
f 281/3/6 278/3/6 282/3/6
f 280/3/6 281/3/6 283/3/6
f 280/3/6 283/3/6 286/3/6
f 286/3/6 283/3/6 287/3/6
f 284/2/6 285/2/6 288/2/6
f 288/2/6 285/2/6 289/2/6
f 290/3/6 291/3/6 292/3/6
f 290/3/6 292/3/6 293/3/6
f 293/3/6 292/3/6 294/3/6
f 295/2/6 296/2/6 299/2/6
f 299/2/6 296/2/6 300/2/6
f 297/2/6 298/2/6 301/2/6
f 301/2/6 298/2/6 302/2/6
f 303/2/6 304/2/6 305/2/6
f 305/2/6 304/2/6 306/2/6
f 305/2/6 306/2/6 307/2/6
f 307/2/6 306/2/6 308/2/6
f 307/2/6 308/2/6 309/2/6
f 309/2/6 308/2/6 310/2/6
f 311/3/6 312/3/6 315/3/6
f 315/3/6 312/3/6 316/3/6
f 313/3/6 314/3/6 317/3/6
f 317/3/6 314/3/6 318/3/6
