# MagicaVoxel @ Ephtracy

# group
o 

# material
mtllib 2.mtl
usemtl palette

# normals
vn -1 0 0
vn 1 0 0
vn 0 0 1
vn 0 0 -1
vn 0 -1 0
vn 0 1 0

# texcoords
vt 0.0605469 0.5
vt 0.537109 0.5
vt 0.810547 0.5
vt 0.943359 0.5
vt 0.994141 0.5

# verts
v 0.6 2 -0.8
v 0.6 2 -1.1
v 0.6 2.1 -0.8
v 0.6 2.1 -1.1
v 0.7 1.4 -0.8
v 0.7 1.4 -0.9
v 0.7 1.5 -0.8
v 0.7 1.5 -0.9
v 0.7 1.5 -1
v 0.7 1.7 -0.9
v 0.7 1.7 -1
v 0.7 1.7 -1.1
v 0.7 1.8 -0.9
v 0.7 1.8 -1
v 0.7 1.8 -1.1
v 0.7 1.9 -1
v 0.7 1.9 -1.1
v 0.7 2 -0.7
v 0.7 2 -0.8
v 0.7 2 -1.1
v 0.7 2 -1.2
v 0.7 2.1 -0.7
v 0.7 2.1 -0.8
v 0.7 2.1 -1.1
v 0.7 2.1 -1.2
v 0.8 1 -0.9
v 0.8 1 -1
v 0.8 1.1 -0.9
v 0.8 1.1 -1
v 0.8 1.3 -0.8
v 0.8 1.3 -0.9
v 0.8 1.3 -1
v 0.8 1.3 -1.1
v 0.8 1.4 -0.8
v 0.8 1.4 -0.9
v 0.8 1.5 -0.8
v 0.8 1.5 -0.9
v 0.8 1.5 -1
v 0.8 1.7 -0.8
v 0.8 1.7 -0.9
v 0.8 1.7 -1
v 0.8 1.7 -1.1
v 0.8 1.7 -1.2
v 0.8 1.8 -0.8
v 0.8 1.8 -0.9
v 0.8 1.8 -1
v 0.8 1.8 -1.1
v 0.8 1.9 -0.8
v 0.8 1.9 -0.9
v 0.8 1.9 -1
v 0.8 1.9 -1.1
v 0.8 1.9 -1.2
v 0.8 2 -0.6
v 0.8 2 -0.7
v 0.8 2 -0.8
v 0.8 2 -1.1
v 0.8 2 -1.2
v 0.8 2 -1.3
v 0.8 2.1 -0.6
v 0.8 2.1 -0.7
v 0.8 2.1 -0.8
v 0.8 2.1 -1.1
v 0.8 2.1 -1.2
v 0.8 2.1 -1.3
v 0.8 2.3 -0.8
v 0.8 2.3 -1.1
v 0.9 2.3 -0.9
v 0.9 2.3 -1
v 0.9 2.4 -0.9
v 0.9 2.4 -1
v 1 1.1 -0.8
v 1 1.1 -0.9
v 1 1.2 -0.8
v 1 1.2 -0.9
v 1 1.2 -1
v 1 1.3 -0.8
v 1 1.3 -1
v 0.9 1 -0.9
v 0.9 1 -1
v 0.9 1.1 -0.9
v 0.9 1.1 -1
v 0.9 1.3 -0.9
v 0.9 1.3 -1
v 1 2.3 -0.9
v 1 2.3 -1
v 1 2.4 -0.9
v 1 2.4 -1
v 1.1 1.1 -0.8
v 1.1 1.1 -0.9
v 1.1 1.2 -0.8
v 1.1 1.2 -0.9
v 1.1 1.2 -1
v 1.1 1.3 -1
v 1.1 1.3 -1.1
v 1.1 1.4 -1
v 1.1 1.4 -1.1
v 1.1 1.5 -0.9
v 1.1 1.5 -1
v 1.1 1.5 -1.1
v 1.1 1.7 -0.8
v 1.1 1.7 -0.9
v 1.1 1.7 -1
v 1.1 1.7 -1.1
v 1.1 1.7 -1.2
v 1.1 1.8 -0.8
v 1.1 1.8 -0.9
v 1.1 1.8 -1
v 1.1 1.8 -1.1
v 1.1 1.9 -0.8
v 1.1 1.9 -0.9
v 1.1 1.9 -1
v 1.1 1.9 -1.1
v 1.1 1.9 -1.2
v 1.1 2 -0.6
v 1.1 2 -0.7
v 1.1 2 -0.8
v 1.1 2 -1.1
v 1.1 2 -1.2
v 1.1 2 -1.3
v 1.1 2.1 -0.6
v 1.1 2.1 -0.7
v 1.1 2.1 -0.8
v 1.1 2.1 -1.1
v 1.1 2.1 -1.2
v 1.1 2.1 -1.3
v 1.1 2.3 -0.8
v 1.1 2.3 -1.1
v 1.2 1.4 -1
v 1.2 1.4 -1.1
v 1.2 1.5 -0.9
v 1.2 1.5 -1
v 1.2 1.5 -1.1
v 1.2 1.7 -0.9
v 1.2 1.7 -1
v 1.2 1.7 -1.1
v 1.2 1.8 -0.9
v 1.2 1.8 -1
v 1.2 1.8 -1.1
v 1.2 1.9 -1
v 1.2 1.9 -1.1
v 1.2 2 -0.7
v 1.2 2 -0.8
v 1.2 2 -1.1
v 1.2 2 -1.2
v 1.2 2.1 -0.7
v 1.2 2.1 -0.8
v 1.2 2.1 -1.1
v 1.2 2.1 -1.2
v 1.3 2 -0.8
v 1.3 2 -1.1
v 1.3 2.1 -0.8
v 1.3 2.1 -1.1
v 0.8 2 -0.6
v 0.8 2.1 -0.6
v 1.1 2 -0.6
v 1.1 2.1 -0.6
v 0.7 2 -0.7
v 0.7 2.1 -0.7
v 0.8 2 -0.7
v 0.8 2.1 -0.7
v 1.1 2 -0.7
v 1.1 2.1 -0.7
v 1.2 2 -0.7
v 1.2 2.1 -0.7
v 0.6 2 -0.8
v 0.6 2.1 -0.8
v 0.7 1.4 -0.8
v 0.7 1.5 -0.8
v 0.7 2 -0.8
v 0.7 2.1 -0.8
v 0.8 1.3 -0.8
v 0.8 1.4 -0.8
v 0.8 1.5 -0.8
v 0.8 1.7 -0.8
v 0.8 1.8 -0.8
v 0.8 1.9 -0.8
v 0.8 2 -0.8
v 0.8 2.1 -0.8
v 0.8 2.3 -0.8
v 0.9 1.4 -0.8
v 0.9 1.7 -0.8
v 0.9 1.8 -0.8
v 0.9 1.9 -0.8
v 1 1.1 -0.8
v 1 1.2 -0.8
v 1 1.3 -0.8
v 1 1.4 -0.8
v 1 1.7 -0.8
v 1 1.8 -0.8
v 1 1.9 -0.8
v 1.1 1.1 -0.8
v 1.1 1.2 -0.8
v 1.1 1.7 -0.8
v 1.1 1.8 -0.8
v 1.1 1.9 -0.8
v 1.1 2 -0.8
v 1.1 2.1 -0.8
v 1.1 2.3 -0.8
v 1.2 2 -0.8
v 1.2 2.1 -0.8
v 1.3 2 -0.8
v 1.3 2.1 -0.8
v 0.7 1.5 -0.9
v 0.7 1.7 -0.9
v 0.7 1.8 -0.9
v 0.8 1 -0.9
v 0.8 1.1 -0.9
v 0.8 1.3 -0.9
v 0.8 1.5 -0.9
v 0.8 1.7 -0.9
v 0.8 1.8 -0.9
v 0.9 1 -0.9
v 0.9 1.1 -0.9
v 0.9 1.3 -0.9
v 0.9 2.3 -0.9
v 0.9 2.4 -0.9
v 1 2.3 -0.9
v 1 2.4 -0.9
v 1.1 1.5 -0.9
v 1.1 1.7 -0.9
v 1.1 1.8 -0.9
v 1.2 1.5 -0.9
v 1.2 1.7 -0.9
v 1.2 1.8 -0.9
v 0.7 1.8 -1
v 0.7 1.9 -1
v 0.8 1.8 -1
v 0.8 1.9 -1
v 1.1 1.4 -1
v 1.1 1.5 -1
v 1.1 1.8 -1
v 1.1 1.9 -1
v 1.2 1.4 -1
v 1.2 1.5 -1
v 1.2 1.8 -1
v 1.2 1.9 -1
v 0.7 1.4 -0.9
v 0.7 1.5 -0.9
v 0.8 1.4 -0.9
v 0.8 1.5 -0.9
v 1 1.1 -0.9
v 1 1.2 -0.9
v 1.1 1.1 -0.9
v 1.1 1.2 -0.9
v 0.7 1.5 -1
v 0.7 1.7 -1
v 0.8 1 -1
v 0.8 1.1 -1
v 0.8 1.3 -1
v 0.8 1.5 -1
v 0.8 1.7 -1
v 0.9 1 -1
v 0.9 1.1 -1
v 0.9 1.3 -1
v 0.9 2.3 -1
v 0.9 2.4 -1
v 1 1.2 -1
v 1 1.3 -1
v 1 2.3 -1
v 1 2.4 -1
v 1.1 1.2 -1
v 1.1 1.3 -1
v 1.1 1.5 -1
v 1.1 1.7 -1
v 1.2 1.5 -1
v 1.2 1.7 -1
v 0.6 2 -1.1
v 0.6 2.1 -1.1
v 0.7 1.7 -1.1
v 0.7 1.8 -1.1
v 0.7 1.9 -1.1
v 0.7 2 -1.1
v 0.7 2.1 -1.1
v 0.8 1.3 -1.1
v 0.8 1.7 -1.1
v 0.8 1.8 -1.1
v 0.8 1.9 -1.1
v 0.8 2 -1.1
v 0.8 2.1 -1.1
v 0.8 2.3 -1.1
v 0.9 1.5 -1.1
v 0.9 1.7 -1.1
v 0.9 1.9 -1.1
v 1 1.5 -1.1
v 1 1.7 -1.1
v 1 1.9 -1.1
v 1.1 1.3 -1.1
v 1.1 1.4 -1.1
v 1.1 1.5 -1.1
v 1.1 1.7 -1.1
v 1.1 1.8 -1.1
v 1.1 1.9 -1.1
v 1.1 2 -1.1
v 1.1 2.1 -1.1
v 1.1 2.3 -1.1
v 1.2 1.4 -1.1
v 1.2 1.5 -1.1
v 1.2 1.7 -1.1
v 1.2 1.8 -1.1
v 1.2 1.9 -1.1
v 1.2 2 -1.1
v 1.2 2.1 -1.1
v 1.3 2 -1.1
v 1.3 2.1 -1.1
v 0.7 2 -1.2
v 0.7 2.1 -1.2
v 0.8 1.7 -1.2
v 0.8 1.9 -1.2
v 0.8 2 -1.2
v 0.8 2.1 -1.2
v 0.9 1.7 -1.2
v 0.9 1.9 -1.2
v 1 1.7 -1.2
v 1 1.9 -1.2
v 1.1 1.7 -1.2
v 1.1 1.9 -1.2
v 1.1 2 -1.2
v 1.1 2.1 -1.2
v 1.2 2 -1.2
v 1.2 2.1 -1.2
v 0.8 2 -1.3
v 0.8 2.1 -1.3
v 1.1 2 -1.3
v 1.1 2.1 -1.3
v 0.8 1 -0.9
v 0.9 1 -0.9
v 0.8 1 -1
v 0.9 1 -1
v 1 1.1 -0.8
v 1.1 1.1 -0.8
v 1 1.1 -0.9
v 1.1 1.1 -0.9
v 1 1.2 -0.9
v 1.1 1.2 -0.9
v 1 1.2 -1
v 1.1 1.2 -1
v 0.8 1.3 -0.8
v 1 1.3 -0.8
v 0.8 1.3 -0.9
v 0.9 1.3 -0.9
v 0.8 1.3 -1
v 0.9 1.3 -1
v 1 1.3 -1
v 1.1 1.3 -1
v 0.8 1.3 -1.1
v 1.1 1.3 -1.1
v 0.7 1.4 -0.8
v 0.8 1.4 -0.8
v 0.7 1.4 -0.9
v 0.8 1.4 -0.9
v 1.1 1.4 -1
v 1.2 1.4 -1
v 1.1 1.4 -1.1
v 1.2 1.4 -1.1
v 0.7 1.5 -0.9
v 0.8 1.5 -0.9
v 1.1 1.5 -0.9
v 1.2 1.5 -0.9
v 0.7 1.5 -1
v 0.8 1.5 -1
v 1.1 1.5 -1
v 1.2 1.5 -1
v 0.7 1.7 -1
v 0.8 1.7 -1
v 1.1 1.7 -1
v 1.2 1.7 -1
v 0.7 1.7 -1.1
v 0.8 1.7 -1.1
v 0.9 1.7 -1.1
v 1 1.7 -1.1
v 1.1 1.7 -1.1
v 1.2 1.7 -1.1
v 0.8 1.7 -1.2
v 0.9 1.7 -1.2
v 1 1.7 -1.2
v 1.1 1.7 -1.2
v 0.8 2 -0.6
v 1.1 2 -0.6
v 0.7 2 -0.7
v 0.8 2 -0.7
v 1.1 2 -0.7
v 1.2 2 -0.7
v 0.6 2 -0.8
v 0.7 2 -0.8
v 0.8 2 -0.8
v 1.1 2 -0.8
v 1.2 2 -0.8
v 1.3 2 -0.8
v 0.6 2 -1.1
v 0.7 2 -1.1
v 0.8 2 -1.1
v 1.1 2 -1.1
v 1.2 2 -1.1
v 1.3 2 -1.1
v 0.7 2 -1.2
v 0.8 2 -1.2
v 1.1 2 -1.2
v 1.2 2 -1.2
v 0.8 2 -1.3
v 1.1 2 -1.3
v 0.7 1.5 -0.8
v 0.8 1.5 -0.8
v 0.7 1.5 -0.9
v 0.8 1.5 -0.9
v 1.1 1.5 -1
v 1.2 1.5 -1
v 1.1 1.5 -1.1
v 1.2 1.5 -1.1
v 0.7 1.8 -0.9
v 0.8 1.8 -0.9
v 1.1 1.8 -0.9
v 1.2 1.8 -0.9
v 0.7 1.8 -1
v 0.8 1.8 -1
v 1.1 1.8 -1
v 1.2 1.8 -1
v 0.7 1.9 -1
v 0.8 1.9 -1
v 1.1 1.9 -1
v 1.2 1.9 -1
v 0.7 1.9 -1.1
v 0.8 1.9 -1.1
v 0.9 1.9 -1.1
v 1 1.9 -1.1
v 1.1 1.9 -1.1
v 1.2 1.9 -1.1
v 0.8 1.9 -1.2
v 0.9 1.9 -1.2
v 1 1.9 -1.2
v 1.1 1.9 -1.2
v 0.8 2.1 -0.6
v 1.1 2.1 -0.6
v 0.7 2.1 -0.7
v 0.8 2.1 -0.7
v 1.1 2.1 -0.7
v 1.2 2.1 -0.7
v 0.6 2.1 -0.8
v 0.7 2.1 -0.8
v 0.8 2.1 -0.8
v 1.1 2.1 -0.8
v 1.2 2.1 -0.8
v 1.3 2.1 -0.8
v 0.6 2.1 -1.1
v 0.7 2.1 -1.1
v 0.8 2.1 -1.1
v 1.1 2.1 -1.1
v 1.2 2.1 -1.1
v 1.3 2.1 -1.1
v 0.7 2.1 -1.2
v 0.8 2.1 -1.2
v 1.1 2.1 -1.2
v 1.2 2.1 -1.2
v 0.8 2.1 -1.3
v 1.1 2.1 -1.3
v 0.8 2.3 -0.8
v 1.1 2.3 -0.8
v 0.9 2.3 -0.9
v 1 2.3 -0.9
v 0.9 2.3 -1
v 1 2.3 -1
v 0.8 2.3 -1.1
v 1.1 2.3 -1.1
v 0.9 2.4 -0.9
v 1 2.4 -0.9
v 0.9 2.4 -1
v 1 2.4 -1

# faces
f 3/4/1 2/4/1 1/4/1
f 4/4/1 2/4/1 3/4/1
f 7/1/1 6/1/1 5/1/1
f 8/1/1 6/1/1 7/1/1
f 10/4/1 9/4/1 8/4/1
f 11/4/1 9/4/1 10/4/1
f 13/3/1 11/3/1 10/3/1
f 14/4/1 12/4/1 11/4/1
f 14/3/1 11/3/1 13/3/1
f 15/4/1 12/4/1 14/4/1
f 16/3/1 15/3/1 14/3/1
f 17/3/1 15/3/1 16/3/1
f 22/4/1 19/4/1 18/4/1
f 23/4/1 19/4/1 22/4/1
f 24/4/1 21/4/1 20/4/1
f 25/4/1 21/4/1 24/4/1
f 28/2/1 27/2/1 26/2/1
f 29/2/1 27/2/1 28/2/1
f 31/4/1 29/4/1 28/4/1
f 32/4/1 29/4/1 31/4/1
f 34/4/1 32/4/1 31/4/1
f 34/4/1 33/4/1 32/4/1
f 34/4/1 31/4/1 30/4/1
f 35/4/1 33/4/1 34/4/1
f 37/4/1 33/4/1 35/4/1
f 38/4/1 33/4/1 37/4/1
f 39/4/1 37/4/1 36/4/1
f 40/4/1 37/4/1 39/4/1
f 41/4/1 33/4/1 38/4/1
f 42/4/1 33/4/1 41/4/1
f 44/1/1 40/1/1 39/1/1
f 45/1/1 40/1/1 44/1/1
f 47/3/1 43/3/1 42/3/1
f 48/5/1 45/5/1 44/5/1
f 49/1/1 46/1/1 45/1/1
f 49/5/1 45/5/1 48/5/1
f 50/1/1 46/1/1 49/1/1
f 51/3/1 43/3/1 47/3/1
f 52/3/1 43/3/1 51/3/1
f 55/1/1 50/1/1 49/1/1
f 55/1/1 49/1/1 48/1/1
f 55/1/1 51/1/1 50/1/1
f 56/1/1 51/1/1 55/1/1
f 59/4/1 54/4/1 53/4/1
f 60/4/1 54/4/1 59/4/1
f 63/4/1 58/4/1 57/4/1
f 64/4/1 58/4/1 63/4/1
f 65/4/1 62/4/1 61/4/1
f 66/4/1 62/4/1 65/4/1
f 69/4/1 68/4/1 67/4/1
f 70/4/1 68/4/1 69/4/1
f 73/2/1 72/2/1 71/2/1
f 74/2/1 72/2/1 73/2/1
f 76/4/1 74/4/1 73/4/1
f 76/4/1 75/4/1 74/4/1
f 77/4/1 75/4/1 76/4/1
f 78/2/2 79/2/2 80/2/2
f 80/2/2 79/2/2 81/2/2
f 80/4/2 81/4/2 82/4/2
f 82/4/2 81/4/2 83/4/2
f 84/4/2 85/4/2 86/4/2
f 86/4/2 85/4/2 87/4/2
f 88/2/2 89/2/2 90/2/2
f 90/2/2 89/2/2 91/2/2
f 90/4/2 91/4/2 93/4/2
f 91/4/2 92/4/2 93/4/2
f 90/4/2 93/4/2 95/4/2
f 93/4/2 94/4/2 95/4/2
f 95/4/2 94/4/2 96/4/2
f 90/4/2 95/4/2 97/4/2
f 97/4/2 95/4/2 98/4/2
f 90/4/2 97/4/2 100/4/2
f 100/4/2 97/4/2 101/4/2
f 98/4/2 99/4/2 102/4/2
f 102/4/2 99/4/2 103/4/2
f 100/1/2 101/1/2 105/1/2
f 105/1/2 101/1/2 106/1/2
f 103/3/2 104/3/2 108/3/2
f 105/5/2 106/5/2 109/5/2
f 106/1/2 107/1/2 110/1/2
f 109/5/2 106/5/2 110/5/2
f 110/1/2 107/1/2 111/1/2
f 108/3/2 104/3/2 112/3/2
f 112/3/2 104/3/2 113/3/2
f 110/1/2 111/1/2 116/1/2
f 109/1/2 110/1/2 116/1/2
f 111/1/2 112/1/2 116/1/2
f 116/1/2 112/1/2 117/1/2
f 114/4/2 115/4/2 120/4/2
f 120/4/2 115/4/2 121/4/2
f 118/4/2 119/4/2 124/4/2
f 124/4/2 119/4/2 125/4/2
f 122/4/2 123/4/2 126/4/2
f 126/4/2 123/4/2 127/4/2
f 128/1/2 129/1/2 131/1/2
f 131/1/2 129/1/2 132/1/2
f 130/4/2 131/4/2 133/4/2
f 133/4/2 131/4/2 134/4/2
f 133/3/2 134/3/2 136/3/2
f 134/4/2 135/4/2 137/4/2
f 136/3/2 134/3/2 137/3/2
f 137/4/2 135/4/2 138/4/2
f 137/3/2 138/3/2 139/3/2
f 139/3/2 138/3/2 140/3/2
f 141/4/2 142/4/2 145/4/2
f 145/4/2 142/4/2 146/4/2
f 143/4/2 144/4/2 147/4/2
f 147/4/2 144/4/2 148/4/2
f 149/4/2 150/4/2 151/4/2
f 151/4/2 150/4/2 152/4/2
f 155/4/3 154/4/3 153/4/3
f 156/4/3 154/4/3 155/4/3
f 159/4/3 158/4/3 157/4/3
f 160/4/3 158/4/3 159/4/3
f 163/4/3 162/4/3 161/4/3
f 164/4/3 162/4/3 163/4/3
f 169/4/3 166/4/3 165/4/3
f 170/4/3 166/4/3 169/4/3
f 172/1/3 168/1/3 167/1/3
f 173/1/3 168/1/3 172/1/3
f 180/4/3 172/4/3 171/4/3
f 180/4/3 173/4/3 172/4/3
f 180/4/3 174/4/3 173/4/3
f 181/1/3 175/1/3 174/1/3
f 181/4/3 174/4/3 180/4/3
f 182/5/3 176/5/3 175/5/3
f 182/1/3 175/1/3 181/1/3
f 183/1/3 177/1/3 176/1/3
f 183/5/3 176/5/3 182/5/3
f 186/4/3 180/4/3 171/4/3
f 187/3/3 181/3/3 180/3/3
f 187/4/3 180/4/3 186/4/3
f 188/1/3 182/1/3 181/1/3
f 188/3/3 181/3/3 187/3/3
f 188/1/3 183/1/3 182/1/3
f 189/1/3 183/1/3 188/1/3
f 190/1/3 177/1/3 183/1/3
f 190/1/3 183/1/3 189/1/3
f 191/2/3 185/2/3 184/2/3
f 192/4/3 187/4/3 186/4/3
f 192/2/3 185/2/3 191/2/3
f 192/4/3 186/4/3 185/4/3
f 192/4/3 188/4/3 187/4/3
f 193/1/3 189/1/3 188/1/3
f 193/4/3 188/4/3 192/4/3
f 194/5/3 190/5/3 189/5/3
f 194/1/3 189/1/3 193/1/3
f 195/1/3 177/1/3 190/1/3
f 195/5/3 190/5/3 194/5/3
f 196/1/3 177/1/3 195/1/3
f 197/4/3 179/4/3 178/4/3
f 198/4/3 179/4/3 197/4/3
f 201/4/3 200/4/3 199/4/3
f 202/4/3 200/4/3 201/4/3
f 209/4/3 204/4/3 203/4/3
f 210/3/3 205/3/3 204/3/3
f 210/4/3 204/4/3 209/4/3
f 211/3/3 205/3/3 210/3/3
f 212/2/3 207/2/3 206/2/3
f 213/4/3 208/4/3 207/4/3
f 213/2/3 207/2/3 212/2/3
f 214/4/3 208/4/3 213/4/3
f 217/4/3 216/4/3 215/4/3
f 218/4/3 216/4/3 217/4/3
f 222/4/3 220/4/3 219/4/3
f 223/3/3 221/3/3 220/3/3
f 223/4/3 220/4/3 222/4/3
f 224/3/3 221/3/3 223/3/3
f 227/3/3 226/3/3 225/3/3
f 228/3/3 226/3/3 227/3/3
f 233/1/3 230/1/3 229/1/3
f 234/1/3 230/1/3 233/1/3
f 235/3/3 232/3/3 231/3/3
f 236/3/3 232/3/3 235/3/3
f 237/1/4 238/1/4 239/1/4
f 239/1/4 238/1/4 240/1/4
f 241/2/4 242/2/4 243/2/4
f 243/2/4 242/2/4 244/2/4
f 245/4/4 246/4/4 250/4/4
f 250/4/4 246/4/4 251/4/4
f 247/2/4 248/2/4 252/2/4
f 248/4/4 249/4/4 253/4/4
f 252/2/4 248/2/4 253/2/4
f 253/4/4 249/4/4 254/4/4
f 255/4/4 256/4/4 259/4/4
f 259/4/4 256/4/4 260/4/4
f 257/4/4 258/4/4 261/4/4
f 261/4/4 258/4/4 262/4/4
f 263/4/4 264/4/4 265/4/4
f 265/4/4 264/4/4 266/4/4
f 267/4/4 268/4/4 272/4/4
f 272/4/4 268/4/4 273/4/4
f 269/4/4 270/4/4 275/4/4
f 270/3/4 271/3/4 276/3/4
f 275/4/4 270/4/4 276/4/4
f 276/3/4 271/3/4 277/3/4
f 274/4/4 275/4/4 281/4/4
f 281/4/4 275/4/4 282/4/4
f 277/1/4 278/1/4 283/1/4
f 281/3/4 282/3/4 284/3/4
f 274/4/4 281/4/4 284/4/4
f 284/3/4 282/3/4 285/3/4
f 283/1/4 278/1/4 286/1/4
f 284/4/4 285/4/4 287/4/4
f 274/4/4 284/4/4 287/4/4
f 287/4/4 285/4/4 288/4/4
f 288/4/4 285/4/4 289/4/4
f 289/4/4 285/4/4 290/4/4
f 286/1/4 278/1/4 292/1/4
f 292/1/4 278/1/4 293/1/4
f 279/4/4 280/4/4 294/4/4
f 294/4/4 280/4/4 295/4/4
f 288/1/4 289/1/4 296/1/4
f 296/1/4 289/1/4 297/1/4
f 290/4/4 291/4/4 298/4/4
f 291/3/4 292/3/4 299/3/4
f 298/4/4 291/4/4 299/4/4
f 299/3/4 292/3/4 300/3/4
f 301/4/4 302/4/4 303/4/4
f 303/4/4 302/4/4 304/4/4
f 305/4/4 306/4/4 309/4/4
f 309/4/4 306/4/4 310/4/4
f 307/3/4 308/3/4 311/3/4
f 311/3/4 308/3/4 312/3/4
f 311/4/4 312/4/4 313/4/4
f 313/4/4 312/4/4 314/4/4
f 313/3/4 314/3/4 315/3/4
f 315/3/4 314/3/4 316/3/4
f 317/4/4 318/4/4 319/4/4
f 319/4/4 318/4/4 320/4/4
f 321/4/4 322/4/4 323/4/4
f 323/4/4 322/4/4 324/4/4
f 327/2/5 326/2/5 325/2/5
f 328/2/5 326/2/5 327/2/5
f 331/2/5 330/2/5 329/2/5
f 332/2/5 330/2/5 331/2/5
f 335/4/5 334/4/5 333/4/5
f 336/4/5 334/4/5 335/4/5
f 339/4/5 338/4/5 337/4/5
f 340/4/5 338/4/5 339/4/5
f 342/4/5 338/4/5 340/4/5
f 343/4/5 338/4/5 342/4/5
f 345/4/5 342/4/5 341/4/5
f 345/4/5 344/4/5 343/4/5
f 345/4/5 343/4/5 342/4/5
f 346/4/5 344/4/5 345/4/5
f 349/1/5 348/1/5 347/1/5
f 350/1/5 348/1/5 349/1/5
f 353/1/5 352/1/5 351/1/5
f 354/1/5 352/1/5 353/1/5
f 359/4/5 356/4/5 355/4/5
f 360/4/5 356/4/5 359/4/5
f 361/4/5 358/4/5 357/4/5
f 362/4/5 358/4/5 361/4/5
f 367/4/5 364/4/5 363/4/5
f 368/4/5 364/4/5 367/4/5
f 371/4/5 366/4/5 365/4/5
f 372/4/5 366/4/5 371/4/5
f 373/3/5 369/3/5 368/3/5
f 374/4/5 370/4/5 369/4/5
f 374/3/5 369/3/5 373/3/5
f 375/3/5 371/3/5 370/3/5
f 375/4/5 370/4/5 374/4/5
f 376/3/5 371/3/5 375/3/5
f 380/4/5 378/4/5 377/4/5
f 381/4/5 378/4/5 380/4/5
f 384/4/5 380/4/5 379/4/5
f 384/4/5 382/4/5 381/4/5
f 384/4/5 381/4/5 380/4/5
f 385/4/5 382/4/5 384/4/5
f 386/4/5 382/4/5 385/4/5
f 387/4/5 382/4/5 386/4/5
f 389/4/5 384/4/5 383/4/5
f 389/4/5 385/4/5 384/4/5
f 390/4/5 385/4/5 389/4/5
f 391/4/5 385/4/5 390/4/5
f 392/4/5 388/4/5 387/4/5
f 392/4/5 387/4/5 386/4/5
f 393/4/5 388/4/5 392/4/5
f 394/4/5 388/4/5 393/4/5
f 395/4/5 391/4/5 390/4/5
f 395/4/5 393/4/5 392/4/5
f 395/4/5 392/4/5 391/4/5
f 396/4/5 393/4/5 395/4/5
f 397/4/5 393/4/5 396/4/5
f 398/4/5 393/4/5 397/4/5
f 399/4/5 397/4/5 396/4/5
f 400/4/5 397/4/5 399/4/5
f 401/1/6 402/1/6 403/1/6
f 403/1/6 402/1/6 404/1/6
f 405/1/6 406/1/6 407/1/6
f 407/1/6 406/1/6 408/1/6
f 409/3/6 410/3/6 413/3/6
f 413/3/6 410/3/6 414/3/6
f 411/3/6 412/3/6 415/3/6
f 415/3/6 412/3/6 416/3/6
f 417/3/6 418/3/6 421/3/6
f 421/3/6 418/3/6 422/3/6
f 419/3/6 420/3/6 425/3/6
f 425/3/6 420/3/6 426/3/6
f 422/3/6 423/3/6 427/3/6
f 423/4/6 424/4/6 428/4/6
f 427/3/6 423/3/6 428/3/6
f 424/3/6 425/3/6 429/3/6
f 428/4/6 424/4/6 429/4/6
f 429/3/6 425/3/6 430/3/6
f 431/4/6 432/4/6 434/4/6
f 434/4/6 432/4/6 435/4/6
f 433/4/6 434/4/6 438/4/6
f 435/4/6 436/4/6 438/4/6
f 434/4/6 435/4/6 438/4/6
f 438/4/6 436/4/6 439/4/6
f 439/4/6 436/4/6 440/4/6
f 440/4/6 436/4/6 441/4/6
f 437/4/6 438/4/6 443/4/6
f 438/4/6 439/4/6 443/4/6
f 443/4/6 439/4/6 444/4/6
f 444/4/6 439/4/6 445/4/6
f 441/4/6 442/4/6 446/4/6
f 440/4/6 441/4/6 446/4/6
f 446/4/6 442/4/6 447/4/6
f 447/4/6 442/4/6 448/4/6
f 444/4/6 445/4/6 449/4/6
f 446/4/6 447/4/6 449/4/6
f 445/4/6 446/4/6 449/4/6
f 449/4/6 447/4/6 450/4/6
f 450/4/6 447/4/6 451/4/6
f 451/4/6 447/4/6 452/4/6
f 450/4/6 451/4/6 453/4/6
f 453/4/6 451/4/6 454/4/6
f 455/4/6 456/4/6 457/4/6
f 457/4/6 456/4/6 458/4/6
f 455/4/6 457/4/6 459/4/6
f 458/4/6 456/4/6 460/4/6
f 455/4/6 459/4/6 461/4/6
f 459/4/6 460/4/6 461/4/6
f 460/4/6 456/4/6 462/4/6
f 461/4/6 460/4/6 462/4/6
f 463/4/6 464/4/6 465/4/6
f 465/4/6 464/4/6 466/4/6
