# MagicaVoxel @ Ephtracy

# group
o 

# material
mtllib 3.mtl
usemtl palette

# normals
vn -1 0 0
vn 1 0 0
vn 0 0 1
vn 0 0 -1
vn 0 -1 0
vn 0 1 0

# texcoords
vt 0.0605469 0.5
vt 0.537109 0.5
vt 0.810547 0.5
vt 0.943359 0.5
vt 0.994141 0.5

# verts
v 0.6 2 -0.8
v 0.6 2 -1.1
v 0.6 2.1 -0.8
v 0.6 2.1 -1.1
v 0.7 1.5 -0.8
v 0.7 1.5 -0.9
v 0.7 1.5 -1
v 0.7 1.6 -0.8
v 0.7 1.6 -0.9
v 0.7 1.7 -0.9
v 0.7 1.7 -1
v 0.7 1.7 -1.1
v 0.7 1.8 -0.9
v 0.7 1.8 -1
v 0.7 1.8 -1.1
v 0.7 1.9 -1
v 0.7 1.9 -1.1
v 0.7 2 -0.7
v 0.7 2 -0.8
v 0.7 2 -1.1
v 0.7 2 -1.2
v 0.7 2.1 -0.7
v 0.7 2.1 -0.8
v 0.7 2.1 -1.1
v 0.7 2.1 -1.2
v 0.8 1 -0.9
v 0.8 1 -1
v 0.8 1.1 -0.9
v 0.8 1.1 -1
v 0.8 1.3 -0.8
v 0.8 1.3 -0.9
v 0.8 1.3 -1
v 0.8 1.3 -1.1
v 0.8 1.5 -0.8
v 0.8 1.5 -0.9
v 0.8 1.5 -1
v 0.8 1.6 -0.8
v 0.8 1.6 -0.9
v 0.8 1.7 -0.8
v 0.8 1.7 -0.9
v 0.8 1.7 -1
v 0.8 1.7 -1.1
v 0.8 1.7 -1.2
v 0.8 1.8 -0.8
v 0.8 1.8 -0.9
v 0.8 1.8 -1
v 0.8 1.8 -1.1
v 0.8 1.9 -0.8
v 0.8 1.9 -0.9
v 0.8 1.9 -1
v 0.8 1.9 -1.1
v 0.8 1.9 -1.2
v 0.8 2 -0.6
v 0.8 2 -0.7
v 0.8 2 -0.8
v 0.8 2 -1.1
v 0.8 2 -1.2
v 0.8 2 -1.3
v 0.8 2.1 -0.6
v 0.8 2.1 -0.7
v 0.8 2.1 -0.8
v 0.8 2.1 -1.1
v 0.8 2.1 -1.2
v 0.8 2.1 -1.3
v 0.8 2.3 -0.8
v 0.8 2.3 -1.1
v 0.9 2.3 -0.9
v 0.9 2.3 -1
v 0.9 2.4 -0.9
v 0.9 2.4 -1
v 1 1 -0.8
v 1 1 -0.9
v 1 1.1 -0.8
v 1 1.1 -0.9
v 1 1.3 -0.8
v 1 1.3 -0.9
v 0.9 1 -0.9
v 0.9 1 -1
v 0.9 1.1 -0.9
v 0.9 1.1 -1
v 0.9 1.3 -0.9
v 0.9 1.3 -1
v 1 2.3 -0.9
v 1 2.3 -1
v 1 2.4 -0.9
v 1 2.4 -1
v 1.1 1 -0.8
v 1.1 1 -0.9
v 1.1 1.1 -0.8
v 1.1 1.1 -0.9
v 1.1 1.3 -0.9
v 1.1 1.3 -1.1
v 1.1 1.4 -1
v 1.1 1.4 -1.1
v 1.1 1.5 -1
v 1.1 1.6 -0.9
v 1.1 1.6 -1
v 1.1 1.6 -1.1
v 1.1 1.7 -0.8
v 1.1 1.7 -0.9
v 1.1 1.7 -1
v 1.1 1.7 -1.1
v 1.1 1.7 -1.2
v 1.1 1.8 -0.8
v 1.1 1.8 -0.9
v 1.1 1.8 -1
v 1.1 1.8 -1.1
v 1.1 1.9 -0.8
v 1.1 1.9 -0.9
v 1.1 1.9 -1
v 1.1 1.9 -1.1
v 1.1 1.9 -1.2
v 1.1 2 -0.6
v 1.1 2 -0.7
v 1.1 2 -0.8
v 1.1 2 -1.1
v 1.1 2 -1.2
v 1.1 2 -1.3
v 1.1 2.1 -0.6
v 1.1 2.1 -0.7
v 1.1 2.1 -0.8
v 1.1 2.1 -1.1
v 1.1 2.1 -1.2
v 1.1 2.1 -1.3
v 1.1 2.3 -0.8
v 1.1 2.3 -1.1
v 1.2 1.4 -1
v 1.2 1.4 -1.1
v 1.2 1.5 -1
v 1.2 1.5 -1.1
v 1.2 1.6 -0.9
v 1.2 1.6 -1
v 1.2 1.6 -1.1
v 1.2 1.7 -0.9
v 1.2 1.7 -1
v 1.2 1.7 -1.1
v 1.2 1.8 -0.9
v 1.2 1.8 -1
v 1.2 1.8 -1.1
v 1.2 1.9 -1
v 1.2 1.9 -1.1
v 1.2 2 -0.7
v 1.2 2 -0.8
v 1.2 2 -1.1
v 1.2 2 -1.2
v 1.2 2.1 -0.7
v 1.2 2.1 -0.8
v 1.2 2.1 -1.1
v 1.2 2.1 -1.2
v 1.3 2 -0.8
v 1.3 2 -1.1
v 1.3 2.1 -0.8
v 1.3 2.1 -1.1
v 0.8 2 -0.6
v 0.8 2.1 -0.6
v 1.1 2 -0.6
v 1.1 2.1 -0.6
v 0.7 2 -0.7
v 0.7 2.1 -0.7
v 0.8 2 -0.7
v 0.8 2.1 -0.7
v 1.1 2 -0.7
v 1.1 2.1 -0.7
v 1.2 2 -0.7
v 1.2 2.1 -0.7
v 0.6 2 -0.8
v 0.6 2.1 -0.8
v 0.7 1.5 -0.8
v 0.7 1.6 -0.8
v 0.7 2 -0.8
v 0.7 2.1 -0.8
v 0.8 1.3 -0.8
v 0.8 1.5 -0.8
v 0.8 1.6 -0.8
v 0.8 1.7 -0.8
v 0.8 1.8 -0.8
v 0.8 1.9 -0.8
v 0.8 2 -0.8
v 0.8 2.1 -0.8
v 0.8 2.3 -0.8
v 0.9 1.4 -0.8
v 0.9 1.7 -0.8
v 0.9 1.8 -0.8
v 0.9 1.9 -0.8
v 1 1 -0.8
v 1 1.1 -0.8
v 1 1.3 -0.8
v 1 1.4 -0.8
v 1 1.7 -0.8
v 1 1.8 -0.8
v 1 1.9 -0.8
v 1.1 1 -0.8
v 1.1 1.1 -0.8
v 1.1 1.7 -0.8
v 1.1 1.8 -0.8
v 1.1 1.9 -0.8
v 1.1 2 -0.8
v 1.1 2.1 -0.8
v 1.1 2.3 -0.8
v 1.2 2 -0.8
v 1.2 2.1 -0.8
v 1.3 2 -0.8
v 1.3 2.1 -0.8
v 0.7 1.6 -0.9
v 0.7 1.7 -0.9
v 0.7 1.8 -0.9
v 0.8 1 -0.9
v 0.8 1.1 -0.9
v 0.8 1.3 -0.9
v 0.8 1.6 -0.9
v 0.8 1.7 -0.9
v 0.8 1.8 -0.9
v 0.9 1 -0.9
v 0.9 1.1 -0.9
v 0.9 1.3 -0.9
v 0.9 2.3 -0.9
v 0.9 2.4 -0.9
v 1 2.3 -0.9
v 1 2.4 -0.9
v 1.1 1.6 -0.9
v 1.1 1.7 -0.9
v 1.1 1.8 -0.9
v 1.2 1.6 -0.9
v 1.2 1.7 -0.9
v 1.2 1.8 -0.9
v 0.7 1.8 -1
v 0.7 1.9 -1
v 0.8 1.8 -1
v 0.8 1.9 -1
v 1.1 1.4 -1
v 1.1 1.5 -1
v 1.1 1.6 -1
v 1.1 1.8 -1
v 1.1 1.9 -1
v 1.2 1.4 -1
v 1.2 1.5 -1
v 1.2 1.6 -1
v 1.2 1.8 -1
v 1.2 1.9 -1
v 1 1 -0.9
v 1 1.1 -0.9
v 1 1.3 -0.9
v 1.1 1 -0.9
v 1.1 1.1 -0.9
v 1.1 1.3 -0.9
v 0.7 1.5 -1
v 0.7 1.7 -1
v 0.8 1 -1
v 0.8 1.1 -1
v 0.8 1.3 -1
v 0.8 1.5 -1
v 0.8 1.7 -1
v 0.9 1 -1
v 0.9 1.1 -1
v 0.9 1.3 -1
v 0.9 2.3 -1
v 0.9 2.4 -1
v 1 2.3 -1
v 1 2.4 -1
v 1.1 1.6 -1
v 1.1 1.7 -1
v 1.2 1.6 -1
v 1.2 1.7 -1
v 0.6 2 -1.1
v 0.6 2.1 -1.1
v 0.7 1.7 -1.1
v 0.7 1.8 -1.1
v 0.7 1.9 -1.1
v 0.7 2 -1.1
v 0.7 2.1 -1.1
v 0.8 1.3 -1.1
v 0.8 1.7 -1.1
v 0.8 1.8 -1.1
v 0.8 1.9 -1.1
v 0.8 2 -1.1
v 0.8 2.1 -1.1
v 0.8 2.3 -1.1
v 0.9 1.5 -1.1
v 0.9 1.7 -1.1
v 0.9 1.9 -1.1
v 1 1.5 -1.1
v 1 1.7 -1.1
v 1 1.9 -1.1
v 1.1 1.3 -1.1
v 1.1 1.4 -1.1
v 1.1 1.5 -1.1
v 1.1 1.6 -1.1
v 1.1 1.7 -1.1
v 1.1 1.8 -1.1
v 1.1 1.9 -1.1
v 1.1 2 -1.1
v 1.1 2.1 -1.1
v 1.1 2.3 -1.1
v 1.2 1.4 -1.1
v 1.2 1.5 -1.1
v 1.2 1.6 -1.1
v 1.2 1.7 -1.1
v 1.2 1.8 -1.1
v 1.2 1.9 -1.1
v 1.2 2 -1.1
v 1.2 2.1 -1.1
v 1.3 2 -1.1
v 1.3 2.1 -1.1
v 0.7 2 -1.2
v 0.7 2.1 -1.2
v 0.8 1.7 -1.2
v 0.8 1.9 -1.2
v 0.8 2 -1.2
v 0.8 2.1 -1.2
v 0.9 1.7 -1.2
v 0.9 1.9 -1.2
v 1 1.7 -1.2
v 1 1.9 -1.2
v 1.1 1.7 -1.2
v 1.1 1.9 -1.2
v 1.1 2 -1.2
v 1.1 2.1 -1.2
v 1.2 2 -1.2
v 1.2 2.1 -1.2
v 0.8 2 -1.3
v 0.8 2.1 -1.3
v 1.1 2 -1.3
v 1.1 2.1 -1.3
v 1 1 -0.8
v 1.1 1 -0.8
v 0.8 1 -0.9
v 0.9 1 -0.9
v 1 1 -0.9
v 1.1 1 -0.9
v 0.8 1 -1
v 0.9 1 -1
v 0.8 1.3 -0.8
v 1 1.3 -0.8
v 0.8 1.3 -0.9
v 0.9 1.3 -0.9
v 1 1.3 -0.9
v 1.1 1.3 -0.9
v 0.8 1.3 -1
v 0.9 1.3 -1
v 0.8 1.3 -1.1
v 1.1 1.3 -1.1
v 1.1 1.4 -1
v 1.2 1.4 -1
v 1.1 1.4 -1.1
v 1.2 1.4 -1.1
v 0.7 1.5 -0.8
v 0.8 1.5 -0.8
v 0.7 1.5 -0.9
v 0.8 1.5 -0.9
v 0.7 1.5 -1
v 0.8 1.5 -1
v 1.1 1.6 -0.9
v 1.2 1.6 -0.9
v 1.1 1.6 -1
v 1.2 1.6 -1
v 0.7 1.7 -1
v 0.8 1.7 -1
v 1.1 1.7 -1
v 1.2 1.7 -1
v 0.7 1.7 -1.1
v 0.8 1.7 -1.1
v 0.9 1.7 -1.1
v 1 1.7 -1.1
v 1.1 1.7 -1.1
v 1.2 1.7 -1.1
v 0.8 1.7 -1.2
v 0.9 1.7 -1.2
v 1 1.7 -1.2
v 1.1 1.7 -1.2
v 0.8 2 -0.6
v 1.1 2 -0.6
v 0.7 2 -0.7
v 0.8 2 -0.7
v 1.1 2 -0.7
v 1.2 2 -0.7
v 0.6 2 -0.8
v 0.7 2 -0.8
v 0.8 2 -0.8
v 1.1 2 -0.8
v 1.2 2 -0.8
v 1.3 2 -0.8
v 0.6 2 -1.1
v 0.7 2 -1.1
v 0.8 2 -1.1
v 1.1 2 -1.1
v 1.2 2 -1.1
v 1.3 2 -1.1
v 0.7 2 -1.2
v 0.8 2 -1.2
v 1.1 2 -1.2
v 1.2 2 -1.2
v 0.8 2 -1.3
v 1.1 2 -1.3
v 0.7 1.6 -0.8
v 0.8 1.6 -0.8
v 0.7 1.6 -0.9
v 0.8 1.6 -0.9
v 1.1 1.6 -1
v 1.2 1.6 -1
v 1.1 1.6 -1.1
v 1.2 1.6 -1.1
v 0.7 1.8 -0.9
v 0.8 1.8 -0.9
v 1.1 1.8 -0.9
v 1.2 1.8 -0.9
v 0.7 1.8 -1
v 0.8 1.8 -1
v 1.1 1.8 -1
v 1.2 1.8 -1
v 0.7 1.9 -1
v 0.8 1.9 -1
v 1.1 1.9 -1
v 1.2 1.9 -1
v 0.7 1.9 -1.1
v 0.8 1.9 -1.1
v 0.9 1.9 -1.1
v 1 1.9 -1.1
v 1.1 1.9 -1.1
v 1.2 1.9 -1.1
v 0.8 1.9 -1.2
v 0.9 1.9 -1.2
v 1 1.9 -1.2
v 1.1 1.9 -1.2
v 0.8 2.1 -0.6
v 1.1 2.1 -0.6
v 0.7 2.1 -0.7
v 0.8 2.1 -0.7
v 1.1 2.1 -0.7
v 1.2 2.1 -0.7
v 0.6 2.1 -0.8
v 0.7 2.1 -0.8
v 0.8 2.1 -0.8
v 1.1 2.1 -0.8
v 1.2 2.1 -0.8
v 1.3 2.1 -0.8
v 0.6 2.1 -1.1
v 0.7 2.1 -1.1
v 0.8 2.1 -1.1
v 1.1 2.1 -1.1
v 1.2 2.1 -1.1
v 1.3 2.1 -1.1
v 0.7 2.1 -1.2
v 0.8 2.1 -1.2
v 1.1 2.1 -1.2
v 1.2 2.1 -1.2
v 0.8 2.1 -1.3
v 1.1 2.1 -1.3
v 0.8 2.3 -0.8
v 1.1 2.3 -0.8
v 0.9 2.3 -0.9
v 1 2.3 -0.9
v 0.9 2.3 -1
v 1 2.3 -1
v 0.8 2.3 -1.1
v 1.1 2.3 -1.1
v 0.9 2.4 -0.9
v 1 2.4 -0.9
v 0.9 2.4 -1
v 1 2.4 -1

# faces
f 3/4/1 2/4/1 1/4/1
f 4/4/1 2/4/1 3/4/1
f 8/1/1 6/1/1 5/1/1
f 9/4/1 7/4/1 6/4/1
f 9/1/1 6/1/1 8/1/1
f 10/4/1 7/4/1 9/4/1
f 11/4/1 7/4/1 10/4/1
f 13/3/1 11/3/1 10/3/1
f 14/4/1 12/4/1 11/4/1
f 14/3/1 11/3/1 13/3/1
f 15/4/1 12/4/1 14/4/1
f 16/3/1 15/3/1 14/3/1
f 17/3/1 15/3/1 16/3/1
f 22/4/1 19/4/1 18/4/1
f 23/4/1 19/4/1 22/4/1
f 24/4/1 21/4/1 20/4/1
f 25/4/1 21/4/1 24/4/1
f 28/2/1 27/2/1 26/2/1
f 29/2/1 27/2/1 28/2/1
f 31/4/1 29/4/1 28/4/1
f 32/4/1 29/4/1 31/4/1
f 34/4/1 32/4/1 31/4/1
f 34/4/1 33/4/1 32/4/1
f 34/4/1 31/4/1 30/4/1
f 35/4/1 33/4/1 34/4/1
f 36/4/1 33/4/1 35/4/1
f 39/4/1 38/4/1 37/4/1
f 40/4/1 38/4/1 39/4/1
f 41/4/1 33/4/1 36/4/1
f 42/4/1 33/4/1 41/4/1
f 44/1/1 40/1/1 39/1/1
f 45/1/1 40/1/1 44/1/1
f 47/3/1 43/3/1 42/3/1
f 48/5/1 45/5/1 44/5/1
f 49/1/1 46/1/1 45/1/1
f 49/5/1 45/5/1 48/5/1
f 50/1/1 46/1/1 49/1/1
f 51/3/1 43/3/1 47/3/1
f 52/3/1 43/3/1 51/3/1
f 55/1/1 50/1/1 49/1/1
f 55/1/1 49/1/1 48/1/1
f 55/1/1 51/1/1 50/1/1
f 56/1/1 51/1/1 55/1/1
f 59/4/1 54/4/1 53/4/1
f 60/4/1 54/4/1 59/4/1
f 63/4/1 58/4/1 57/4/1
f 64/4/1 58/4/1 63/4/1
f 65/4/1 62/4/1 61/4/1
f 66/4/1 62/4/1 65/4/1
f 69/4/1 68/4/1 67/4/1
f 70/4/1 68/4/1 69/4/1
f 73/2/1 72/2/1 71/2/1
f 74/2/1 72/2/1 73/2/1
f 75/4/1 74/4/1 73/4/1
f 76/4/1 74/4/1 75/4/1
f 77/2/2 78/2/2 79/2/2
f 79/2/2 78/2/2 80/2/2
f 79/4/2 80/4/2 81/4/2
f 81/4/2 80/4/2 82/4/2
f 83/4/2 84/4/2 85/4/2
f 85/4/2 84/4/2 86/4/2
f 87/2/2 88/2/2 89/2/2
f 89/2/2 88/2/2 90/2/2
f 89/4/2 90/4/2 91/4/2
f 91/4/2 92/4/2 93/4/2
f 93/4/2 92/4/2 94/4/2
f 91/4/2 93/4/2 95/4/2
f 89/4/2 91/4/2 96/4/2
f 91/4/2 95/4/2 96/4/2
f 96/4/2 95/4/2 97/4/2
f 89/4/2 96/4/2 99/4/2
f 99/4/2 96/4/2 100/4/2
f 97/4/2 98/4/2 101/4/2
f 101/4/2 98/4/2 102/4/2
f 99/1/2 100/1/2 104/1/2
f 104/1/2 100/1/2 105/1/2
f 102/3/2 103/3/2 107/3/2
f 104/5/2 105/5/2 108/5/2
f 105/1/2 106/1/2 109/1/2
f 108/5/2 105/5/2 109/5/2
f 109/1/2 106/1/2 110/1/2
f 107/3/2 103/3/2 111/3/2
f 111/3/2 103/3/2 112/3/2
f 109/1/2 110/1/2 115/1/2
f 108/1/2 109/1/2 115/1/2
f 110/1/2 111/1/2 115/1/2
f 115/1/2 111/1/2 116/1/2
f 113/4/2 114/4/2 119/4/2
f 119/4/2 114/4/2 120/4/2
f 117/4/2 118/4/2 123/4/2
f 123/4/2 118/4/2 124/4/2
f 121/4/2 122/4/2 125/4/2
f 125/4/2 122/4/2 126/4/2
f 127/1/2 128/1/2 129/1/2
f 129/1/2 128/1/2 130/1/2
f 129/4/2 130/4/2 132/4/2
f 132/4/2 130/4/2 133/4/2
f 131/4/2 132/4/2 134/4/2
f 134/4/2 132/4/2 135/4/2
f 134/3/2 135/3/2 137/3/2
f 135/4/2 136/4/2 138/4/2
f 137/3/2 135/3/2 138/3/2
f 138/4/2 136/4/2 139/4/2
f 138/3/2 139/3/2 140/3/2
f 140/3/2 139/3/2 141/3/2
f 142/4/2 143/4/2 146/4/2
f 146/4/2 143/4/2 147/4/2
f 144/4/2 145/4/2 148/4/2
f 148/4/2 145/4/2 149/4/2
f 150/4/2 151/4/2 152/4/2
f 152/4/2 151/4/2 153/4/2
f 156/4/3 155/4/3 154/4/3
f 157/4/3 155/4/3 156/4/3
f 160/4/3 159/4/3 158/4/3
f 161/4/3 159/4/3 160/4/3
f 164/4/3 163/4/3 162/4/3
f 165/4/3 163/4/3 164/4/3
f 170/4/3 167/4/3 166/4/3
f 171/4/3 167/4/3 170/4/3
f 173/1/3 169/1/3 168/1/3
f 174/1/3 169/1/3 173/1/3
f 181/4/3 173/4/3 172/4/3
f 181/4/3 174/4/3 173/4/3
f 181/4/3 175/4/3 174/4/3
f 182/1/3 176/1/3 175/1/3
f 182/4/3 175/4/3 181/4/3
f 183/5/3 177/5/3 176/5/3
f 183/1/3 176/1/3 182/1/3
f 184/1/3 178/1/3 177/1/3
f 184/5/3 177/5/3 183/5/3
f 187/4/3 181/4/3 172/4/3
f 188/3/3 182/3/3 181/3/3
f 188/4/3 181/4/3 187/4/3
f 189/1/3 183/1/3 182/1/3
f 189/3/3 182/3/3 188/3/3
f 189/1/3 184/1/3 183/1/3
f 190/1/3 184/1/3 189/1/3
f 191/1/3 178/1/3 184/1/3
f 191/1/3 184/1/3 190/1/3
f 192/2/3 186/2/3 185/2/3
f 193/4/3 188/4/3 187/4/3
f 193/2/3 186/2/3 192/2/3
f 193/4/3 187/4/3 186/4/3
f 193/4/3 189/4/3 188/4/3
f 194/1/3 190/1/3 189/1/3
f 194/4/3 189/4/3 193/4/3
f 195/5/3 191/5/3 190/5/3
f 195/1/3 190/1/3 194/1/3
f 196/1/3 178/1/3 191/1/3
f 196/5/3 191/5/3 195/5/3
f 197/1/3 178/1/3 196/1/3
f 198/4/3 180/4/3 179/4/3
f 199/4/3 180/4/3 198/4/3
f 202/4/3 201/4/3 200/4/3
f 203/4/3 201/4/3 202/4/3
f 210/4/3 205/4/3 204/4/3
f 211/3/3 206/3/3 205/3/3
f 211/4/3 205/4/3 210/4/3
f 212/3/3 206/3/3 211/3/3
f 213/2/3 208/2/3 207/2/3
f 214/4/3 209/4/3 208/4/3
f 214/2/3 208/2/3 213/2/3
f 215/4/3 209/4/3 214/4/3
f 218/4/3 217/4/3 216/4/3
f 219/4/3 217/4/3 218/4/3
f 223/4/3 221/4/3 220/4/3
f 224/3/3 222/3/3 221/3/3
f 224/4/3 221/4/3 223/4/3
f 225/3/3 222/3/3 224/3/3
f 228/3/3 227/3/3 226/3/3
f 229/3/3 227/3/3 228/3/3
f 235/1/3 231/1/3 230/1/3
f 236/4/3 232/4/3 231/4/3
f 236/1/3 231/1/3 235/1/3
f 237/4/3 232/4/3 236/4/3
f 238/3/3 234/3/3 233/3/3
f 239/3/3 234/3/3 238/3/3
f 240/2/4 241/2/4 243/2/4
f 241/4/4 242/4/4 244/4/4
f 243/2/4 241/2/4 244/2/4
f 244/4/4 242/4/4 245/4/4
f 246/4/4 247/4/4 251/4/4
f 251/4/4 247/4/4 252/4/4
f 248/2/4 249/2/4 253/2/4
f 249/4/4 250/4/4 254/4/4
f 253/2/4 249/2/4 254/2/4
f 254/4/4 250/4/4 255/4/4
f 256/4/4 257/4/4 258/4/4
f 258/4/4 257/4/4 259/4/4
f 260/4/4 261/4/4 262/4/4
f 262/4/4 261/4/4 263/4/4
f 264/4/4 265/4/4 269/4/4
f 269/4/4 265/4/4 270/4/4
f 266/4/4 267/4/4 272/4/4
f 267/3/4 268/3/4 273/3/4
f 272/4/4 267/4/4 273/4/4
f 273/3/4 268/3/4 274/3/4
f 271/4/4 272/4/4 278/4/4
f 278/4/4 272/4/4 279/4/4
f 274/1/4 275/1/4 280/1/4
f 278/3/4 279/3/4 281/3/4
f 271/4/4 278/4/4 281/4/4
f 281/3/4 279/3/4 282/3/4
f 280/1/4 275/1/4 283/1/4
f 281/4/4 282/4/4 284/4/4
f 271/4/4 281/4/4 284/4/4
f 284/4/4 282/4/4 285/4/4
f 285/4/4 282/4/4 286/4/4
f 286/4/4 282/4/4 287/4/4
f 287/4/4 282/4/4 288/4/4
f 283/1/4 275/1/4 290/1/4
f 290/1/4 275/1/4 291/1/4
f 276/4/4 277/4/4 292/4/4
f 292/4/4 277/4/4 293/4/4
f 285/1/4 286/1/4 294/1/4
f 286/4/4 287/4/4 295/4/4
f 294/1/4 286/1/4 295/1/4
f 295/4/4 287/4/4 296/4/4
f 288/4/4 289/4/4 297/4/4
f 289/3/4 290/3/4 298/3/4
f 297/4/4 289/4/4 298/4/4
f 298/3/4 290/3/4 299/3/4
f 300/4/4 301/4/4 302/4/4
f 302/4/4 301/4/4 303/4/4
f 304/4/4 305/4/4 308/4/4
f 308/4/4 305/4/4 309/4/4
f 306/3/4 307/3/4 310/3/4
f 310/3/4 307/3/4 311/3/4
f 310/4/4 311/4/4 312/4/4
f 312/4/4 311/4/4 313/4/4
f 312/3/4 313/3/4 314/3/4
f 314/3/4 313/3/4 315/3/4
f 316/4/4 317/4/4 318/4/4
f 318/4/4 317/4/4 319/4/4
f 320/4/4 321/4/4 322/4/4
f 322/4/4 321/4/4 323/4/4
f 328/2/5 325/2/5 324/2/5
f 329/2/5 325/2/5 328/2/5
f 330/2/5 327/2/5 326/2/5
f 331/2/5 327/2/5 330/2/5
f 334/4/5 333/4/5 332/4/5
f 335/4/5 333/4/5 334/4/5
f 336/4/5 333/4/5 335/4/5
f 339/4/5 337/4/5 336/4/5
f 339/4/5 336/4/5 335/4/5
f 340/4/5 339/4/5 338/4/5
f 341/4/5 337/4/5 339/4/5
f 341/4/5 339/4/5 340/4/5
f 344/1/5 343/1/5 342/1/5
f 345/1/5 343/1/5 344/1/5
f 348/1/5 347/1/5 346/1/5
f 349/1/5 347/1/5 348/1/5
f 350/4/5 349/4/5 348/4/5
f 351/4/5 349/4/5 350/4/5
f 354/4/5 353/4/5 352/4/5
f 355/4/5 353/4/5 354/4/5
f 360/4/5 357/4/5 356/4/5
f 361/4/5 357/4/5 360/4/5
f 364/4/5 359/4/5 358/4/5
f 365/4/5 359/4/5 364/4/5
f 366/3/5 362/3/5 361/3/5
f 367/4/5 363/4/5 362/4/5
f 367/3/5 362/3/5 366/3/5
f 368/3/5 364/3/5 363/3/5
f 368/4/5 363/4/5 367/4/5
f 369/3/5 364/3/5 368/3/5
f 373/4/5 371/4/5 370/4/5
f 374/4/5 371/4/5 373/4/5
f 377/4/5 373/4/5 372/4/5
f 377/4/5 375/4/5 374/4/5
f 377/4/5 374/4/5 373/4/5
f 378/4/5 375/4/5 377/4/5
f 379/4/5 375/4/5 378/4/5
f 380/4/5 375/4/5 379/4/5
f 382/4/5 377/4/5 376/4/5
f 382/4/5 378/4/5 377/4/5
f 383/4/5 378/4/5 382/4/5
f 384/4/5 378/4/5 383/4/5
f 385/4/5 381/4/5 380/4/5
f 385/4/5 380/4/5 379/4/5
f 386/4/5 381/4/5 385/4/5
f 387/4/5 381/4/5 386/4/5
f 388/4/5 384/4/5 383/4/5
f 388/4/5 386/4/5 385/4/5
f 388/4/5 385/4/5 384/4/5
f 389/4/5 386/4/5 388/4/5
f 390/4/5 386/4/5 389/4/5
f 391/4/5 386/4/5 390/4/5
f 392/4/5 390/4/5 389/4/5
f 393/4/5 390/4/5 392/4/5
f 394/1/6 395/1/6 396/1/6
f 396/1/6 395/1/6 397/1/6
f 398/4/6 399/4/6 400/4/6
f 400/4/6 399/4/6 401/4/6
f 402/3/6 403/3/6 406/3/6
f 406/3/6 403/3/6 407/3/6
f 404/3/6 405/3/6 408/3/6
f 408/3/6 405/3/6 409/3/6
f 410/3/6 411/3/6 414/3/6
f 414/3/6 411/3/6 415/3/6
f 412/3/6 413/3/6 418/3/6
f 418/3/6 413/3/6 419/3/6
f 415/3/6 416/3/6 420/3/6
f 416/4/6 417/4/6 421/4/6
f 420/3/6 416/3/6 421/3/6
f 417/3/6 418/3/6 422/3/6
f 421/4/6 417/4/6 422/4/6
f 422/3/6 418/3/6 423/3/6
f 424/4/6 425/4/6 427/4/6
f 427/4/6 425/4/6 428/4/6
f 426/4/6 427/4/6 431/4/6
f 428/4/6 429/4/6 431/4/6
f 427/4/6 428/4/6 431/4/6
f 431/4/6 429/4/6 432/4/6
f 432/4/6 429/4/6 433/4/6
f 433/4/6 429/4/6 434/4/6
f 430/4/6 431/4/6 436/4/6
f 431/4/6 432/4/6 436/4/6
f 436/4/6 432/4/6 437/4/6
f 437/4/6 432/4/6 438/4/6
f 434/4/6 435/4/6 439/4/6
f 433/4/6 434/4/6 439/4/6
f 439/4/6 435/4/6 440/4/6
f 440/4/6 435/4/6 441/4/6
f 437/4/6 438/4/6 442/4/6
f 439/4/6 440/4/6 442/4/6
f 438/4/6 439/4/6 442/4/6
f 442/4/6 440/4/6 443/4/6
f 443/4/6 440/4/6 444/4/6
f 444/4/6 440/4/6 445/4/6
f 443/4/6 444/4/6 446/4/6
f 446/4/6 444/4/6 447/4/6
f 448/4/6 449/4/6 450/4/6
f 450/4/6 449/4/6 451/4/6
f 448/4/6 450/4/6 452/4/6
f 451/4/6 449/4/6 453/4/6
f 448/4/6 452/4/6 454/4/6
f 452/4/6 453/4/6 454/4/6
f 453/4/6 449/4/6 455/4/6
f 454/4/6 453/4/6 455/4/6
f 456/4/6 457/4/6 458/4/6
f 458/4/6 457/4/6 459/4/6
