# MagicaVoxel @ Ephtracy

# group
o 

# material
mtllib 0.mtl
usemtl palette

# normals
vn -1 0 0
vn 1 0 0
vn 0 0 1
vn 0 0 -1
vn 0 -1 0
vn 0 1 0

# texcoords
vt 0.0605469 0.5
vt 0.537109 0.5
vt 0.693359 0.5
vt 0.697266 0.5
vt 0.705078 0.5
vt 0.994141 0.5

# verts
v 0.7 2.3 -0.4
v 0.7 2.3 -0.5
v 0.7 2.3 -0.9
v 0.7 2.3 -1
v 0.7 2.3 -1.3
v 0.7 2.4 -0.4
v 0.7 2.4 -0.5
v 0.7 2.4 -0.9
v 0.7 2.4 -1
v 0.7 2.4 -1.3
v 0.7 2.6 -0.8
v 0.7 2.6 -0.9
v 0.7 2.7 -0.8
v 0.7 2.7 -0.9
v 0.7 2.7 -1
v 0.7 2.7 -1.1
v 0.7 2.8 -0.9
v 0.7 2.8 -1.1
v 0.7 2.9 -0.7
v 0.7 2.9 -1.2
v 0.7 3 -0.7
v 0.7 3 -1.2
v 0.8 2.1 -0.8
v 0.8 2.1 -0.9
v 0.8 2.2 -0.9
v 0.8 2.2 -1
v 0.8 2.3 -0.8
v 0.8 2.3 -0.9
v 0.8 2.3 -1
v 0.8 2.4 -0.8
v 0.8 2.4 -0.9
v 0.8 2.4 -1
v 0.8 2.4 -1.1
v 0.8 2.5 -0.8
v 0.8 2.5 -0.9
v 0.8 2.5 -1
v 0.8 2.5 -1.1
v 0.8 2.6 -0.8
v 0.8 2.6 -0.9
v 0.8 2.7 -0.8
v 0.8 2.7 -0.9
v 0.8 2.7 -1
v 0.8 2.7 -1.1
v 0.8 2.7 -1.2
v 0.8 2.8 -0.8
v 0.8 2.8 -0.9
v 0.8 2.8 -1.1
v 0.8 2.8 -1.2
v 0.8 2.9 -0.8
v 0.8 2.9 -0.9
v 0.8 2.9 -1.1
v 0.8 3 -0.8
v 0.8 3 -1.1
v 0.8 3.1 -0.8
v 0.8 3.1 -1.1
v 0.9 2.8 -1.1
v 0.9 2.8 -1.2
v 0.9 2.9 -1.1
v 0.9 2.9 -1.2
v 0.9 3.1 -0.9
v 0.9 3.1 -1.1
v 0.9 3.2 -0.9
v 0.9 3.2 -1
v 0.9 3.2 -1.1
v 0.9 3.2 -1.2
v 0.9 3.3 -1
v 0.9 3.3 -1.2
v 1 2 -0.9
v 1 2 -1
v 1 2.3 -0.9
v 1 2.3 -1
v 0.8 2.3 -0.4
v 0.8 2.3 -0.5
v 0.8 2.3 -0.8
v 0.8 2.3 -1.1
v 0.8 2.3 -1.3
v 0.8 2.4 -0.4
v 0.8 2.4 -0.5
v 0.8 2.4 -0.8
v 0.8 2.4 -1.1
v 0.8 2.4 -1.3
v 0.9 2.1 -0.8
v 0.9 2.1 -0.9
v 0.9 2.2 -0.9
v 0.9 2.2 -1
v 0.9 2.3 -0.8
v 0.9 2.3 -1
v 1 2.8 -1.1
v 1 2.8 -1.2
v 1 2.9 -1.1
v 1 2.9 -1.2
v 1 3.1 -0.9
v 1 3.1 -1.1
v 1 3.2 -0.9
v 1 3.2 -1
v 1 3.2 -1.1
v 1 3.2 -1.2
v 1 3.3 -1
v 1 3.3 -1.2
v 1.1 2 -0.9
v 1.1 2 -1
v 1.1 2.3 -0.8
v 1.1 2.3 -0.9
v 1.1 2.3 -1
v 1.1 2.3 -1.1
v 1.1 2.4 -0.9
v 1.1 2.4 -1
v 1.1 2.4 -1.1
v 1.1 2.6 -0.8
v 1.1 2.6 -0.9
v 1.1 2.6 -1
v 1.1 2.6 -1.1
v 1.1 2.7 -0.8
v 1.1 2.7 -0.9
v 1.1 2.7 -1
v 1.1 2.7 -1.1
v 1.1 2.7 -1.2
v 1.1 2.8 -0.8
v 1.1 2.8 -0.9
v 1.1 2.8 -1.1
v 1.1 2.8 -1.2
v 1.1 2.9 -0.8
v 1.1 2.9 -0.9
v 1.1 2.9 -1.1
v 1.1 3 -0.8
v 1.1 3 -1.1
v 1.1 3.1 -0.8
v 1.1 3.1 -1.1
v 1.2 2.3 -0.9
v 1.2 2.3 -1
v 1.2 2.4 -0.9
v 1.2 2.4 -1
v 1.2 2.4 -1.1
v 1.2 2.6 -0.8
v 1.2 2.6 -0.9
v 1.2 2.6 -1
v 1.2 2.6 -1.1
v 1.2 2.7 -0.8
v 1.2 2.7 -0.9
v 1.2 2.7 -1
v 1.2 2.7 -1.1
v 1.2 2.8 -0.9
v 1.2 2.8 -1.1
v 1.2 2.9 -0.7
v 1.2 2.9 -1.2
v 1.2 3 -0.7
v 1.2 3 -1.2
v 0.7 2.3 -0.4
v 0.7 2.4 -0.4
v 0.8 2.3 -0.4
v 0.8 2.4 -0.4
v 0.7 2.9 -0.7
v 0.7 3 -0.7
v 1.2 2.9 -0.7
v 1.2 3 -0.7
v 0.7 2.6 -0.8
v 0.7 2.7 -0.8
v 0.8 2.1 -0.8
v 0.8 2.3 -0.8
v 0.8 2.4 -0.8
v 0.8 2.5 -0.8
v 0.8 2.6 -0.8
v 0.8 2.7 -0.8
v 0.8 2.8 -0.8
v 0.8 2.9 -0.8
v 0.8 3 -0.8
v 0.8 3.1 -0.8
v 0.9 2.1 -0.8
v 0.9 2.3 -0.8
v 0.9 2.4 -0.8
v 0.9 2.5 -0.8
v 0.9 2.6 -0.8
v 0.9 2.8 -0.8
v 0.9 2.9 -0.8
v 1 2.5 -0.8
v 1 2.6 -0.8
v 1 2.7 -0.8
v 1 2.8 -0.8
v 1 2.9 -0.8
v 1.1 2.3 -0.8
v 1.1 2.6 -0.8
v 1.1 2.7 -0.8
v 1.1 2.8 -0.8
v 1.1 2.9 -0.8
v 1.1 3 -0.8
v 1.1 3.1 -0.8
v 1.2 2.6 -0.8
v 1.2 2.7 -0.8
v 0.7 2.4 -0.9
v 0.7 2.6 -0.9
v 0.7 2.7 -0.9
v 0.7 2.8 -0.9
v 0.8 2.4 -0.9
v 0.8 2.5 -0.9
v 0.8 2.6 -0.9
v 0.8 2.7 -0.9
v 0.8 2.8 -0.9
v 0.9 3.1 -0.9
v 0.9 3.2 -0.9
v 1 2 -0.9
v 1 2.3 -0.9
v 1 3.1 -0.9
v 1 3.2 -0.9
v 1.1 2 -0.9
v 1.1 2.3 -0.9
v 1.1 2.4 -0.9
v 1.1 2.7 -0.9
v 1.1 2.8 -0.9
v 1.2 2.3 -0.9
v 1.2 2.4 -0.9
v 1.2 2.7 -0.9
v 1.2 2.8 -0.9
v 0.9 3.2 -1
v 0.9 3.3 -1
v 1 3.2 -1
v 1 3.3 -1
v 1.1 2.4 -1
v 1.1 2.6 -1
v 1.2 2.4 -1
v 1.2 2.6 -1
v 0.8 2.1 -0.9
v 0.8 2.2 -0.9
v 0.9 2.1 -0.9
v 0.9 2.2 -0.9
v 0.7 2.4 -1
v 0.7 2.7 -1
v 0.8 2.2 -1
v 0.8 2.3 -1
v 0.8 2.4 -1
v 0.8 2.5 -1
v 0.8 2.7 -1
v 0.9 2.2 -1
v 0.9 2.3 -1
v 1 2 -1
v 1 2.3 -1
v 1.1 2 -1
v 1.1 2.3 -1
v 1.1 2.4 -1
v 1.1 2.6 -1
v 1.1 2.7 -1
v 1.2 2.3 -1
v 1.2 2.4 -1
v 1.2 2.6 -1
v 1.2 2.7 -1
v 0.7 2.7 -1.1
v 0.7 2.8 -1.1
v 0.8 2.3 -1.1
v 0.8 2.4 -1.1
v 0.8 2.5 -1.1
v 0.8 2.7 -1.1
v 0.8 2.8 -1.1
v 0.8 2.9 -1.1
v 0.8 3 -1.1
v 0.8 3.1 -1.1
v 0.9 2.4 -1.1
v 0.9 2.5 -1.1
v 0.9 2.6 -1.1
v 0.9 2.8 -1.1
v 0.9 2.9 -1.1
v 0.9 3.1 -1.1
v 0.9 3.2 -1.1
v 1 2.5 -1.1
v 1 2.6 -1.1
v 1 2.7 -1.1
v 1 2.8 -1.1
v 1 2.9 -1.1
v 1 3.1 -1.1
v 1 3.2 -1.1
v 1.1 2.3 -1.1
v 1.1 2.4 -1.1
v 1.1 2.6 -1.1
v 1.1 2.7 -1.1
v 1.1 2.8 -1.1
v 1.1 2.9 -1.1
v 1.1 3 -1.1
v 1.1 3.1 -1.1
v 1.2 2.4 -1.1
v 1.2 2.6 -1.1
v 1.2 2.7 -1.1
v 1.2 2.8 -1.1
v 0.7 2.9 -1.2
v 0.7 3 -1.2
v 0.8 2.7 -1.2
v 0.8 2.8 -1.2
v 0.9 2.8 -1.2
v 0.9 2.9 -1.2
v 0.9 3.2 -1.2
v 0.9 3.3 -1.2
v 1 2.8 -1.2
v 1 2.9 -1.2
v 1 3.2 -1.2
v 1 3.3 -1.2
v 1.1 2.7 -1.2
v 1.1 2.8 -1.2
v 1.2 2.9 -1.2
v 1.2 3 -1.2
v 0.7 2.3 -1.3
v 0.7 2.4 -1.3
v 0.8 2.3 -1.3
v 0.8 2.4 -1.3
v 1 2 -0.9
v 1.1 2 -0.9
v 1 2 -1
v 1.1 2 -1
v 0.8 2.1 -0.8
v 0.9 2.1 -0.8
v 0.8 2.1 -0.9
v 0.9 2.1 -0.9
v 0.8 2.2 -0.9
v 0.9 2.2 -0.9
v 0.8 2.2 -1
v 0.9 2.2 -1
v 0.7 2.3 -0.4
v 0.8 2.3 -0.4
v 0.7 2.3 -0.5
v 0.8 2.3 -0.5
v 0.8 2.3 -0.8
v 0.9 2.3 -0.8
v 1.1 2.3 -0.8
v 0.7 2.3 -0.9
v 0.8 2.3 -0.9
v 1 2.3 -0.9
v 1.1 2.3 -0.9
v 1.2 2.3 -0.9
v 0.7 2.3 -1
v 0.8 2.3 -1
v 0.9 2.3 -1
v 1 2.3 -1
v 1.1 2.3 -1
v 1.2 2.3 -1
v 0.8 2.3 -1.1
v 1.1 2.3 -1.1
v 0.7 2.3 -1.3
v 0.8 2.3 -1.3
v 1.1 2.4 -1
v 1.2 2.4 -1
v 1.1 2.4 -1.1
v 1.2 2.4 -1.1
v 0.7 2.6 -0.8
v 0.8 2.6 -0.8
v 1.1 2.6 -0.8
v 1.2 2.6 -0.8
v 0.7 2.6 -0.9
v 0.8 2.6 -0.9
v 1.1 2.6 -0.9
v 1.2 2.6 -0.9
v 1.1 2.6 -1
v 1.2 2.6 -1
v 0.7 2.7 -1
v 0.8 2.7 -1
v 1.1 2.7 -1
v 1.2 2.7 -1
v 0.7 2.7 -1.1
v 0.8 2.7 -1.1
v 1 2.7 -1.1
v 1.1 2.7 -1.1
v 1.2 2.7 -1.1
v 0.8 2.7 -1.2
v 1.1 2.7 -1.2
v 0.7 2.9 -0.7
v 1.2 2.9 -0.7
v 0.8 2.9 -0.8
v 0.9 2.9 -0.8
v 1 2.9 -0.8
v 1.1 2.9 -0.8
v 0.8 2.9 -0.9
v 1.1 2.9 -0.9
v 0.8 2.9 -1.1
v 0.9 2.9 -1.1
v 1 2.9 -1.1
v 1.1 2.9 -1.1
v 0.7 2.9 -1.2
v 0.9 2.9 -1.2
v 1 2.9 -1.2
v 1.2 2.9 -1.2
v 0.9 3.2 -1.1
v 1 3.2 -1.1
v 0.9 3.2 -1.2
v 1 3.2 -1.2
v 0.7 2.4 -0.4
v 0.8 2.4 -0.4
v 0.7 2.4 -0.5
v 0.8 2.4 -0.5
v 0.8 2.4 -0.8
v 0.7 2.4 -0.9
v 0.8 2.4 -0.9
v 1.1 2.4 -0.9
v 1.2 2.4 -0.9
v 0.7 2.4 -1
v 0.8 2.4 -1
v 1.1 2.4 -1
v 1.2 2.4 -1
v 0.8 2.4 -1.1
v 0.7 2.4 -1.3
v 0.8 2.4 -1.3
v 1.1 2.6 -1
v 1.2 2.6 -1
v 1.1 2.6 -1.1
v 1.2 2.6 -1.1
v 0.7 2.7 -0.8
v 0.8 2.7 -0.8
v 1.1 2.7 -0.8
v 1.2 2.7 -0.8
v 0.7 2.7 -0.9
v 0.8 2.7 -0.9
v 1.1 2.7 -0.9
v 1.2 2.7 -0.9
v 0.7 2.8 -0.9
v 0.8 2.8 -0.9
v 1.1 2.8 -0.9
v 1.2 2.8 -0.9
v 0.7 2.8 -1.1
v 0.8 2.8 -1.1
v 0.9 2.8 -1.1
v 1 2.8 -1.1
v 1.1 2.8 -1.1
v 1.2 2.8 -1.1
v 0.8 2.8 -1.2
v 0.9 2.8 -1.2
v 1 2.8 -1.2
v 1.1 2.8 -1.2
v 0.7 3 -0.7
v 1.2 3 -0.7
v 0.8 3 -0.8
v 1.1 3 -0.8
v 0.8 3 -1.1
v 1.1 3 -1.1
v 0.7 3 -1.2
v 1.2 3 -1.2
v 0.8 3.1 -0.8
v 1.1 3.1 -0.8
v 0.9 3.1 -0.9
v 1 3.1 -0.9
v 0.8 3.1 -1.1
v 0.9 3.1 -1.1
v 1 3.1 -1.1
v 1.1 3.1 -1.1
v 0.9 3.2 -0.9
v 1 3.2 -0.9
v 0.9 3.2 -1
v 1 3.2 -1
v 0.9 3.3 -1
v 1 3.3 -1
v 0.9 3.3 -1.2
v 1 3.3 -1.2

# faces
f 6/5/1 2/5/1 1/5/1
f 7/2/1 3/2/1 2/2/1
f 7/5/1 2/5/1 6/5/1
f 8/4/1 4/4/1 3/4/1
f 8/2/1 3/2/1 7/2/1
f 9/2/1 5/2/1 4/2/1
f 9/4/1 4/4/1 8/4/1
f 10/2/1 5/2/1 9/2/1
f 12/4/1 9/4/1 8/4/1
f 13/3/1 12/3/1 11/3/1
f 14/4/1 9/4/1 12/4/1
f 14/3/1 12/3/1 13/3/1
f 15/4/1 9/4/1 14/4/1
f 17/3/1 16/3/1 15/3/1
f 17/3/1 15/3/1 14/3/1
f 18/3/1 16/3/1 17/3/1
f 21/4/1 20/4/1 19/4/1
f 22/4/1 20/4/1 21/4/1
f 25/4/1 24/4/1 23/4/1
f 27/4/1 25/4/1 23/4/1
f 27/4/1 26/4/1 25/4/1
f 28/4/1 26/4/1 27/4/1
f 29/4/1 26/4/1 28/4/1
f 34/3/1 31/3/1 30/3/1
f 35/3/1 31/3/1 34/3/1
f 36/3/1 33/3/1 32/3/1
f 37/3/1 33/3/1 36/3/1
f 38/4/1 35/4/1 34/4/1
f 39/4/1 35/4/1 38/4/1
f 42/4/1 37/4/1 36/4/1
f 43/4/1 37/4/1 42/4/1
f 45/1/1 41/1/1 40/1/1
f 46/1/1 41/1/1 45/1/1
f 47/3/1 44/3/1 43/3/1
f 48/3/1 44/3/1 47/3/1
f 49/6/1 46/6/1 45/6/1
f 50/1/1 47/1/1 46/1/1
f 50/6/1 46/6/1 49/6/1
f 51/1/1 47/1/1 50/1/1
f 54/4/1 53/4/1 52/4/1
f 55/4/1 53/4/1 54/4/1
f 58/3/1 57/3/1 56/3/1
f 59/3/1 57/3/1 58/3/1
f 62/4/1 61/4/1 60/4/1
f 63/4/1 61/4/1 62/4/1
f 64/4/1 61/4/1 63/4/1
f 66/4/1 65/4/1 64/4/1
f 66/4/1 64/4/1 63/4/1
f 67/4/1 65/4/1 66/4/1
f 70/4/1 69/4/1 68/4/1
f 71/4/1 69/4/1 70/4/1
f 72/5/2 73/5/2 77/5/2
f 73/2/2 74/2/2 78/2/2
f 77/5/2 73/5/2 78/5/2
f 78/2/2 74/2/2 79/2/2
f 75/2/2 76/2/2 80/2/2
f 80/2/2 76/2/2 81/2/2
f 82/4/2 83/4/2 84/4/2
f 82/4/2 84/4/2 86/4/2
f 84/4/2 85/4/2 86/4/2
f 86/4/2 85/4/2 87/4/2
f 88/3/2 89/3/2 90/3/2
f 90/3/2 89/3/2 91/3/2
f 92/4/2 93/4/2 94/4/2
f 94/4/2 93/4/2 95/4/2
f 95/4/2 93/4/2 96/4/2
f 96/4/2 97/4/2 98/4/2
f 95/4/2 96/4/2 98/4/2
f 98/4/2 97/4/2 99/4/2
f 100/4/2 101/4/2 103/4/2
f 103/4/2 101/4/2 104/4/2
f 102/4/2 103/4/2 106/4/2
f 104/4/2 105/4/2 107/4/2
f 107/4/2 105/4/2 108/4/2
f 102/4/2 106/4/2 109/4/2
f 106/4/2 107/4/2 109/4/2
f 109/4/2 107/4/2 110/4/2
f 110/4/2 107/4/2 111/4/2
f 111/3/2 112/3/2 115/3/2
f 115/3/2 112/3/2 116/3/2
f 113/1/2 114/1/2 118/1/2
f 118/1/2 114/1/2 119/1/2
f 116/3/2 117/3/2 120/3/2
f 120/3/2 117/3/2 121/3/2
f 118/6/2 119/6/2 122/6/2
f 119/1/2 120/1/2 123/1/2
f 122/6/2 119/6/2 123/6/2
f 123/1/2 120/1/2 124/1/2
f 125/4/2 126/4/2 127/4/2
f 127/4/2 126/4/2 128/4/2
f 129/4/2 130/4/2 131/4/2
f 131/4/2 130/4/2 132/4/2
f 132/4/2 133/4/2 136/4/2
f 136/4/2 133/4/2 137/4/2
f 134/3/2 135/3/2 138/3/2
f 135/4/2 136/4/2 139/4/2
f 138/3/2 135/3/2 139/3/2
f 139/4/2 136/4/2 140/4/2
f 140/3/2 141/3/2 142/3/2
f 139/3/2 140/3/2 142/3/2
f 142/3/2 141/3/2 143/3/2
f 144/4/2 145/4/2 146/4/2
f 146/4/2 145/4/2 147/4/2
f 150/5/3 149/5/3 148/5/3
f 151/5/3 149/5/3 150/5/3
f 154/4/3 153/4/3 152/4/3
f 155/4/3 153/4/3 154/4/3
f 162/3/3 157/3/3 156/3/3
f 163/3/3 157/3/3 162/3/3
f 168/4/3 159/4/3 158/4/3
f 168/4/3 160/4/3 159/4/3
f 169/4/3 160/4/3 168/4/3
f 170/3/3 161/3/3 160/3/3
f 170/4/3 160/4/3 169/4/3
f 171/4/3 162/4/3 161/4/3
f 171/3/3 161/3/3 170/3/3
f 171/4/3 163/4/3 162/4/3
f 172/4/3 163/4/3 171/4/3
f 173/6/3 165/6/3 164/6/3
f 173/1/3 164/1/3 163/1/3
f 174/6/3 165/6/3 173/6/3
f 175/4/3 170/4/3 169/4/3
f 175/3/3 172/3/3 171/3/3
f 175/4/3 171/4/3 170/4/3
f 176/4/3 163/4/3 172/4/3
f 176/3/3 172/3/3 175/3/3
f 177/1/3 174/1/3 173/1/3
f 177/4/3 163/4/3 176/4/3
f 177/1/3 173/1/3 163/1/3
f 178/1/3 174/1/3 177/1/3
f 179/1/3 174/1/3 178/1/3
f 180/4/3 175/4/3 169/4/3
f 180/4/3 176/4/3 175/4/3
f 181/3/3 177/3/3 176/3/3
f 181/4/3 176/4/3 180/4/3
f 182/1/3 178/1/3 177/1/3
f 182/3/3 177/3/3 181/3/3
f 183/6/3 179/6/3 178/6/3
f 183/1/3 178/1/3 182/1/3
f 184/6/3 179/6/3 183/6/3
f 185/4/3 167/4/3 166/4/3
f 186/4/3 167/4/3 185/4/3
f 187/3/3 182/3/3 181/3/3
f 188/3/3 182/3/3 187/3/3
f 193/4/3 190/4/3 189/4/3
f 194/4/3 190/4/3 193/4/3
f 195/4/3 190/4/3 194/4/3
f 196/3/3 192/3/3 191/3/3
f 197/3/3 192/3/3 196/3/3
f 202/4/3 199/4/3 198/4/3
f 203/4/3 199/4/3 202/4/3
f 204/4/3 201/4/3 200/4/3
f 205/4/3 201/4/3 204/4/3
f 209/4/3 206/4/3 205/4/3
f 210/4/3 206/4/3 209/4/3
f 211/3/3 208/3/3 207/3/3
f 212/3/3 208/3/3 211/3/3
f 215/4/3 214/4/3 213/4/3
f 216/4/3 214/4/3 215/4/3
f 219/4/3 218/4/3 217/4/3
f 220/4/3 218/4/3 219/4/3
f 221/4/4 222/4/4 223/4/4
f 223/4/4 222/4/4 224/4/4
f 225/4/4 226/4/4 229/4/4
f 229/4/4 226/4/4 230/4/4
f 230/4/4 226/4/4 231/4/4
f 227/4/4 228/4/4 232/4/4
f 232/4/4 228/4/4 233/4/4
f 234/4/4 235/4/4 236/4/4
f 236/4/4 235/4/4 237/4/4
f 237/4/4 238/4/4 241/4/4
f 241/4/4 238/4/4 242/4/4
f 239/4/4 240/4/4 243/4/4
f 243/4/4 240/4/4 244/4/4
f 245/3/4 246/3/4 250/3/4
f 250/3/4 246/3/4 251/3/4
f 248/3/4 249/3/4 255/3/4
f 247/4/4 248/4/4 255/4/4
f 249/4/4 250/4/4 256/4/4
f 255/3/4 249/3/4 256/3/4
f 256/4/4 250/4/4 257/4/4
f 251/1/4 252/1/4 258/1/4
f 258/1/4 252/1/4 259/1/4
f 253/4/4 254/4/4 260/4/4
f 255/4/4 256/4/4 262/4/4
f 256/3/4 257/3/4 262/3/4
f 257/4/4 250/4/4 263/4/4
f 262/3/4 257/3/4 263/3/4
f 263/4/4 250/4/4 264/4/4
f 260/4/4 261/4/4 267/4/4
f 253/4/4 260/4/4 267/4/4
f 267/4/4 261/4/4 268/4/4
f 255/4/4 262/4/4 269/4/4
f 247/4/4 255/4/4 269/4/4
f 262/4/4 263/4/4 269/4/4
f 269/4/4 263/4/4 270/4/4
f 263/3/4 264/3/4 271/3/4
f 270/4/4 263/4/4 271/4/4
f 271/3/4 264/3/4 272/3/4
f 265/1/4 266/1/4 273/1/4
f 273/1/4 266/1/4 274/1/4
f 253/4/4 267/4/4 275/4/4
f 275/4/4 267/4/4 276/4/4
f 270/4/4 271/4/4 277/4/4
f 277/4/4 271/4/4 278/4/4
f 272/3/4 273/3/4 279/3/4
f 279/3/4 273/3/4 280/3/4
f 283/3/4 284/3/4 285/3/4
f 281/4/4 282/4/4 286/4/4
f 283/3/4 285/3/4 289/3/4
f 285/3/4 286/3/4 289/3/4
f 286/4/4 282/4/4 290/4/4
f 289/3/4 286/3/4 290/3/4
f 287/4/4 288/4/4 291/4/4
f 291/4/4 288/4/4 292/4/4
f 283/3/4 289/3/4 293/3/4
f 293/3/4 289/3/4 294/3/4
f 290/4/4 282/4/4 295/4/4
f 295/4/4 282/4/4 296/4/4
f 297/2/4 298/2/4 299/2/4
f 299/2/4 298/2/4 300/2/4
f 303/4/5 302/4/5 301/4/5
f 304/4/5 302/4/5 303/4/5
f 307/4/5 306/4/5 305/4/5
f 308/4/5 306/4/5 307/4/5
f 311/4/5 310/4/5 309/4/5
f 312/4/5 310/4/5 311/4/5
f 315/5/5 314/5/5 313/5/5
f 316/5/5 314/5/5 315/5/5
f 317/2/5 316/2/5 315/2/5
f 320/2/5 317/2/5 315/2/5
f 321/2/5 317/2/5 320/2/5
f 322/4/5 319/4/5 318/4/5
f 323/4/5 319/4/5 322/4/5
f 325/4/5 321/4/5 320/4/5
f 326/4/5 321/4/5 325/4/5
f 327/4/5 322/4/5 318/4/5
f 328/4/5 322/4/5 327/4/5
f 329/4/5 324/4/5 323/4/5
f 330/4/5 324/4/5 329/4/5
f 331/4/5 328/4/5 327/4/5
f 331/2/5 326/2/5 325/2/5
f 331/4/5 329/4/5 328/4/5
f 331/4/5 327/4/5 326/4/5
f 332/4/5 329/4/5 331/4/5
f 333/2/5 331/2/5 325/2/5
f 334/2/5 331/2/5 333/2/5
f 337/4/5 336/4/5 335/4/5
f 338/4/5 336/4/5 337/4/5
f 343/3/5 340/3/5 339/3/5
f 344/3/5 340/3/5 343/3/5
f 345/3/5 342/3/5 341/3/5
f 346/3/5 342/3/5 345/3/5
f 347/4/5 346/4/5 345/4/5
f 348/4/5 346/4/5 347/4/5
f 353/3/5 350/3/5 349/3/5
f 354/3/5 350/3/5 353/3/5
f 356/3/5 352/3/5 351/3/5
f 357/3/5 352/3/5 356/3/5
f 358/3/5 355/3/5 354/3/5
f 358/3/5 356/3/5 355/3/5
f 359/3/5 356/3/5 358/3/5
f 362/4/5 361/4/5 360/4/5
f 363/4/5 361/4/5 362/4/5
f 364/4/5 361/4/5 363/4/5
f 365/4/5 361/4/5 364/4/5
f 366/4/5 362/4/5 360/4/5
f 367/4/5 361/4/5 365/4/5
f 368/4/5 366/4/5 360/4/5
f 371/4/5 361/4/5 367/4/5
f 372/4/5 369/4/5 368/4/5
f 372/4/5 368/4/5 360/4/5
f 373/4/5 369/4/5 372/4/5
f 374/4/5 371/4/5 370/4/5
f 375/4/5 361/4/5 371/4/5
f 375/4/5 371/4/5 374/4/5
f 378/4/5 377/4/5 376/4/5
f 379/4/5 377/4/5 378/4/5
f 380/5/6 381/5/6 382/5/6
f 382/5/6 381/5/6 383/5/6
f 382/2/6 383/2/6 384/2/6
f 382/2/6 384/2/6 385/2/6
f 385/2/6 384/2/6 386/2/6
f 387/4/6 388/4/6 391/4/6
f 391/4/6 388/4/6 392/4/6
f 389/2/6 390/2/6 393/2/6
f 389/2/6 393/2/6 394/2/6
f 394/2/6 393/2/6 395/2/6
f 396/4/6 397/4/6 398/4/6
f 398/4/6 397/4/6 399/4/6
f 400/3/6 401/3/6 404/3/6
f 404/3/6 401/3/6 405/3/6
f 402/3/6 403/3/6 406/3/6
f 406/3/6 403/3/6 407/3/6
f 408/3/6 409/3/6 412/3/6
f 412/3/6 409/3/6 413/3/6
f 410/3/6 411/3/6 416/3/6
f 416/3/6 411/3/6 417/3/6
f 413/3/6 414/3/6 418/3/6
f 418/3/6 414/3/6 419/3/6
f 415/3/6 416/3/6 420/3/6
f 420/3/6 416/3/6 421/3/6
f 422/4/6 423/4/6 424/4/6
f 424/4/6 423/4/6 425/4/6
f 422/4/6 424/4/6 426/4/6
f 425/4/6 423/4/6 427/4/6
f 422/4/6 426/4/6 428/4/6
f 426/4/6 427/4/6 428/4/6
f 427/4/6 423/4/6 429/4/6
f 428/4/6 427/4/6 429/4/6
f 430/4/6 431/4/6 432/4/6
f 432/4/6 431/4/6 433/4/6
f 430/4/6 432/4/6 434/4/6
f 434/4/6 432/4/6 435/4/6
f 433/4/6 431/4/6 436/4/6
f 436/4/6 431/4/6 437/4/6
f 438/4/6 439/4/6 440/4/6
f 440/4/6 439/4/6 441/4/6
f 442/4/6 443/4/6 444/4/6
f 444/4/6 443/4/6 445/4/6
