# MagicaVoxel @ Ephtracy

# group
o 

# material
mtllib 0.mtl
usemtl palette

# normals
vn -1 0 0
vn 1 0 0
vn 0 0 1
vn 0 0 -1
vn 0 -1 0
vn 0 1 0

# texcoords
vt 0.537109 0.5
vt 0.876953 0.5
vt 0.880859 0.5
vt 0.908203 0.5

# verts
v 0.4 2.4 -0.3
v 0.4 2.4 -0.9
v 0.4 2.4 -1.1
v 0.4 2.6 -0.3
v 0.4 2.6 -0.9
v 0.4 2.9 -0.9
v 0.4 2.9 -1.1
v 0.4 3 -0.9
v 0.4 3 -1.1
v 0.5 3 -0.9
v 0.5 3 -1.1
v 0.5 3.1 -0.9
v 0.5 3.1 -1.1
v 0.6 2.3 -0.8
v 0.6 2.3 -1.2
v 0.6 2.4 -0.8
v 0.6 2.4 -0.9
v 0.6 2.4 -1.1
v 0.6 2.6 -0.8
v 0.6 2.6 -0.9
v 0.6 2.9 -0.9
v 0.6 2.9 -1.1
v 0.6 3 -0.8
v 0.6 3 -0.9
v 0.6 3 -1.1
v 0.6 3 -1.2
v 0.7 2.1 -0.8
v 0.7 2.1 -1
v 0.7 2.2 -1
v 0.7 2.2 -1.1
v 0.7 2.3 -0.8
v 0.7 2.3 -1.1
v 0.7 2.4 -0.7
v 0.7 2.4 -0.8
v 0.7 2.4 -1.2
v 0.7 2.4 -1.3
v 0.7 2.9 -0.7
v 0.7 2.9 -0.8
v 0.7 2.9 -1.2
v 0.7 2.9 -1.3
v 0.7 3 -0.7
v 0.7 3 -0.8
v 0.7 3 -0.9
v 0.7 3 -1.1
v 0.7 3 -1.2
v 0.7 3 -1.3
v 0.7 3.1 -0.9
v 0.7 3.1 -1.1
v 0.7 3.5 -0.7
v 0.7 3.5 -0.8
v 0.7 3.5 -1
v 0.7 3.5 -1.3
v 0.7 3.6 -0.8
v 0.7 3.6 -1
v 1.1 2 -0.9
v 1.1 2 -1.1
v 1.1 2.3 -0.9
v 1.1 2.3 -1.1
v 1.1 3.5 -0.8
v 1.1 3.5 -1
v 1.1 3.6 -0.8
v 1.1 3.6 -1
v 0.6 2.4 -0.3
v 0.6 2.4 -0.8
v 0.6 2.6 -0.3
v 0.6 2.6 -0.8
v 0.9 2.1 -0.8
v 0.9 2.1 -1
v 0.9 2.2 -1
v 0.9 2.2 -1.1
v 0.9 2.3 -0.8
v 0.9 2.3 -1.1
v 0.9 3.5 -0.8
v 0.9 3.5 -1
v 0.9 3.6 -0.8
v 0.9 3.6 -1
v 1.3 2 -0.9
v 1.3 2 -1.1
v 1.3 2.3 -0.9
v 1.3 2.3 -1.1
v 1.3 2.4 -0.7
v 1.3 2.4 -0.8
v 1.3 2.4 -1.2
v 1.3 2.4 -1.3
v 1.3 2.9 -0.7
v 1.3 2.9 -0.8
v 1.3 2.9 -1.2
v 1.3 2.9 -1.3
v 1.3 3 -0.7
v 1.3 3 -0.8
v 1.3 3 -0.9
v 1.3 3 -1.1
v 1.3 3 -1.2
v 1.3 3 -1.3
v 1.3 3.1 -0.9
v 1.3 3.1 -1.1
v 1.3 3.5 -0.7
v 1.3 3.5 -0.8
v 1.3 3.5 -1
v 1.3 3.5 -1.3
v 1.3 3.6 -0.8
v 1.3 3.6 -1
v 1.4 2.3 -0.8
v 1.4 2.3 -1.2
v 1.4 2.4 -0.9
v 1.4 2.4 -1.1
v 1.4 2.5 -1.1
v 1.4 2.5 -1.2
v 1.4 2.6 -0.9
v 1.4 2.6 -1
v 1.4 2.8 -0.9
v 1.4 2.8 -1
v 1.4 2.8 -1.1
v 1.4 2.8 -1.2
v 1.4 2.9 -0.9
v 1.4 2.9 -1.1
v 1.4 3 -0.8
v 1.4 3 -0.9
v 1.4 3 -1.1
v 1.4 3 -1.2
v 1.5 3 -0.9
v 1.5 3 -1.1
v 1.5 3.1 -0.9
v 1.5 3.1 -1.1
v 1.6 2.4 -0.9
v 1.6 2.4 -1.1
v 1.6 2.5 -1.1
v 1.6 2.5 -1.2
v 1.6 2.6 -0.9
v 1.6 2.6 -1
v 1.6 2.8 -0.9
v 1.6 2.8 -1
v 1.6 2.8 -1.1
v 1.6 2.8 -1.2
v 1.6 2.9 -0.9
v 1.6 2.9 -1.1
v 1.6 3 -0.9
v 1.6 3 -1.1
v 0.4 2.4 -0.3
v 0.4 2.6 -0.3
v 0.6 2.4 -0.3
v 0.6 2.6 -0.3
v 0.7 2.4 -0.7
v 0.7 2.9 -0.7
v 0.7 3 -0.7
v 0.7 3.5 -0.7
v 0.8 3.3 -0.7
v 0.8 3.4 -0.7
v 0.9 3.3 -0.7
v 0.9 3.4 -0.7
v 1.1 3.3 -0.7
v 1.1 3.4 -0.7
v 1.2 3.3 -0.7
v 1.2 3.4 -0.7
v 1.3 2.4 -0.7
v 1.3 2.9 -0.7
v 1.3 3 -0.7
v 1.3 3.5 -0.7
v 0.6 2.3 -0.8
v 0.6 2.4 -0.8
v 0.6 2.6 -0.8
v 0.6 3 -0.8
v 0.7 2.1 -0.8
v 0.7 2.3 -0.8
v 0.7 2.4 -0.8
v 0.7 2.9 -0.8
v 0.7 3 -0.8
v 0.7 3.5 -0.8
v 0.7 3.6 -0.8
v 0.9 2.1 -0.8
v 0.9 2.3 -0.8
v 0.9 3.5 -0.8
v 0.9 3.6 -0.8
v 1.1 3.5 -0.8
v 1.1 3.6 -0.8
v 1.3 2.4 -0.8
v 1.3 2.9 -0.8
v 1.3 3 -0.8
v 1.3 3.5 -0.8
v 1.3 3.6 -0.8
v 1.4 2.3 -0.8
v 1.4 3 -0.8
v 0.4 2.6 -0.9
v 0.4 2.9 -0.9
v 0.4 3 -0.9
v 0.5 3 -0.9
v 0.5 3.1 -0.9
v 0.6 2.6 -0.9
v 0.6 2.9 -0.9
v 0.6 3 -0.9
v 0.7 3 -0.9
v 0.7 3.1 -0.9
v 1.1 2 -0.9
v 1.1 2.3 -0.9
v 1.3 2 -0.9
v 1.3 2.3 -0.9
v 1.3 3 -0.9
v 1.3 3.1 -0.9
v 1.4 2.4 -0.9
v 1.4 2.6 -0.9
v 1.4 2.8 -0.9
v 1.4 2.9 -0.9
v 1.4 3 -0.9
v 1.5 3 -0.9
v 1.5 3.1 -0.9
v 1.6 2.4 -0.9
v 1.6 2.6 -0.9
v 1.6 2.8 -0.9
v 1.6 2.9 -0.9
v 1.6 3 -0.9
v 1.4 2.6 -1
v 1.4 2.8 -1
v 1.6 2.6 -1
v 1.6 2.8 -1
v 0.7 2.1 -1
v 0.7 2.2 -1
v 0.7 3.5 -1
v 0.7 3.6 -1
v 0.9 2.1 -1
v 0.9 2.2 -1
v 0.9 3.5 -1
v 0.9 3.6 -1
v 1.1 3.5 -1
v 1.1 3.6 -1
v 1.3 3.5 -1
v 1.3 3.6 -1
v 0.4 2.4 -1.1
v 0.4 2.9 -1.1
v 0.4 3 -1.1
v 0.5 3 -1.1
v 0.5 3.1 -1.1
v 0.6 2.4 -1.1
v 0.6 2.9 -1.1
v 0.6 3 -1.1
v 0.7 2.2 -1.1
v 0.7 2.3 -1.1
v 0.7 3 -1.1
v 0.7 3.1 -1.1
v 0.9 2.2 -1.1
v 0.9 2.3 -1.1
v 1.1 2 -1.1
v 1.1 2.3 -1.1
v 1.3 2 -1.1
v 1.3 2.3 -1.1
v 1.3 3 -1.1
v 1.3 3.1 -1.1
v 1.4 2.4 -1.1
v 1.4 2.5 -1.1
v 1.4 2.8 -1.1
v 1.4 2.9 -1.1
v 1.4 3 -1.1
v 1.5 3 -1.1
v 1.5 3.1 -1.1
v 1.6 2.4 -1.1
v 1.6 2.5 -1.1
v 1.6 2.8 -1.1
v 1.6 2.9 -1.1
v 1.6 3 -1.1
v 0.6 2.3 -1.2
v 0.6 3 -1.2
v 0.7 2.4 -1.2
v 0.7 2.9 -1.2
v 0.7 3 -1.2
v 1.3 2.4 -1.2
v 1.3 2.9 -1.2
v 1.3 3 -1.2
v 1.4 2.3 -1.2
v 1.4 2.5 -1.2
v 1.4 2.8 -1.2
v 1.4 3 -1.2
v 1.6 2.5 -1.2
v 1.6 2.8 -1.2
v 0.7 2.4 -1.3
v 0.7 2.9 -1.3
v 0.7 3 -1.3
v 0.7 3.5 -1.3
v 1.3 2.4 -1.3
v 1.3 2.9 -1.3
v 1.3 3 -1.3
v 1.3 3.5 -1.3
v 1.1 2 -0.9
v 1.3 2 -0.9
v 1.1 2 -1.1
v 1.3 2 -1.1
v 0.7 2.1 -0.8
v 0.9 2.1 -0.8
v 0.7 2.1 -1
v 0.9 2.1 -1
v 0.7 2.2 -1
v 0.9 2.2 -1
v 0.7 2.2 -1.1
v 0.9 2.2 -1.1
v 0.6 2.3 -0.8
v 0.7 2.3 -0.8
v 0.9 2.3 -0.8
v 1.4 2.3 -0.8
v 1.1 2.3 -0.9
v 1.3 2.3 -0.9
v 0.7 2.3 -1.1
v 0.9 2.3 -1.1
v 1.1 2.3 -1.1
v 1.3 2.3 -1.1
v 0.6 2.3 -1.2
v 1.4 2.3 -1.2
v 0.4 2.4 -0.3
v 0.6 2.4 -0.3
v 0.7 2.4 -0.7
v 1.3 2.4 -0.7
v 0.6 2.4 -0.8
v 0.7 2.4 -0.8
v 1.3 2.4 -0.8
v 0.4 2.4 -0.9
v 0.6 2.4 -0.9
v 1.4 2.4 -0.9
v 1.6 2.4 -0.9
v 0.4 2.4 -1.1
v 0.6 2.4 -1.1
v 1.4 2.4 -1.1
v 1.6 2.4 -1.1
v 0.7 2.4 -1.2
v 1.3 2.4 -1.2
v 0.7 2.4 -1.3
v 1.3 2.4 -1.3
v 1.4 2.5 -1.1
v 1.6 2.5 -1.1
v 1.4 2.5 -1.2
v 1.6 2.5 -1.2
v 1.4 2.8 -0.9
v 1.6 2.8 -0.9
v 1.4 2.8 -1
v 1.6 2.8 -1
v 0.7 3 -0.7
v 1.3 3 -0.7
v 0.7 3 -0.8
v 1.3 3 -0.8
v 0.7 3 -1.2
v 1.3 3 -1.2
v 0.7 3 -1.3
v 1.3 3 -1.3
v 0.4 2.6 -0.3
v 0.6 2.6 -0.3
v 0.6 2.6 -0.8
v 0.4 2.6 -0.9
v 0.6 2.6 -0.9
v 1.4 2.6 -0.9
v 1.6 2.6 -0.9
v 1.4 2.6 -1
v 1.6 2.6 -1
v 1.4 2.8 -1.1
v 1.6 2.8 -1.1
v 1.4 2.8 -1.2
v 1.6 2.8 -1.2
v 0.7 2.9 -0.7
v 1.3 2.9 -0.7
v 0.7 2.9 -0.8
v 1.3 2.9 -0.8
v 0.7 2.9 -1.2
v 1.3 2.9 -1.2
v 0.7 2.9 -1.3
v 1.3 2.9 -1.3
v 0.6 3 -0.8
v 0.7 3 -0.8
v 1.3 3 -0.8
v 1.4 3 -0.8
v 0.4 3 -0.9
v 0.5 3 -0.9
v 0.6 3 -0.9
v 0.7 3 -0.9
v 1.3 3 -0.9
v 1.4 3 -0.9
v 1.5 3 -0.9
v 1.6 3 -0.9
v 0.4 3 -1.1
v 0.5 3 -1.1
v 0.6 3 -1.1
v 0.7 3 -1.1
v 1.3 3 -1.1
v 1.4 3 -1.1
v 1.5 3 -1.1
v 1.6 3 -1.1
v 0.6 3 -1.2
v 0.7 3 -1.2
v 1.3 3 -1.2
v 1.4 3 -1.2
v 0.5 3.1 -0.9
v 0.7 3.1 -0.9
v 1.3 3.1 -0.9
v 1.5 3.1 -0.9
v 0.5 3.1 -1.1
v 0.7 3.1 -1.1
v 1.3 3.1 -1.1
v 1.5 3.1 -1.1
v 0.7 3.5 -0.7
v 1.3 3.5 -0.7
v 0.7 3.5 -0.8
v 0.9 3.5 -0.8
v 1.1 3.5 -0.8
v 1.3 3.5 -0.8
v 0.7 3.5 -1
v 0.9 3.5 -1
v 1.1 3.5 -1
v 1.3 3.5 -1
v 0.7 3.5 -1.3
v 1.3 3.5 -1.3
v 0.7 3.6 -0.8
v 0.9 3.6 -0.8
v 1.1 3.6 -0.8
v 1.3 3.6 -0.8
v 0.7 3.6 -1
v 0.9 3.6 -1
v 1.1 3.6 -1
v 1.3 3.6 -1

# faces
f 4/2/1 2/2/1 1/2/1
f 5/1/1 3/1/1 2/1/1
f 5/2/1 2/2/1 4/2/1
f 6/1/1 3/1/1 5/1/1
f 7/1/1 3/1/1 6/1/1
f 8/4/1 7/4/1 6/4/1
f 9/4/1 7/4/1 8/4/1
f 12/4/1 11/4/1 10/4/1
f 13/4/1 11/4/1 12/4/1
f 16/4/1 15/4/1 14/4/1
f 17/4/1 15/4/1 16/4/1
f 18/4/1 15/4/1 17/4/1
f 21/4/1 20/4/1 19/4/1
f 22/4/1 15/4/1 18/4/1
f 23/4/1 21/4/1 19/4/1
f 24/4/1 21/4/1 23/4/1
f 25/4/1 15/4/1 22/4/1
f 26/4/1 15/4/1 25/4/1
f 29/1/1 28/1/1 27/1/1
f 31/1/1 29/1/1 27/1/1
f 31/1/1 30/1/1 29/1/1
f 32/1/1 30/1/1 31/1/1
f 37/1/1 34/1/1 33/1/1
f 38/1/1 34/1/1 37/1/1
f 39/1/1 36/1/1 35/1/1
f 40/1/1 36/1/1 39/1/1
f 47/1/1 42/1/1 41/1/1
f 47/1/1 43/1/1 42/1/1
f 48/1/1 46/1/1 45/1/1
f 48/1/1 45/1/1 44/1/1
f 49/1/1 47/1/1 41/1/1
f 49/1/1 48/1/1 47/1/1
f 50/1/1 48/1/1 49/1/1
f 51/1/1 48/1/1 50/1/1
f 52/1/1 46/1/1 48/1/1
f 52/1/1 48/1/1 51/1/1
f 53/4/1 51/4/1 50/4/1
f 54/4/1 51/4/1 53/4/1
f 57/1/1 56/1/1 55/1/1
f 58/1/1 56/1/1 57/1/1
f 61/4/1 60/4/1 59/4/1
f 62/4/1 60/4/1 61/4/1
f 63/2/2 64/2/2 65/2/2
f 65/2/2 64/2/2 66/2/2
f 67/1/2 68/1/2 69/1/2
f 67/1/2 69/1/2 71/1/2
f 69/1/2 70/1/2 71/1/2
f 71/1/2 70/1/2 72/1/2
f 73/4/2 74/4/2 75/4/2
f 75/4/2 74/4/2 76/4/2
f 77/1/2 78/1/2 79/1/2
f 79/1/2 78/1/2 80/1/2
f 81/1/2 82/1/2 85/1/2
f 85/1/2 82/1/2 86/1/2
f 83/1/2 84/1/2 87/1/2
f 87/1/2 84/1/2 88/1/2
f 89/1/2 90/1/2 95/1/2
f 90/1/2 91/1/2 95/1/2
f 93/1/2 94/1/2 96/1/2
f 92/1/2 93/1/2 96/1/2
f 89/1/2 95/1/2 97/1/2
f 95/1/2 96/1/2 97/1/2
f 97/1/2 96/1/2 98/1/2
f 98/1/2 96/1/2 99/1/2
f 96/1/2 94/1/2 100/1/2
f 99/1/2 96/1/2 100/1/2
f 98/4/2 99/4/2 101/4/2
f 101/4/2 99/4/2 102/4/2
f 103/4/2 104/4/2 105/4/2
f 105/4/2 104/4/2 106/4/2
f 106/4/2 104/4/2 107/4/2
f 107/4/2 104/4/2 108/4/2
f 103/4/2 105/4/2 109/4/2
f 103/4/2 109/4/2 111/4/2
f 109/1/2 110/1/2 111/1/2
f 111/1/2 110/1/2 112/1/2
f 103/4/2 111/4/2 115/4/2
f 113/4/2 114/4/2 116/4/2
f 103/4/2 115/4/2 117/4/2
f 117/4/2 115/4/2 118/4/2
f 116/4/2 114/4/2 119/4/2
f 119/4/2 114/4/2 120/4/2
f 121/4/2 122/4/2 123/4/2
f 123/4/2 122/4/2 124/4/2
f 125/1/2 126/1/2 127/1/2
f 125/1/2 127/1/2 129/1/2
f 127/1/2 128/1/2 129/1/2
f 129/1/2 128/1/2 130/1/2
f 130/1/2 128/1/2 132/1/2
f 132/1/2 128/1/2 133/1/2
f 133/1/2 128/1/2 134/1/2
f 131/1/2 132/1/2 135/1/2
f 132/1/2 133/1/2 135/1/2
f 135/1/2 133/1/2 136/1/2
f 135/4/2 136/4/2 137/4/2
f 137/4/2 136/4/2 138/4/2
f 141/2/3 140/2/3 139/2/3
f 142/2/3 140/2/3 141/2/3
f 147/1/3 146/1/3 145/1/3
f 148/1/3 146/1/3 147/1/3
f 149/1/3 147/1/3 145/1/3
f 149/3/3 148/3/3 147/3/3
f 150/1/3 146/1/3 148/1/3
f 150/3/3 148/3/3 149/3/3
f 151/1/3 149/1/3 145/1/3
f 151/1/3 150/1/3 149/1/3
f 152/1/3 146/1/3 150/1/3
f 152/1/3 150/1/3 151/1/3
f 153/1/3 151/1/3 145/1/3
f 153/3/3 152/3/3 151/3/3
f 154/1/3 146/1/3 152/1/3
f 154/3/3 152/3/3 153/3/3
f 155/1/3 144/1/3 143/1/3
f 156/1/3 144/1/3 155/1/3
f 157/1/3 153/1/3 145/1/3
f 157/1/3 154/1/3 153/1/3
f 158/1/3 146/1/3 154/1/3
f 158/1/3 154/1/3 157/1/3
f 164/4/3 160/4/3 159/4/3
f 164/4/3 162/4/3 161/4/3
f 164/4/3 161/4/3 160/4/3
f 165/4/3 162/4/3 164/4/3
f 166/4/3 162/4/3 165/4/3
f 167/4/3 162/4/3 166/4/3
f 170/1/3 164/1/3 163/1/3
f 171/4/3 165/4/3 164/4/3
f 171/1/3 164/1/3 170/1/3
f 172/4/3 169/4/3 168/4/3
f 173/4/3 169/4/3 172/4/3
f 176/4/3 165/4/3 171/4/3
f 177/4/3 167/4/3 166/4/3
f 178/4/3 167/4/3 177/4/3
f 179/4/3 175/4/3 174/4/3
f 180/4/3 175/4/3 179/4/3
f 181/4/3 178/4/3 177/4/3
f 181/4/3 176/4/3 171/4/3
f 181/4/3 177/4/3 176/4/3
f 182/4/3 178/4/3 181/4/3
f 186/4/3 185/4/3 184/4/3
f 188/1/3 184/1/3 183/1/3
f 189/4/3 187/4/3 186/4/3
f 189/1/3 184/1/3 188/1/3
f 189/4/3 186/4/3 184/4/3
f 190/4/3 187/4/3 189/4/3
f 191/4/3 187/4/3 190/4/3
f 192/4/3 187/4/3 191/4/3
f 195/1/3 194/1/3 193/1/3
f 196/1/3 194/1/3 195/1/3
f 203/4/3 198/4/3 197/4/3
f 204/4/3 198/4/3 203/4/3
f 204/4/3 203/4/3 202/4/3
f 205/4/3 198/4/3 204/4/3
f 206/1/3 200/1/3 199/1/3
f 207/1/3 200/1/3 206/1/3
f 208/1/3 202/1/3 201/1/3
f 209/4/3 204/4/3 202/4/3
f 209/1/3 202/1/3 208/1/3
f 210/4/3 204/4/3 209/4/3
f 213/1/3 212/1/3 211/1/3
f 214/1/3 212/1/3 213/1/3
f 215/1/4 216/1/4 219/1/4
f 219/1/4 216/1/4 220/1/4
f 217/4/4 218/4/4 221/4/4
f 221/4/4 218/4/4 222/4/4
f 223/4/4 224/4/4 225/4/4
f 225/4/4 224/4/4 226/4/4
f 228/4/4 229/4/4 230/4/4
f 227/1/4 228/1/4 232/1/4
f 230/4/4 231/4/4 233/4/4
f 232/1/4 228/1/4 233/1/4
f 228/4/4 230/4/4 233/4/4
f 233/4/4 231/4/4 234/4/4
f 234/4/4 231/4/4 237/4/4
f 237/4/4 231/4/4 238/4/4
f 235/1/4 236/1/4 239/1/4
f 239/1/4 236/1/4 240/1/4
f 241/1/4 242/1/4 243/1/4
f 243/1/4 242/1/4 244/1/4
f 245/4/4 246/4/4 251/4/4
f 251/4/4 246/4/4 252/4/4
f 250/4/4 251/4/4 252/4/4
f 252/4/4 246/4/4 253/4/4
f 247/1/4 248/1/4 254/1/4
f 254/1/4 248/1/4 255/1/4
f 249/1/4 250/1/4 256/1/4
f 250/4/4 252/4/4 257/4/4
f 256/1/4 250/1/4 257/1/4
f 257/4/4 252/4/4 258/4/4
f 259/4/4 260/4/4 261/4/4
f 261/4/4 260/4/4 262/4/4
f 262/4/4 260/4/4 263/4/4
f 259/4/4 261/4/4 264/4/4
f 262/4/4 263/4/4 265/4/4
f 265/4/4 263/4/4 266/4/4
f 259/4/4 264/4/4 267/4/4
f 264/4/4 265/4/4 267/4/4
f 265/4/4 266/4/4 267/4/4
f 267/4/4 266/4/4 268/4/4
f 268/4/4 266/4/4 269/4/4
f 269/4/4 266/4/4 270/4/4
f 268/1/4 269/1/4 271/1/4
f 271/1/4 269/1/4 272/1/4
f 273/1/4 274/1/4 277/1/4
f 277/1/4 274/1/4 278/1/4
f 275/1/4 276/1/4 279/1/4
f 279/1/4 276/1/4 280/1/4
f 283/1/5 282/1/5 281/1/5
f 284/1/5 282/1/5 283/1/5
f 287/1/5 286/1/5 285/1/5
f 288/1/5 286/1/5 287/1/5
f 291/1/5 290/1/5 289/1/5
f 292/1/5 290/1/5 291/1/5
f 297/4/5 296/4/5 295/4/5
f 298/4/5 296/4/5 297/4/5
f 299/4/5 294/4/5 293/4/5
f 300/4/5 297/4/5 295/4/5
f 301/4/5 297/4/5 300/4/5
f 302/4/5 296/4/5 298/4/5
f 303/4/5 301/4/5 300/4/5
f 303/4/5 302/4/5 301/4/5
f 303/4/5 299/4/5 293/4/5
f 303/4/5 300/4/5 299/4/5
f 304/4/5 296/4/5 302/4/5
f 304/4/5 302/4/5 303/4/5
f 309/2/5 306/2/5 305/2/5
f 310/1/5 308/1/5 307/1/5
f 311/1/5 308/1/5 310/1/5
f 312/2/5 309/2/5 305/2/5
f 313/2/5 309/2/5 312/2/5
f 316/1/5 313/1/5 312/1/5
f 317/1/5 313/1/5 316/1/5
f 318/1/5 315/1/5 314/1/5
f 319/1/5 315/1/5 318/1/5
f 322/1/5 321/1/5 320/1/5
f 323/1/5 321/1/5 322/1/5
f 326/1/5 325/1/5 324/1/5
f 327/1/5 325/1/5 326/1/5
f 330/1/5 329/1/5 328/1/5
f 331/1/5 329/1/5 330/1/5
f 334/1/5 333/1/5 332/1/5
f 335/1/5 333/1/5 334/1/5
f 338/1/5 337/1/5 336/1/5
f 339/1/5 337/1/5 338/1/5
f 340/2/6 341/2/6 342/2/6
f 340/2/6 342/2/6 343/2/6
f 343/2/6 342/2/6 344/2/6
f 345/1/6 346/1/6 347/1/6
f 347/1/6 346/1/6 348/1/6
f 349/1/6 350/1/6 351/1/6
f 351/1/6 350/1/6 352/1/6
f 353/1/6 354/1/6 355/1/6
f 355/1/6 354/1/6 356/1/6
f 357/1/6 358/1/6 359/1/6
f 359/1/6 358/1/6 360/1/6
f 361/4/6 362/4/6 367/4/6
f 367/4/6 362/4/6 368/4/6
f 363/4/6 364/4/6 369/4/6
f 369/4/6 364/4/6 370/4/6
f 365/4/6 366/4/6 373/4/6
f 373/4/6 366/4/6 374/4/6
f 371/4/6 372/4/6 379/4/6
f 379/4/6 372/4/6 380/4/6
f 375/4/6 376/4/6 381/4/6
f 381/4/6 376/4/6 382/4/6
f 377/4/6 378/4/6 383/4/6
f 383/4/6 378/4/6 384/4/6
f 385/4/6 386/4/6 389/4/6
f 389/4/6 386/4/6 390/4/6
f 387/4/6 388/4/6 391/4/6
f 391/4/6 388/4/6 392/4/6
f 393/1/6 394/1/6 395/1/6
f 395/1/6 394/1/6 396/1/6
f 396/1/6 394/1/6 397/1/6
f 397/1/6 394/1/6 398/1/6
f 396/1/6 397/1/6 400/1/6
f 400/1/6 397/1/6 401/1/6
f 399/1/6 400/1/6 403/1/6
f 401/1/6 402/1/6 403/1/6
f 400/1/6 401/1/6 403/1/6
f 403/1/6 402/1/6 404/1/6
f 405/4/6 406/4/6 409/4/6
f 409/4/6 406/4/6 410/4/6
f 407/4/6 408/4/6 411/4/6
f 411/4/6 408/4/6 412/4/6
