# MagicaVoxel @ Ephtracy

# group
o 

# material
mtllib 2.mtl
usemtl palette

# normals
vn -1 0 0
vn 1 0 0
vn 0 0 1
vn 0 0 -1
vn 0 -1 0
vn 0 1 0

# texcoords
vt 0.537109 0.5
vt 0.876953 0.5
vt 0.880859 0.5
vt 0.908203 0.5

# verts
v 0.4 2.4 -0.3
v 0.4 2.4 -0.9
v 0.4 2.4 -1.1
v 0.4 2.6 -0.3
v 0.4 2.6 -0.9
v 0.4 2.9 -0.9
v 0.4 2.9 -1.1
v 0.4 3 -0.9
v 0.4 3 -1.1
v 0.5 3 -0.9
v 0.5 3 -1.1
v 0.5 3.1 -0.9
v 0.5 3.1 -1.1
v 0.6 2.3 -0.8
v 0.6 2.3 -1.2
v 0.6 2.4 -0.8
v 0.6 2.4 -0.9
v 0.6 2.4 -1.1
v 0.6 2.6 -0.8
v 0.6 2.6 -0.9
v 0.6 2.9 -0.9
v 0.6 2.9 -1.1
v 0.6 3 -0.8
v 0.6 3 -0.9
v 0.6 3 -1.1
v 0.6 3 -1.2
v 0.7 2 -0.9
v 0.7 2 -1.1
v 0.7 2.3 -0.9
v 0.7 2.3 -1.1
v 0.7 2.4 -0.7
v 0.7 2.4 -0.8
v 0.7 2.4 -1.2
v 0.7 2.4 -1.3
v 0.7 2.9 -0.7
v 0.7 2.9 -0.8
v 0.7 2.9 -1.2
v 0.7 2.9 -1.3
v 0.7 3 -0.7
v 0.7 3 -0.8
v 0.7 3 -0.9
v 0.7 3 -1.1
v 0.7 3 -1.2
v 0.7 3 -1.3
v 0.7 3.1 -0.9
v 0.7 3.1 -1.1
v 0.7 3.5 -0.7
v 0.7 3.5 -0.8
v 0.7 3.5 -1
v 0.7 3.5 -1.3
v 0.7 3.6 -0.8
v 0.7 3.6 -1
v 1.1 2.1 -0.8
v 1.1 2.1 -1
v 1.1 2.2 -1
v 1.1 2.2 -1.1
v 1.1 2.3 -0.8
v 1.1 2.3 -1.1
v 1.1 3.5 -0.8
v 1.1 3.5 -1
v 1.1 3.6 -0.8
v 1.1 3.6 -1
v 0.6 2.4 -0.3
v 0.6 2.4 -0.8
v 0.6 2.6 -0.3
v 0.6 2.6 -0.8
v 0.9 2 -0.9
v 0.9 2 -1.1
v 0.9 2.3 -0.9
v 0.9 2.3 -1.1
v 0.9 3.5 -0.8
v 0.9 3.5 -1
v 0.9 3.6 -0.8
v 0.9 3.6 -1
v 1.3 2.1 -0.8
v 1.3 2.1 -1
v 1.3 2.2 -1
v 1.3 2.2 -1.1
v 1.3 2.3 -0.8
v 1.3 2.3 -1.1
v 1.3 2.4 -0.7
v 1.3 2.4 -0.8
v 1.3 2.4 -1.2
v 1.3 2.4 -1.3
v 1.3 2.9 -0.7
v 1.3 2.9 -0.8
v 1.3 2.9 -1.2
v 1.3 2.9 -1.3
v 1.3 3 -0.7
v 1.3 3 -0.8
v 1.3 3 -0.9
v 1.3 3 -1.1
v 1.3 3 -1.2
v 1.3 3 -1.3
v 1.3 3.1 -0.9
v 1.3 3.1 -1.1
v 1.3 3.5 -0.7
v 1.3 3.5 -0.8
v 1.3 3.5 -1
v 1.3 3.5 -1.3
v 1.3 3.6 -0.8
v 1.3 3.6 -1
v 1.4 2.3 -0.8
v 1.4 2.3 -1.2
v 1.4 2.4 -0.8
v 1.4 2.4 -1
v 1.4 2.4 -1.1
v 1.4 2.6 -0.8
v 1.4 2.6 -0.9
v 1.4 2.6 -1
v 1.4 2.6 -1.1
v 1.4 2.9 -0.9
v 1.4 2.9 -1.1
v 1.4 3 -0.8
v 1.4 3 -0.9
v 1.4 3 -1.1
v 1.4 3 -1.2
v 1.5 3 -0.9
v 1.5 3 -1.1
v 1.5 3.1 -0.9
v 1.5 3.1 -1.1
v 1.6 2.4 -0.8
v 1.6 2.4 -1
v 1.6 2.6 -0.8
v 1.6 2.6 -0.9
v 1.6 2.6 -1
v 1.6 2.6 -1.1
v 1.6 2.9 -0.9
v 1.6 2.9 -1.1
v 1.6 3 -0.9
v 1.6 3 -1.1
v 0.4 2.4 -0.3
v 0.4 2.6 -0.3
v 0.6 2.4 -0.3
v 0.6 2.6 -0.3
v 0.7 2.4 -0.7
v 0.7 2.9 -0.7
v 0.7 3 -0.7
v 0.7 3.5 -0.7
v 0.8 3.3 -0.7
v 0.8 3.4 -0.7
v 0.9 3.3 -0.7
v 0.9 3.4 -0.7
v 1.1 3.3 -0.7
v 1.1 3.4 -0.7
v 1.2 3.3 -0.7
v 1.2 3.4 -0.7
v 1.3 2.4 -0.7
v 1.3 2.9 -0.7
v 1.3 3 -0.7
v 1.3 3.5 -0.7
v 0.6 2.3 -0.8
v 0.6 2.4 -0.8
v 0.6 2.6 -0.8
v 0.6 3 -0.8
v 0.7 2.4 -0.8
v 0.7 2.9 -0.8
v 0.7 3 -0.8
v 0.7 3.5 -0.8
v 0.7 3.6 -0.8
v 0.9 3.5 -0.8
v 0.9 3.6 -0.8
v 1.1 2.1 -0.8
v 1.1 2.3 -0.8
v 1.1 3.5 -0.8
v 1.1 3.6 -0.8
v 1.3 2.1 -0.8
v 1.3 2.3 -0.8
v 1.3 2.4 -0.8
v 1.3 2.9 -0.8
v 1.3 3 -0.8
v 1.3 3.5 -0.8
v 1.3 3.6 -0.8
v 1.4 2.3 -0.8
v 1.4 2.4 -0.8
v 1.4 2.6 -0.8
v 1.4 3 -0.8
v 1.6 2.4 -0.8
v 1.6 2.6 -0.8
v 0.4 2.6 -0.9
v 0.4 2.9 -0.9
v 0.4 3 -0.9
v 0.5 3 -0.9
v 0.5 3.1 -0.9
v 0.6 2.6 -0.9
v 0.6 2.9 -0.9
v 0.6 3 -0.9
v 0.7 2 -0.9
v 0.7 2.3 -0.9
v 0.7 3 -0.9
v 0.7 3.1 -0.9
v 0.9 2 -0.9
v 0.9 2.3 -0.9
v 1.3 3 -0.9
v 1.3 3.1 -0.9
v 1.4 2.6 -0.9
v 1.4 2.9 -0.9
v 1.4 3 -0.9
v 1.5 3 -0.9
v 1.5 3.1 -0.9
v 1.6 2.6 -0.9
v 1.6 2.9 -0.9
v 1.6 3 -0.9
v 0.7 3.5 -1
v 0.7 3.6 -1
v 0.9 3.5 -1
v 0.9 3.6 -1
v 1.1 2.1 -1
v 1.1 2.2 -1
v 1.1 3.5 -1
v 1.1 3.6 -1
v 1.3 2.1 -1
v 1.3 2.2 -1
v 1.3 3.5 -1
v 1.3 3.6 -1
v 1.4 2.4 -1
v 1.4 2.6 -1
v 1.6 2.4 -1
v 1.6 2.6 -1
v 0.4 2.4 -1.1
v 0.4 2.9 -1.1
v 0.4 3 -1.1
v 0.5 3 -1.1
v 0.5 3.1 -1.1
v 0.6 2.4 -1.1
v 0.6 2.9 -1.1
v 0.6 3 -1.1
v 0.7 2 -1.1
v 0.7 2.3 -1.1
v 0.7 3 -1.1
v 0.7 3.1 -1.1
v 0.9 2 -1.1
v 0.9 2.3 -1.1
v 1.1 2.2 -1.1
v 1.1 2.3 -1.1
v 1.3 2.2 -1.1
v 1.3 2.3 -1.1
v 1.3 3 -1.1
v 1.3 3.1 -1.1
v 1.4 2.6 -1.1
v 1.4 2.9 -1.1
v 1.4 3 -1.1
v 1.5 3 -1.1
v 1.5 3.1 -1.1
v 1.6 2.6 -1.1
v 1.6 2.9 -1.1
v 1.6 3 -1.1
v 0.6 2.3 -1.2
v 0.6 3 -1.2
v 0.7 2.4 -1.2
v 0.7 2.9 -1.2
v 0.7 3 -1.2
v 1.3 2.4 -1.2
v 1.3 2.9 -1.2
v 1.3 3 -1.2
v 1.4 2.3 -1.2
v 1.4 3 -1.2
v 0.7 2.4 -1.3
v 0.7 2.9 -1.3
v 0.7 3 -1.3
v 0.7 3.5 -1.3
v 1.3 2.4 -1.3
v 1.3 2.9 -1.3
v 1.3 3 -1.3
v 1.3 3.5 -1.3
v 0.7 2 -0.9
v 0.9 2 -0.9
v 0.7 2 -1.1
v 0.9 2 -1.1
v 1.1 2.1 -0.8
v 1.3 2.1 -0.8
v 1.1 2.1 -1
v 1.3 2.1 -1
v 1.1 2.2 -1
v 1.3 2.2 -1
v 1.1 2.2 -1.1
v 1.3 2.2 -1.1
v 0.6 2.3 -0.8
v 1.1 2.3 -0.8
v 1.3 2.3 -0.8
v 1.4 2.3 -0.8
v 0.7 2.3 -0.9
v 0.9 2.3 -0.9
v 0.7 2.3 -1.1
v 0.9 2.3 -1.1
v 1.1 2.3 -1.1
v 1.3 2.3 -1.1
v 0.6 2.3 -1.2
v 1.4 2.3 -1.2
v 0.4 2.4 -0.3
v 0.6 2.4 -0.3
v 0.7 2.4 -0.7
v 1.3 2.4 -0.7
v 0.6 2.4 -0.8
v 0.7 2.4 -0.8
v 1.3 2.4 -0.8
v 1.4 2.4 -0.8
v 1.6 2.4 -0.8
v 0.4 2.4 -0.9
v 0.6 2.4 -0.9
v 1.4 2.4 -1
v 1.6 2.4 -1
v 0.4 2.4 -1.1
v 0.6 2.4 -1.1
v 0.7 2.4 -1.2
v 1.3 2.4 -1.2
v 0.7 2.4 -1.3
v 1.3 2.4 -1.3
v 1.4 2.6 -1
v 1.6 2.6 -1
v 1.4 2.6 -1.1
v 1.6 2.6 -1.1
v 0.7 3 -0.7
v 1.3 3 -0.7
v 0.7 3 -0.8
v 1.3 3 -0.8
v 0.7 3 -1.2
v 1.3 3 -1.2
v 0.7 3 -1.3
v 1.3 3 -1.3
v 0.4 2.6 -0.3
v 0.6 2.6 -0.3
v 0.6 2.6 -0.8
v 1.4 2.6 -0.8
v 1.6 2.6 -0.8
v 0.4 2.6 -0.9
v 0.6 2.6 -0.9
v 1.4 2.6 -0.9
v 1.6 2.6 -0.9
v 0.7 2.9 -0.7
v 1.3 2.9 -0.7
v 0.7 2.9 -0.8
v 1.3 2.9 -0.8
v 0.7 2.9 -1.2
v 1.3 2.9 -1.2
v 0.7 2.9 -1.3
v 1.3 2.9 -1.3
v 0.6 3 -0.8
v 0.7 3 -0.8
v 1.3 3 -0.8
v 1.4 3 -0.8
v 0.4 3 -0.9
v 0.5 3 -0.9
v 0.6 3 -0.9
v 0.7 3 -0.9
v 1.3 3 -0.9
v 1.4 3 -0.9
v 1.5 3 -0.9
v 1.6 3 -0.9
v 0.4 3 -1.1
v 0.5 3 -1.1
v 0.6 3 -1.1
v 0.7 3 -1.1
v 1.3 3 -1.1
v 1.4 3 -1.1
v 1.5 3 -1.1
v 1.6 3 -1.1
v 0.6 3 -1.2
v 0.7 3 -1.2
v 1.3 3 -1.2
v 1.4 3 -1.2
v 0.5 3.1 -0.9
v 0.7 3.1 -0.9
v 1.3 3.1 -0.9
v 1.5 3.1 -0.9
v 0.5 3.1 -1.1
v 0.7 3.1 -1.1
v 1.3 3.1 -1.1
v 1.5 3.1 -1.1
v 0.7 3.5 -0.7
v 1.3 3.5 -0.7
v 0.7 3.5 -0.8
v 0.9 3.5 -0.8
v 1.1 3.5 -0.8
v 1.3 3.5 -0.8
v 0.7 3.5 -1
v 0.9 3.5 -1
v 1.1 3.5 -1
v 1.3 3.5 -1
v 0.7 3.5 -1.3
v 1.3 3.5 -1.3
v 0.7 3.6 -0.8
v 0.9 3.6 -0.8
v 1.1 3.6 -0.8
v 1.3 3.6 -0.8
v 0.7 3.6 -1
v 0.9 3.6 -1
v 1.1 3.6 -1
v 1.3 3.6 -1

# faces
f 4/2/1 2/2/1 1/2/1
f 5/1/1 3/1/1 2/1/1
f 5/2/1 2/2/1 4/2/1
f 6/1/1 3/1/1 5/1/1
f 7/1/1 3/1/1 6/1/1
f 8/4/1 7/4/1 6/4/1
f 9/4/1 7/4/1 8/4/1
f 12/4/1 11/4/1 10/4/1
f 13/4/1 11/4/1 12/4/1
f 16/4/1 15/4/1 14/4/1
f 17/4/1 15/4/1 16/4/1
f 18/4/1 15/4/1 17/4/1
f 21/4/1 20/4/1 19/4/1
f 22/4/1 15/4/1 18/4/1
f 23/4/1 21/4/1 19/4/1
f 24/4/1 21/4/1 23/4/1
f 25/4/1 15/4/1 22/4/1
f 26/4/1 15/4/1 25/4/1
f 29/1/1 28/1/1 27/1/1
f 30/1/1 28/1/1 29/1/1
f 35/1/1 32/1/1 31/1/1
f 36/1/1 32/1/1 35/1/1
f 37/1/1 34/1/1 33/1/1
f 38/1/1 34/1/1 37/1/1
f 45/1/1 40/1/1 39/1/1
f 45/1/1 41/1/1 40/1/1
f 46/1/1 44/1/1 43/1/1
f 46/1/1 43/1/1 42/1/1
f 47/1/1 45/1/1 39/1/1
f 47/1/1 46/1/1 45/1/1
f 48/1/1 46/1/1 47/1/1
f 49/1/1 46/1/1 48/1/1
f 50/1/1 44/1/1 46/1/1
f 50/1/1 46/1/1 49/1/1
f 51/4/1 49/4/1 48/4/1
f 52/4/1 49/4/1 51/4/1
f 55/1/1 54/1/1 53/1/1
f 57/1/1 55/1/1 53/1/1
f 57/1/1 56/1/1 55/1/1
f 58/1/1 56/1/1 57/1/1
f 61/4/1 60/4/1 59/4/1
f 62/4/1 60/4/1 61/4/1
f 63/2/2 64/2/2 65/2/2
f 65/2/2 64/2/2 66/2/2
f 67/1/2 68/1/2 69/1/2
f 69/1/2 68/1/2 70/1/2
f 71/4/2 72/4/2 73/4/2
f 73/4/2 72/4/2 74/4/2
f 75/1/2 76/1/2 77/1/2
f 75/1/2 77/1/2 79/1/2
f 77/1/2 78/1/2 79/1/2
f 79/1/2 78/1/2 80/1/2
f 81/1/2 82/1/2 85/1/2
f 85/1/2 82/1/2 86/1/2
f 83/1/2 84/1/2 87/1/2
f 87/1/2 84/1/2 88/1/2
f 89/1/2 90/1/2 95/1/2
f 90/1/2 91/1/2 95/1/2
f 93/1/2 94/1/2 96/1/2
f 92/1/2 93/1/2 96/1/2
f 89/1/2 95/1/2 97/1/2
f 95/1/2 96/1/2 97/1/2
f 97/1/2 96/1/2 98/1/2
f 98/1/2 96/1/2 99/1/2
f 96/1/2 94/1/2 100/1/2
f 99/1/2 96/1/2 100/1/2
f 98/4/2 99/4/2 101/4/2
f 101/4/2 99/4/2 102/4/2
f 103/4/2 104/4/2 105/4/2
f 105/4/2 104/4/2 106/4/2
f 106/4/2 104/4/2 107/4/2
f 106/1/2 107/1/2 110/1/2
f 107/4/2 104/4/2 111/4/2
f 110/1/2 107/1/2 111/1/2
f 108/4/2 109/4/2 112/4/2
f 111/4/2 104/4/2 113/4/2
f 108/4/2 112/4/2 114/4/2
f 114/4/2 112/4/2 115/4/2
f 113/4/2 104/4/2 116/4/2
f 116/4/2 104/4/2 117/4/2
f 118/4/2 119/4/2 120/4/2
f 120/4/2 119/4/2 121/4/2
f 122/1/2 123/1/2 124/1/2
f 124/1/2 123/1/2 125/1/2
f 125/1/2 123/1/2 126/1/2
f 126/1/2 127/1/2 128/1/2
f 125/1/2 126/1/2 128/1/2
f 128/1/2 127/1/2 129/1/2
f 128/4/2 129/4/2 130/4/2
f 130/4/2 129/4/2 131/4/2
f 134/2/3 133/2/3 132/2/3
f 135/2/3 133/2/3 134/2/3
f 140/1/3 139/1/3 138/1/3
f 141/1/3 139/1/3 140/1/3
f 142/1/3 140/1/3 138/1/3
f 142/3/3 141/3/3 140/3/3
f 143/1/3 139/1/3 141/1/3
f 143/3/3 141/3/3 142/3/3
f 144/1/3 142/1/3 138/1/3
f 144/1/3 143/1/3 142/1/3
f 145/1/3 139/1/3 143/1/3
f 145/1/3 143/1/3 144/1/3
f 146/1/3 144/1/3 138/1/3
f 146/3/3 145/3/3 144/3/3
f 147/1/3 139/1/3 145/1/3
f 147/3/3 145/3/3 146/3/3
f 148/1/3 137/1/3 136/1/3
f 149/1/3 137/1/3 148/1/3
f 150/1/3 146/1/3 138/1/3
f 150/1/3 147/1/3 146/1/3
f 151/1/3 139/1/3 147/1/3
f 151/1/3 147/1/3 150/1/3
f 156/4/3 153/4/3 152/4/3
f 156/4/3 155/4/3 154/4/3
f 156/4/3 154/4/3 153/4/3
f 157/4/3 155/4/3 156/4/3
f 158/4/3 155/4/3 157/4/3
f 161/4/3 160/4/3 159/4/3
f 162/4/3 160/4/3 161/4/3
f 164/4/3 156/4/3 152/4/3
f 167/1/3 164/1/3 163/1/3
f 168/4/3 156/4/3 164/4/3
f 168/1/3 164/1/3 167/1/3
f 169/4/3 156/4/3 168/4/3
f 170/4/3 158/4/3 157/4/3
f 171/4/3 158/4/3 170/4/3
f 172/4/3 166/4/3 165/4/3
f 173/4/3 166/4/3 172/4/3
f 174/4/3 169/4/3 168/4/3
f 174/4/3 171/4/3 170/4/3
f 174/4/3 170/4/3 169/4/3
f 175/4/3 171/4/3 174/4/3
f 176/4/3 171/4/3 175/4/3
f 177/4/3 171/4/3 176/4/3
f 178/1/3 176/1/3 175/1/3
f 179/1/3 176/1/3 178/1/3
f 183/4/3 182/4/3 181/4/3
f 185/1/3 181/1/3 180/1/3
f 186/4/3 184/4/3 183/4/3
f 186/1/3 181/1/3 185/1/3
f 186/4/3 183/4/3 181/4/3
f 187/4/3 184/4/3 186/4/3
f 190/4/3 184/4/3 187/4/3
f 191/4/3 184/4/3 190/4/3
f 192/1/3 189/1/3 188/1/3
f 193/1/3 189/1/3 192/1/3
f 198/4/3 195/4/3 194/4/3
f 199/4/3 195/4/3 198/4/3
f 199/4/3 198/4/3 197/4/3
f 200/4/3 195/4/3 199/4/3
f 201/1/3 197/1/3 196/1/3
f 202/4/3 199/4/3 197/4/3
f 202/1/3 197/1/3 201/1/3
f 203/4/3 199/4/3 202/4/3
f 204/4/4 205/4/4 206/4/4
f 206/4/4 205/4/4 207/4/4
f 208/1/4 209/1/4 212/1/4
f 212/1/4 209/1/4 213/1/4
f 210/4/4 211/4/4 214/4/4
f 214/4/4 211/4/4 215/4/4
f 216/1/4 217/1/4 218/1/4
f 218/1/4 217/1/4 219/1/4
f 221/4/4 222/4/4 223/4/4
f 220/1/4 221/1/4 225/1/4
f 223/4/4 224/4/4 226/4/4
f 225/1/4 221/1/4 226/1/4
f 221/4/4 223/4/4 226/4/4
f 226/4/4 224/4/4 227/4/4
f 227/4/4 224/4/4 230/4/4
f 230/4/4 224/4/4 231/4/4
f 228/1/4 229/1/4 232/1/4
f 232/1/4 229/1/4 233/1/4
f 234/1/4 235/1/4 236/1/4
f 236/1/4 235/1/4 237/1/4
f 238/4/4 239/4/4 242/4/4
f 242/4/4 239/4/4 243/4/4
f 241/4/4 242/4/4 243/4/4
f 243/4/4 239/4/4 244/4/4
f 240/1/4 241/1/4 245/1/4
f 241/4/4 243/4/4 246/4/4
f 245/1/4 241/1/4 246/1/4
f 246/4/4 243/4/4 247/4/4
f 248/4/4 249/4/4 250/4/4
f 250/4/4 249/4/4 251/4/4
f 251/4/4 249/4/4 252/4/4
f 248/4/4 250/4/4 253/4/4
f 251/4/4 252/4/4 254/4/4
f 254/4/4 252/4/4 255/4/4
f 248/4/4 253/4/4 256/4/4
f 253/4/4 254/4/4 256/4/4
f 254/4/4 255/4/4 256/4/4
f 256/4/4 255/4/4 257/4/4
f 258/1/4 259/1/4 262/1/4
f 262/1/4 259/1/4 263/1/4
f 260/1/4 261/1/4 264/1/4
f 264/1/4 261/1/4 265/1/4
f 268/1/5 267/1/5 266/1/5
f 269/1/5 267/1/5 268/1/5
f 272/1/5 271/1/5 270/1/5
f 273/1/5 271/1/5 272/1/5
f 276/1/5 275/1/5 274/1/5
f 277/1/5 275/1/5 276/1/5
f 282/4/5 279/4/5 278/4/5
f 283/4/5 279/4/5 282/4/5
f 284/4/5 282/4/5 278/4/5
f 285/4/5 279/4/5 283/4/5
f 286/4/5 279/4/5 285/4/5
f 287/4/5 281/4/5 280/4/5
f 288/4/5 286/4/5 285/4/5
f 288/4/5 287/4/5 286/4/5
f 288/4/5 284/4/5 278/4/5
f 288/4/5 285/4/5 284/4/5
f 289/4/5 281/4/5 287/4/5
f 289/4/5 287/4/5 288/4/5
f 294/2/5 291/2/5 290/2/5
f 295/1/5 293/1/5 292/1/5
f 296/1/5 293/1/5 295/1/5
f 299/2/5 294/2/5 290/2/5
f 300/2/5 294/2/5 299/2/5
f 301/1/5 298/1/5 297/1/5
f 302/1/5 298/1/5 301/1/5
f 303/1/5 300/1/5 299/1/5
f 304/1/5 300/1/5 303/1/5
f 307/1/5 306/1/5 305/1/5
f 308/1/5 306/1/5 307/1/5
f 311/1/5 310/1/5 309/1/5
f 312/1/5 310/1/5 311/1/5
f 315/1/5 314/1/5 313/1/5
f 316/1/5 314/1/5 315/1/5
f 319/1/5 318/1/5 317/1/5
f 320/1/5 318/1/5 319/1/5
f 321/2/6 322/2/6 323/2/6
f 321/2/6 323/2/6 326/2/6
f 326/2/6 323/2/6 327/2/6
f 324/1/6 325/1/6 328/1/6
f 328/1/6 325/1/6 329/1/6
f 330/1/6 331/1/6 332/1/6
f 332/1/6 331/1/6 333/1/6
f 334/1/6 335/1/6 336/1/6
f 336/1/6 335/1/6 337/1/6
f 338/4/6 339/4/6 344/4/6
f 344/4/6 339/4/6 345/4/6
f 340/4/6 341/4/6 346/4/6
f 346/4/6 341/4/6 347/4/6
f 342/4/6 343/4/6 350/4/6
f 350/4/6 343/4/6 351/4/6
f 348/4/6 349/4/6 356/4/6
f 356/4/6 349/4/6 357/4/6
f 352/4/6 353/4/6 358/4/6
f 358/4/6 353/4/6 359/4/6
f 354/4/6 355/4/6 360/4/6
f 360/4/6 355/4/6 361/4/6
f 362/4/6 363/4/6 366/4/6
f 366/4/6 363/4/6 367/4/6
f 364/4/6 365/4/6 368/4/6
f 368/4/6 365/4/6 369/4/6
f 370/1/6 371/1/6 372/1/6
f 372/1/6 371/1/6 373/1/6
f 373/1/6 371/1/6 374/1/6
f 374/1/6 371/1/6 375/1/6
f 373/1/6 374/1/6 377/1/6
f 377/1/6 374/1/6 378/1/6
f 376/1/6 377/1/6 380/1/6
f 378/1/6 379/1/6 380/1/6
f 377/1/6 378/1/6 380/1/6
f 380/1/6 379/1/6 381/1/6
f 382/4/6 383/4/6 386/4/6
f 386/4/6 383/4/6 387/4/6
f 384/4/6 385/4/6 388/4/6
f 388/4/6 385/4/6 389/4/6
