# MagicaVoxel @ Ephtracy

# group
o 

# material
mtllib red.mtl
usemtl palette

# normals
vn -1 0 0
vn 1 0 0
vn 0 0 1
vn 0 0 -1
vn 0 -1 0
vn 0 1 0

# texcoords
vt 0.853516 0.5
vt 0.861328 0.5
vt 0.869141 0.5
vt 0.873047 0.5
vt 0.876953 0.5

# verts
v 0 2 0
v 0 2 -4
v 0 2.1 0
v 0 2.1 -4
v 0.3 4.6 -0.3
v 0.3 4.6 -1.2
v 0.3 4.6 -2.8
v 0.3 4.6 -3.7
v 0.3 5.1 -0.3
v 0.3 5.1 -1.2
v 0.3 5.6 -2.8
v 0.3 5.6 -3.7
v 0.4 3.6 -0.4
v 0.4 3.6 -1.1
v 0.4 3.6 -2.9
v 0.4 3.6 -3.6
v 0.4 4.6 -0.4
v 0.4 4.6 -1.1
v 0.4 4.6 -2.9
v 0.4 4.6 -3.6
v 0.5 2.1 -0.5
v 0.5 2.1 -1
v 0.5 2.1 -3
v 0.5 2.1 -3.5
v 0.5 3.6 -0.5
v 0.5 3.6 -1
v 0.5 3.6 -3
v 0.5 3.6 -3.5
v 1.2 2.1 -1.2
v 1.2 2.1 -2.8
v 1.2 2.2 -1.2
v 1.2 2.2 -2.8
v 2.8 4.6 -0.3
v 2.8 4.6 -1.2
v 2.8 4.6 -2.8
v 2.8 4.6 -3.7
v 2.8 6.1 -2.8
v 2.8 6.1 -3.7
v 2.8 6.6 -0.3
v 2.8 6.6 -1.2
v 2.9 3.6 -0.4
v 2.9 3.6 -1.1
v 2.9 3.6 -2.9
v 2.9 3.6 -3.6
v 2.9 4.6 -0.4
v 2.9 4.6 -1.1
v 2.9 4.6 -2.9
v 2.9 4.6 -3.6
v 3 2.1 -0.5
v 3 2.1 -1
v 3 2.1 -3
v 3 2.1 -3.5
v 3 3.6 -0.5
v 3 3.6 -1
v 3 3.6 -3
v 3 3.6 -3.5
v 1 2.1 -0.5
v 1 2.1 -1
v 1 2.1 -3
v 1 2.1 -3.5
v 1 3.6 -0.5
v 1 3.6 -1
v 1 3.6 -3
v 1 3.6 -3.5
v 1.1 3.6 -0.4
v 1.1 3.6 -1.1
v 1.1 3.6 -2.9
v 1.1 3.6 -3.6
v 1.1 4.6 -0.4
v 1.1 4.6 -1.1
v 1.1 4.6 -2.9
v 1.1 4.6 -3.6
v 1.2 4.6 -0.3
v 1.2 4.6 -1.2
v 1.2 4.6 -2.8
v 1.2 4.6 -3.7
v 1.2 5.1 -0.3
v 1.2 5.1 -1.2
v 1.2 5.6 -2.8
v 1.2 5.6 -3.7
v 2.8 2.1 -1.2
v 2.8 2.1 -2.8
v 2.8 2.2 -1.2
v 2.8 2.2 -2.8
v 3.5 2.1 -0.5
v 3.5 2.1 -1
v 3.5 2.1 -3
v 3.5 2.1 -3.5
v 3.5 3.6 -0.5
v 3.5 3.6 -1
v 3.5 3.6 -3
v 3.5 3.6 -3.5
v 3.6 3.6 -0.4
v 3.6 3.6 -1.1
v 3.6 3.6 -2.9
v 3.6 3.6 -3.6
v 3.6 4.6 -0.4
v 3.6 4.6 -1.1
v 3.6 4.6 -2.9
v 3.6 4.6 -3.6
v 3.7 4.6 -0.3
v 3.7 4.6 -1.2
v 3.7 4.6 -2.8
v 3.7 4.6 -3.7
v 3.7 6.1 -2.8
v 3.7 6.1 -3.7
v 3.7 6.6 -0.3
v 3.7 6.6 -1.2
v 4 2 0
v 4 2 -4
v 4 2.1 0
v 4 2.1 -4
v 0 2 0
v 0 2.1 0
v 4 2 0
v 4 2.1 0
v 0.3 4.6 -0.3
v 0.3 5.1 -0.3
v 1.2 4.6 -0.3
v 1.2 5.1 -0.3
v 2.8 4.6 -0.3
v 2.8 6.6 -0.3
v 3.7 4.6 -0.3
v 3.7 6.6 -0.3
v 0.4 3.6 -0.4
v 0.4 4.6 -0.4
v 1.1 3.6 -0.4
v 1.1 4.6 -0.4
v 2.9 3.6 -0.4
v 2.9 4.6 -0.4
v 3.6 3.6 -0.4
v 3.6 4.6 -0.4
v 0.5 2.1 -0.5
v 0.5 3.6 -0.5
v 1 2.1 -0.5
v 1 3.6 -0.5
v 3 2.1 -0.5
v 3 3.6 -0.5
v 3.5 2.1 -0.5
v 3.5 3.6 -0.5
v 1.2 2.1 -1.2
v 1.2 2.2 -1.2
v 2.8 2.1 -1.2
v 2.8 2.2 -1.2
v 0.3 4.6 -2.8
v 0.3 5.6 -2.8
v 1.2 4.6 -2.8
v 1.2 5.6 -2.8
v 2.8 4.6 -2.8
v 2.8 6.1 -2.8
v 3.7 4.6 -2.8
v 3.7 6.1 -2.8
v 0.4 3.6 -2.9
v 0.4 4.6 -2.9
v 1.1 3.6 -2.9
v 1.1 4.6 -2.9
v 2.9 3.6 -2.9
v 2.9 4.6 -2.9
v 3.6 3.6 -2.9
v 3.6 4.6 -2.9
v 0.5 2.1 -3
v 0.5 3.6 -3
v 1 2.1 -3
v 1 3.6 -3
v 3 2.1 -3
v 3 3.6 -3
v 3.5 2.1 -3
v 3.5 3.6 -3
v 0.5 2.1 -1
v 0.5 3.6 -1
v 1 2.1 -1
v 1 3.6 -1
v 3 2.1 -1
v 3 3.6 -1
v 3.5 2.1 -1
v 3.5 3.6 -1
v 0.4 3.6 -1.1
v 0.4 4.6 -1.1
v 1.1 3.6 -1.1
v 1.1 4.6 -1.1
v 2.9 3.6 -1.1
v 2.9 4.6 -1.1
v 3.6 3.6 -1.1
v 3.6 4.6 -1.1
v 0.3 4.6 -1.2
v 0.3 5.1 -1.2
v 1.2 4.6 -1.2
v 1.2 5.1 -1.2
v 2.8 4.6 -1.2
v 2.8 6.6 -1.2
v 3.7 4.6 -1.2
v 3.7 6.6 -1.2
v 1.2 2.1 -2.8
v 1.2 2.2 -2.8
v 2.8 2.1 -2.8
v 2.8 2.2 -2.8
v 0.5 2.1 -3.5
v 0.5 3.6 -3.5
v 1 2.1 -3.5
v 1 3.6 -3.5
v 3 2.1 -3.5
v 3 3.6 -3.5
v 3.5 2.1 -3.5
v 3.5 3.6 -3.5
v 0.4 3.6 -3.6
v 0.4 4.6 -3.6
v 1.1 3.6 -3.6
v 1.1 4.6 -3.6
v 2.9 3.6 -3.6
v 2.9 4.6 -3.6
v 3.6 3.6 -3.6
v 3.6 4.6 -3.6
v 0.3 4.6 -3.7
v 0.3 5.6 -3.7
v 1.2 4.6 -3.7
v 1.2 5.6 -3.7
v 2.8 4.6 -3.7
v 2.8 6.1 -3.7
v 3.7 4.6 -3.7
v 3.7 6.1 -3.7
v 0 2 -4
v 0 2.1 -4
v 4 2 -4
v 4 2.1 -4
v 0 2 0
v 4 2 0
v 0 2 -4
v 4 2 -4
v 0.4 3.6 -0.4
v 1.1 3.6 -0.4
v 2.9 3.6 -0.4
v 3.6 3.6 -0.4
v 0.5 3.6 -0.5
v 1 3.6 -0.5
v 3 3.6 -0.5
v 3.5 3.6 -0.5
v 0.5 3.6 -1
v 1 3.6 -1
v 3 3.6 -1
v 3.5 3.6 -1
v 0.4 3.6 -1.1
v 1.1 3.6 -1.1
v 2.9 3.6 -1.1
v 3.6 3.6 -1.1
v 0.4 3.6 -2.9
v 1.1 3.6 -2.9
v 2.9 3.6 -2.9
v 3.6 3.6 -2.9
v 0.5 3.6 -3
v 1 3.6 -3
v 3 3.6 -3
v 3.5 3.6 -3
v 0.5 3.6 -3.5
v 1 3.6 -3.5
v 3 3.6 -3.5
v 3.5 3.6 -3.5
v 0.4 3.6 -3.6
v 1.1 3.6 -3.6
v 2.9 3.6 -3.6
v 3.6 3.6 -3.6
v 0.3 4.6 -0.3
v 1.2 4.6 -0.3
v 2.8 4.6 -0.3
v 3.7 4.6 -0.3
v 0.4 4.6 -0.4
v 1.1 4.6 -0.4
v 2.9 4.6 -0.4
v 3.6 4.6 -0.4
v 0.4 4.6 -1.1
v 1.1 4.6 -1.1
v 2.9 4.6 -1.1
v 3.6 4.6 -1.1
v 0.3 4.6 -1.2
v 1.2 4.6 -1.2
v 2.8 4.6 -1.2
v 3.7 4.6 -1.2
v 0.3 4.6 -2.8
v 1.2 4.6 -2.8
v 2.8 4.6 -2.8
v 3.7 4.6 -2.8
v 0.4 4.6 -2.9
v 1.1 4.6 -2.9
v 2.9 4.6 -2.9
v 3.6 4.6 -2.9
v 0.4 4.6 -3.6
v 1.1 4.6 -3.6
v 2.9 4.6 -3.6
v 3.6 4.6 -3.6
v 0.3 4.6 -3.7
v 1.2 4.6 -3.7
v 2.8 4.6 -3.7
v 3.7 4.6 -3.7
v 0 2.1 0
v 4 2.1 0
v 0.5 2.1 -0.5
v 1 2.1 -0.5
v 3 2.1 -0.5
v 3.5 2.1 -0.5
v 0.5 2.1 -1
v 1 2.1 -1
v 3 2.1 -1
v 3.5 2.1 -1
v 1.2 2.1 -1.2
v 2.8 2.1 -1.2
v 1.2 2.1 -2.8
v 2.8 2.1 -2.8
v 0.5 2.1 -3
v 1 2.1 -3
v 3 2.1 -3
v 3.5 2.1 -3
v 0.5 2.1 -3.5
v 1 2.1 -3.5
v 3 2.1 -3.5
v 3.5 2.1 -3.5
v 0 2.1 -4
v 4 2.1 -4
v 1.2 2.2 -1.2
v 2.8 2.2 -1.2
v 1.2 2.2 -2.8
v 2.8 2.2 -2.8
v 0.3 5.1 -0.3
v 1.2 5.1 -0.3
v 0.3 5.1 -1.2
v 1.2 5.1 -1.2
v 0.3 5.6 -2.8
v 1.2 5.6 -2.8
v 0.3 5.6 -3.7
v 1.2 5.6 -3.7
v 2.8 6.1 -2.8
v 3.7 6.1 -2.8
v 2.8 6.1 -3.7
v 3.7 6.1 -3.7
v 2.8 6.6 -0.3
v 3.7 6.6 -0.3
v 2.8 6.6 -1.2
v 3.7 6.6 -1.2

# faces
f 3/1/1 2/1/1 1/1/1
f 4/1/1 2/1/1 3/1/1
f 9/2/1 6/2/1 5/2/1
f 10/2/1 6/2/1 9/2/1
f 11/2/1 8/2/1 7/2/1
f 12/2/1 8/2/1 11/2/1
f 17/3/1 14/3/1 13/3/1
f 18/3/1 14/3/1 17/3/1
f 19/3/1 16/3/1 15/3/1
f 20/3/1 16/3/1 19/3/1
f 25/4/1 22/4/1 21/4/1
f 26/4/1 22/4/1 25/4/1
f 27/4/1 24/4/1 23/4/1
f 28/4/1 24/4/1 27/4/1
f 31/5/1 30/5/1 29/5/1
f 32/5/1 30/5/1 31/5/1
f 37/2/1 36/2/1 35/2/1
f 38/2/1 36/2/1 37/2/1
f 39/2/1 34/2/1 33/2/1
f 40/2/1 34/2/1 39/2/1
f 45/3/1 42/3/1 41/3/1
f 46/3/1 42/3/1 45/3/1
f 47/3/1 44/3/1 43/3/1
f 48/3/1 44/3/1 47/3/1
f 53/4/1 50/4/1 49/4/1
f 54/4/1 50/4/1 53/4/1
f 55/4/1 52/4/1 51/4/1
f 56/4/1 52/4/1 55/4/1
f 57/4/2 58/4/2 61/4/2
f 61/4/2 58/4/2 62/4/2
f 59/4/2 60/4/2 63/4/2
f 63/4/2 60/4/2 64/4/2
f 65/3/2 66/3/2 69/3/2
f 69/3/2 66/3/2 70/3/2
f 67/3/2 68/3/2 71/3/2
f 71/3/2 68/3/2 72/3/2
f 73/2/2 74/2/2 77/2/2
f 77/2/2 74/2/2 78/2/2
f 75/2/2 76/2/2 79/2/2
f 79/2/2 76/2/2 80/2/2
f 81/5/2 82/5/2 83/5/2
f 83/5/2 82/5/2 84/5/2
f 85/4/2 86/4/2 89/4/2
f 89/4/2 86/4/2 90/4/2
f 87/4/2 88/4/2 91/4/2
f 91/4/2 88/4/2 92/4/2
f 93/3/2 94/3/2 97/3/2
f 97/3/2 94/3/2 98/3/2
f 95/3/2 96/3/2 99/3/2
f 99/3/2 96/3/2 100/3/2
f 103/2/2 104/2/2 105/2/2
f 105/2/2 104/2/2 106/2/2
f 101/2/2 102/2/2 107/2/2
f 107/2/2 102/2/2 108/2/2
f 109/1/2 110/1/2 111/1/2
f 111/1/2 110/1/2 112/1/2
f 115/1/3 114/1/3 113/1/3
f 116/1/3 114/1/3 115/1/3
f 119/2/3 118/2/3 117/2/3
f 120/2/3 118/2/3 119/2/3
f 123/2/3 122/2/3 121/2/3
f 124/2/3 122/2/3 123/2/3
f 127/3/3 126/3/3 125/3/3
f 128/3/3 126/3/3 127/3/3
f 131/3/3 130/3/3 129/3/3
f 132/3/3 130/3/3 131/3/3
f 135/4/3 134/4/3 133/4/3
f 136/4/3 134/4/3 135/4/3
f 139/4/3 138/4/3 137/4/3
f 140/4/3 138/4/3 139/4/3
f 143/5/3 142/5/3 141/5/3
f 144/5/3 142/5/3 143/5/3
f 147/2/3 146/2/3 145/2/3
f 148/2/3 146/2/3 147/2/3
f 151/2/3 150/2/3 149/2/3
f 152/2/3 150/2/3 151/2/3
f 155/3/3 154/3/3 153/3/3
f 156/3/3 154/3/3 155/3/3
f 159/3/3 158/3/3 157/3/3
f 160/3/3 158/3/3 159/3/3
f 163/4/3 162/4/3 161/4/3
f 164/4/3 162/4/3 163/4/3
f 167/4/3 166/4/3 165/4/3
f 168/4/3 166/4/3 167/4/3
f 169/4/4 170/4/4 171/4/4
f 171/4/4 170/4/4 172/4/4
f 173/4/4 174/4/4 175/4/4
f 175/4/4 174/4/4 176/4/4
f 177/3/4 178/3/4 179/3/4
f 179/3/4 178/3/4 180/3/4
f 181/3/4 182/3/4 183/3/4
f 183/3/4 182/3/4 184/3/4
f 185/2/4 186/2/4 187/2/4
f 187/2/4 186/2/4 188/2/4
f 189/2/4 190/2/4 191/2/4
f 191/2/4 190/2/4 192/2/4
f 193/5/4 194/5/4 195/5/4
f 195/5/4 194/5/4 196/5/4
f 197/4/4 198/4/4 199/4/4
f 199/4/4 198/4/4 200/4/4
f 201/4/4 202/4/4 203/4/4
f 203/4/4 202/4/4 204/4/4
f 205/3/4 206/3/4 207/3/4
f 207/3/4 206/3/4 208/3/4
f 209/3/4 210/3/4 211/3/4
f 211/3/4 210/3/4 212/3/4
f 213/2/4 214/2/4 215/2/4
f 215/2/4 214/2/4 216/2/4
f 217/2/4 218/2/4 219/2/4
f 219/2/4 218/2/4 220/2/4
f 221/1/4 222/1/4 223/1/4
f 223/1/4 222/1/4 224/1/4
f 227/1/5 226/1/5 225/1/5
f 228/1/5 226/1/5 227/1/5
f 233/3/5 230/3/5 229/3/5
f 234/3/5 230/3/5 233/3/5
f 235/3/5 232/3/5 231/3/5
f 236/3/5 232/3/5 235/3/5
f 237/3/5 233/3/5 229/3/5
f 238/3/5 230/3/5 234/3/5
f 239/3/5 235/3/5 231/3/5
f 240/3/5 232/3/5 236/3/5
f 241/3/5 237/3/5 229/3/5
f 241/3/5 238/3/5 237/3/5
f 242/3/5 230/3/5 238/3/5
f 242/3/5 238/3/5 241/3/5
f 243/3/5 240/3/5 239/3/5
f 243/3/5 239/3/5 231/3/5
f 244/3/5 232/3/5 240/3/5
f 244/3/5 240/3/5 243/3/5
f 249/3/5 246/3/5 245/3/5
f 250/3/5 246/3/5 249/3/5
f 251/3/5 248/3/5 247/3/5
f 252/3/5 248/3/5 251/3/5
f 253/3/5 249/3/5 245/3/5
f 254/3/5 246/3/5 250/3/5
f 255/3/5 251/3/5 247/3/5
f 256/3/5 248/3/5 252/3/5
f 257/3/5 253/3/5 245/3/5
f 257/3/5 254/3/5 253/3/5
f 258/3/5 246/3/5 254/3/5
f 258/3/5 254/3/5 257/3/5
f 259/3/5 256/3/5 255/3/5
f 259/3/5 255/3/5 247/3/5
f 260/3/5 248/3/5 256/3/5
f 260/3/5 256/3/5 259/3/5
f 265/2/5 262/2/5 261/2/5
f 266/2/5 262/2/5 265/2/5
f 267/2/5 264/2/5 263/2/5
f 268/2/5 264/2/5 267/2/5
f 269/2/5 265/2/5 261/2/5
f 270/2/5 262/2/5 266/2/5
f 271/2/5 267/2/5 263/2/5
f 272/2/5 264/2/5 268/2/5
f 273/2/5 269/2/5 261/2/5
f 273/2/5 270/2/5 269/2/5
f 274/2/5 262/2/5 270/2/5
f 274/2/5 270/2/5 273/2/5
f 275/2/5 272/2/5 271/2/5
f 275/2/5 271/2/5 263/2/5
f 276/2/5 264/2/5 272/2/5
f 276/2/5 272/2/5 275/2/5
f 281/2/5 278/2/5 277/2/5
f 282/2/5 278/2/5 281/2/5
f 283/2/5 280/2/5 279/2/5
f 284/2/5 280/2/5 283/2/5
f 285/2/5 281/2/5 277/2/5
f 286/2/5 278/2/5 282/2/5
f 287/2/5 283/2/5 279/2/5
f 288/2/5 280/2/5 284/2/5
f 289/2/5 285/2/5 277/2/5
f 289/2/5 286/2/5 285/2/5
f 290/2/5 278/2/5 286/2/5
f 290/2/5 286/2/5 289/2/5
f 291/2/5 288/2/5 287/2/5
f 291/2/5 287/2/5 279/2/5
f 292/2/5 280/2/5 288/2/5
f 292/2/5 288/2/5 291/2/5
f 293/1/6 294/1/6 295/1/6
f 295/1/6 294/1/6 296/1/6
f 296/1/6 294/1/6 297/1/6
f 297/1/6 294/1/6 298/1/6
f 293/1/6 295/1/6 299/1/6
f 296/1/6 297/1/6 300/1/6
f 300/1/6 297/1/6 301/1/6
f 298/1/6 294/1/6 302/1/6
f 300/1/6 301/1/6 303/1/6
f 301/1/6 302/1/6 303/1/6
f 299/1/6 300/1/6 303/1/6
f 303/1/6 302/1/6 304/1/6
f 299/1/6 303/1/6 305/1/6
f 304/1/6 302/1/6 306/1/6
f 293/1/6 299/1/6 307/1/6
f 305/1/6 306/1/6 307/1/6
f 299/1/6 305/1/6 307/1/6
f 307/1/6 306/1/6 308/1/6
f 306/1/6 302/1/6 309/1/6
f 308/1/6 306/1/6 309/1/6
f 302/1/6 294/1/6 310/1/6
f 309/1/6 302/1/6 310/1/6
f 293/1/6 307/1/6 311/1/6
f 308/1/6 309/1/6 312/1/6
f 312/1/6 309/1/6 313/1/6
f 310/1/6 294/1/6 314/1/6
f 293/1/6 311/1/6 315/1/6
f 313/1/6 314/1/6 315/1/6
f 312/1/6 313/1/6 315/1/6
f 311/1/6 312/1/6 315/1/6
f 314/1/6 294/1/6 316/1/6
f 315/1/6 314/1/6 316/1/6
f 317/5/6 318/5/6 319/5/6
f 319/5/6 318/5/6 320/5/6
f 321/2/6 322/2/6 323/2/6
f 323/2/6 322/2/6 324/2/6
f 325/2/6 326/2/6 327/2/6
f 327/2/6 326/2/6 328/2/6
f 329/2/6 330/2/6 331/2/6
f 331/2/6 330/2/6 332/2/6
f 333/2/6 334/2/6 335/2/6
f 335/2/6 334/2/6 336/2/6
