# MagicaVoxel @ Ephtracy

# group
o 

# material
mtllib 0.mtl
usemtl palette

# normals
vn -1 0 0
vn 1 0 0
vn 0 0 1
vn 0 0 -1
vn 0 -1 0
vn 0 1 0

# texcoords
vt 0.0605469 0.5
vt 0.537109 0.5
vt 0.693359 0.5
vt 0.697266 0.5
vt 0.705078 0.5
vt 0.994141 0.5

# verts
v 0.7 2.3 -0.4
v 0.7 2.3 -0.5
v 0.7 2.3 -0.9
v 0.7 2.3 -1
v 0.7 2.3 -1.3
v 0.7 2.4 -0.4
v 0.7 2.4 -0.5
v 0.7 2.4 -0.9
v 0.7 2.4 -1
v 0.7 2.4 -1.3
v 0.7 2.6 -0.8
v 0.7 2.6 -0.9
v 0.7 2.7 -0.8
v 0.7 2.7 -0.9
v 0.7 2.7 -1
v 0.7 2.7 -1.1
v 0.7 2.8 -0.9
v 0.7 2.8 -1.1
v 0.7 2.9 -0.7
v 0.7 2.9 -1.2
v 0.7 3 -0.7
v 0.7 3 -1.2
v 0.8 2 -0.9
v 0.8 2 -1
v 0.8 2.3 -0.9
v 0.8 2.3 -1
v 0.8 2.4 -0.8
v 0.8 2.4 -0.9
v 0.8 2.4 -1
v 0.8 2.4 -1.1
v 0.8 2.5 -0.8
v 0.8 2.5 -0.9
v 0.8 2.5 -1
v 0.8 2.5 -1.1
v 0.8 2.6 -0.8
v 0.8 2.6 -0.9
v 0.8 2.7 -0.8
v 0.8 2.7 -0.9
v 0.8 2.7 -1
v 0.8 2.7 -1.1
v 0.8 2.7 -1.2
v 0.8 2.8 -0.8
v 0.8 2.8 -0.9
v 0.8 2.8 -1.1
v 0.8 2.8 -1.2
v 0.8 2.9 -0.8
v 0.8 2.9 -0.9
v 0.8 2.9 -1.1
v 0.8 3 -0.8
v 0.8 3 -1.1
v 0.8 3.1 -0.8
v 0.8 3.1 -1.1
v 0.9 2.8 -1.1
v 0.9 2.8 -1.2
v 0.9 2.9 -1.1
v 0.9 2.9 -1.2
v 0.9 3.1 -0.9
v 0.9 3.1 -1.1
v 0.9 3.2 -0.9
v 0.9 3.2 -1
v 0.9 3.2 -1.1
v 0.9 3.2 -1.2
v 0.9 3.3 -1
v 0.9 3.3 -1.2
v 1 2 -0.9
v 1 2 -1
v 1 2.3 -0.9
v 1 2.3 -1
v 0.8 2.3 -0.4
v 0.8 2.3 -0.5
v 0.8 2.3 -0.8
v 0.8 2.3 -1.1
v 0.8 2.3 -1.3
v 0.8 2.4 -0.4
v 0.8 2.4 -0.5
v 0.8 2.4 -0.8
v 0.8 2.4 -1.1
v 0.8 2.4 -1.3
v 0.9 2 -0.9
v 0.9 2 -1
v 0.9 2.3 -0.9
v 0.9 2.3 -1
v 1 2.8 -1.1
v 1 2.8 -1.2
v 1 2.9 -1.1
v 1 2.9 -1.2
v 1 3.1 -0.9
v 1 3.1 -1.1
v 1 3.2 -0.9
v 1 3.2 -1
v 1 3.2 -1.1
v 1 3.2 -1.2
v 1 3.3 -1
v 1 3.3 -1.2
v 1.1 2 -0.9
v 1.1 2 -1
v 1.1 2.3 -0.8
v 1.1 2.3 -0.9
v 1.1 2.3 -1
v 1.1 2.3 -1.1
v 1.1 2.6 -0.8
v 1.1 2.6 -0.9
v 1.1 2.6 -1
v 1.1 2.6 -1.1
v 1.1 2.7 -0.8
v 1.1 2.7 -0.9
v 1.1 2.7 -1
v 1.1 2.7 -1.1
v 1.1 2.7 -1.2
v 1.1 2.8 -0.8
v 1.1 2.8 -0.9
v 1.1 2.8 -1.1
v 1.1 2.8 -1.2
v 1.1 2.9 -0.8
v 1.1 2.9 -0.9
v 1.1 2.9 -1.1
v 1.1 3 -0.8
v 1.1 3 -1.1
v 1.1 3.1 -0.8
v 1.1 3.1 -1.1
v 1.2 2.3 -0.9
v 1.2 2.3 -1
v 1.2 2.6 -0.8
v 1.2 2.6 -0.9
v 1.2 2.7 -0.8
v 1.2 2.7 -0.9
v 1.2 2.7 -1
v 1.2 2.7 -1.1
v 1.2 2.8 -0.9
v 1.2 2.8 -1.1
v 1.2 2.9 -0.7
v 1.2 2.9 -1.2
v 1.2 3 -0.7
v 1.2 3 -1.2
v 0.7 2.3 -0.4
v 0.7 2.4 -0.4
v 0.8 2.3 -0.4
v 0.8 2.4 -0.4
v 0.7 2.9 -0.7
v 0.7 3 -0.7
v 1.2 2.9 -0.7
v 1.2 3 -0.7
v 0.7 2.6 -0.8
v 0.7 2.7 -0.8
v 0.8 2.3 -0.8
v 0.8 2.4 -0.8
v 0.8 2.5 -0.8
v 0.8 2.6 -0.8
v 0.8 2.7 -0.8
v 0.8 2.8 -0.8
v 0.8 2.9 -0.8
v 0.8 3 -0.8
v 0.8 3.1 -0.8
v 0.9 2.4 -0.8
v 0.9 2.5 -0.8
v 0.9 2.6 -0.8
v 0.9 2.8 -0.8
v 0.9 2.9 -0.8
v 1 2.5 -0.8
v 1 2.6 -0.8
v 1 2.7 -0.8
v 1 2.8 -0.8
v 1 2.9 -0.8
v 1.1 2.3 -0.8
v 1.1 2.6 -0.8
v 1.1 2.7 -0.8
v 1.1 2.8 -0.8
v 1.1 2.9 -0.8
v 1.1 3 -0.8
v 1.1 3.1 -0.8
v 1.2 2.6 -0.8
v 1.2 2.7 -0.8
v 0.7 2.4 -0.9
v 0.7 2.6 -0.9
v 0.7 2.7 -0.9
v 0.7 2.8 -0.9
v 0.8 2 -0.9
v 0.8 2.3 -0.9
v 0.8 2.4 -0.9
v 0.8 2.5 -0.9
v 0.8 2.6 -0.9
v 0.8 2.7 -0.9
v 0.8 2.8 -0.9
v 0.9 2 -0.9
v 0.9 2.3 -0.9
v 0.9 3.1 -0.9
v 0.9 3.2 -0.9
v 1 2 -0.9
v 1 2.3 -0.9
v 1 3.1 -0.9
v 1 3.2 -0.9
v 1.1 2 -0.9
v 1.1 2.3 -0.9
v 1.1 2.6 -0.9
v 1.1 2.7 -0.9
v 1.1 2.8 -0.9
v 1.2 2.3 -0.9
v 1.2 2.6 -0.9
v 1.2 2.7 -0.9
v 1.2 2.8 -0.9
v 0.9 3.2 -1
v 0.9 3.3 -1
v 1 3.2 -1
v 1 3.3 -1
v 0.7 2.4 -1
v 0.7 2.7 -1
v 0.8 2 -1
v 0.8 2.3 -1
v 0.8 2.4 -1
v 0.8 2.5 -1
v 0.8 2.7 -1
v 0.9 2 -1
v 0.9 2.3 -1
v 1 2 -1
v 1 2.3 -1
v 1.1 2 -1
v 1.1 2.3 -1
v 1.1 2.6 -1
v 1.1 2.7 -1
v 1.2 2.3 -1
v 1.2 2.7 -1
v 0.7 2.7 -1.1
v 0.7 2.8 -1.1
v 0.8 2.3 -1.1
v 0.8 2.4 -1.1
v 0.8 2.5 -1.1
v 0.8 2.7 -1.1
v 0.8 2.8 -1.1
v 0.8 2.9 -1.1
v 0.8 3 -1.1
v 0.8 3.1 -1.1
v 0.9 2.4 -1.1
v 0.9 2.5 -1.1
v 0.9 2.6 -1.1
v 0.9 2.8 -1.1
v 0.9 2.9 -1.1
v 0.9 3.1 -1.1
v 0.9 3.2 -1.1
v 1 2.5 -1.1
v 1 2.6 -1.1
v 1 2.7 -1.1
v 1 2.8 -1.1
v 1 2.9 -1.1
v 1 3.1 -1.1
v 1 3.2 -1.1
v 1.1 2.3 -1.1
v 1.1 2.6 -1.1
v 1.1 2.7 -1.1
v 1.1 2.8 -1.1
v 1.1 2.9 -1.1
v 1.1 3 -1.1
v 1.1 3.1 -1.1
v 1.2 2.7 -1.1
v 1.2 2.8 -1.1
v 0.7 2.9 -1.2
v 0.7 3 -1.2
v 0.8 2.7 -1.2
v 0.8 2.8 -1.2
v 0.9 2.8 -1.2
v 0.9 2.9 -1.2
v 0.9 3.2 -1.2
v 0.9 3.3 -1.2
v 1 2.8 -1.2
v 1 2.9 -1.2
v 1 3.2 -1.2
v 1 3.3 -1.2
v 1.1 2.7 -1.2
v 1.1 2.8 -1.2
v 1.2 2.9 -1.2
v 1.2 3 -1.2
v 0.7 2.3 -1.3
v 0.7 2.4 -1.3
v 0.8 2.3 -1.3
v 0.8 2.4 -1.3
v 0.8 2 -0.9
v 0.9 2 -0.9
v 1 2 -0.9
v 1.1 2 -0.9
v 0.8 2 -1
v 0.9 2 -1
v 1 2 -1
v 1.1 2 -1
v 0.7 2.3 -0.4
v 0.8 2.3 -0.4
v 0.7 2.3 -0.5
v 0.8 2.3 -0.5
v 0.8 2.3 -0.8
v 1.1 2.3 -0.8
v 0.7 2.3 -0.9
v 0.8 2.3 -0.9
v 0.9 2.3 -0.9
v 1 2.3 -0.9
v 1.1 2.3 -0.9
v 1.2 2.3 -0.9
v 0.7 2.3 -1
v 0.8 2.3 -1
v 0.9 2.3 -1
v 1 2.3 -1
v 1.1 2.3 -1
v 1.2 2.3 -1
v 0.8 2.3 -1.1
v 1.1 2.3 -1.1
v 0.7 2.3 -1.3
v 0.8 2.3 -1.3
v 0.7 2.6 -0.8
v 0.8 2.6 -0.8
v 1.1 2.6 -0.8
v 1.2 2.6 -0.8
v 0.7 2.6 -0.9
v 0.8 2.6 -0.9
v 1.1 2.6 -0.9
v 1.2 2.6 -0.9
v 0.7 2.7 -1
v 0.8 2.7 -1
v 1.1 2.7 -1
v 1.2 2.7 -1
v 0.7 2.7 -1.1
v 0.8 2.7 -1.1
v 1 2.7 -1.1
v 1.1 2.7 -1.1
v 1.2 2.7 -1.1
v 0.8 2.7 -1.2
v 1.1 2.7 -1.2
v 0.7 2.9 -0.7
v 1.2 2.9 -0.7
v 0.8 2.9 -0.8
v 0.9 2.9 -0.8
v 1 2.9 -0.8
v 1.1 2.9 -0.8
v 0.8 2.9 -0.9
v 1.1 2.9 -0.9
v 0.8 2.9 -1.1
v 0.9 2.9 -1.1
v 1 2.9 -1.1
v 1.1 2.9 -1.1
v 0.7 2.9 -1.2
v 0.9 2.9 -1.2
v 1 2.9 -1.2
v 1.2 2.9 -1.2
v 0.9 3.2 -1.1
v 1 3.2 -1.1
v 0.9 3.2 -1.2
v 1 3.2 -1.2
v 0.7 2.4 -0.4
v 0.8 2.4 -0.4
v 0.7 2.4 -0.5
v 0.8 2.4 -0.5
v 0.8 2.4 -0.8
v 0.7 2.4 -0.9
v 0.8 2.4 -0.9
v 0.7 2.4 -1
v 0.8 2.4 -1
v 0.8 2.4 -1.1
v 0.7 2.4 -1.3
v 0.8 2.4 -1.3
v 0.7 2.7 -0.8
v 0.8 2.7 -0.8
v 1.1 2.7 -0.8
v 1.2 2.7 -0.8
v 0.7 2.7 -0.9
v 0.8 2.7 -0.9
v 1.1 2.7 -0.9
v 1.2 2.7 -0.9
v 0.7 2.8 -0.9
v 0.8 2.8 -0.9
v 1.1 2.8 -0.9
v 1.2 2.8 -0.9
v 0.7 2.8 -1.1
v 0.8 2.8 -1.1
v 0.9 2.8 -1.1
v 1 2.8 -1.1
v 1.1 2.8 -1.1
v 1.2 2.8 -1.1
v 0.8 2.8 -1.2
v 0.9 2.8 -1.2
v 1 2.8 -1.2
v 1.1 2.8 -1.2
v 0.7 3 -0.7
v 1.2 3 -0.7
v 0.8 3 -0.8
v 1.1 3 -0.8
v 0.8 3 -1.1
v 1.1 3 -1.1
v 0.7 3 -1.2
v 1.2 3 -1.2
v 0.8 3.1 -0.8
v 1.1 3.1 -0.8
v 0.9 3.1 -0.9
v 1 3.1 -0.9
v 0.8 3.1 -1.1
v 0.9 3.1 -1.1
v 1 3.1 -1.1
v 1.1 3.1 -1.1
v 0.9 3.2 -0.9
v 1 3.2 -0.9
v 0.9 3.2 -1
v 1 3.2 -1
v 0.9 3.3 -1
v 1 3.3 -1
v 0.9 3.3 -1.2
v 1 3.3 -1.2

# faces
f 6/5/1 2/5/1 1/5/1
f 7/2/1 3/2/1 2/2/1
f 7/5/1 2/5/1 6/5/1
f 8/4/1 4/4/1 3/4/1
f 8/2/1 3/2/1 7/2/1
f 9/2/1 5/2/1 4/2/1
f 9/4/1 4/4/1 8/4/1
f 10/2/1 5/2/1 9/2/1
f 12/4/1 9/4/1 8/4/1
f 13/3/1 12/3/1 11/3/1
f 14/4/1 9/4/1 12/4/1
f 14/3/1 12/3/1 13/3/1
f 15/4/1 9/4/1 14/4/1
f 17/3/1 16/3/1 15/3/1
f 17/3/1 15/3/1 14/3/1
f 18/3/1 16/3/1 17/3/1
f 21/4/1 20/4/1 19/4/1
f 22/4/1 20/4/1 21/4/1
f 25/4/1 24/4/1 23/4/1
f 26/4/1 24/4/1 25/4/1
f 31/3/1 28/3/1 27/3/1
f 32/3/1 28/3/1 31/3/1
f 33/3/1 30/3/1 29/3/1
f 34/3/1 30/3/1 33/3/1
f 35/4/1 32/4/1 31/4/1
f 36/4/1 32/4/1 35/4/1
f 39/4/1 34/4/1 33/4/1
f 40/4/1 34/4/1 39/4/1
f 42/1/1 38/1/1 37/1/1
f 43/1/1 38/1/1 42/1/1
f 44/3/1 41/3/1 40/3/1
f 45/3/1 41/3/1 44/3/1
f 46/6/1 43/6/1 42/6/1
f 47/1/1 44/1/1 43/1/1
f 47/6/1 43/6/1 46/6/1
f 48/1/1 44/1/1 47/1/1
f 51/4/1 50/4/1 49/4/1
f 52/4/1 50/4/1 51/4/1
f 55/3/1 54/3/1 53/3/1
f 56/3/1 54/3/1 55/3/1
f 59/4/1 58/4/1 57/4/1
f 60/4/1 58/4/1 59/4/1
f 61/4/1 58/4/1 60/4/1
f 63/4/1 62/4/1 61/4/1
f 63/4/1 61/4/1 60/4/1
f 64/4/1 62/4/1 63/4/1
f 67/4/1 66/4/1 65/4/1
f 68/4/1 66/4/1 67/4/1
f 69/5/2 70/5/2 74/5/2
f 70/2/2 71/2/2 75/2/2
f 74/5/2 70/5/2 75/5/2
f 75/2/2 71/2/2 76/2/2
f 72/2/2 73/2/2 77/2/2
f 77/2/2 73/2/2 78/2/2
f 79/4/2 80/4/2 81/4/2
f 81/4/2 80/4/2 82/4/2
f 83/3/2 84/3/2 85/3/2
f 85/3/2 84/3/2 86/3/2
f 87/4/2 88/4/2 89/4/2
f 89/4/2 88/4/2 90/4/2
f 90/4/2 88/4/2 91/4/2
f 91/4/2 92/4/2 93/4/2
f 90/4/2 91/4/2 93/4/2
f 93/4/2 92/4/2 94/4/2
f 95/4/2 96/4/2 98/4/2
f 98/4/2 96/4/2 99/4/2
f 97/4/2 98/4/2 101/4/2
f 101/4/2 98/4/2 102/4/2
f 99/4/2 100/4/2 103/4/2
f 103/4/2 100/4/2 104/4/2
f 103/3/2 104/3/2 107/3/2
f 107/3/2 104/3/2 108/3/2
f 105/1/2 106/1/2 110/1/2
f 110/1/2 106/1/2 111/1/2
f 108/3/2 109/3/2 112/3/2
f 112/3/2 109/3/2 113/3/2
f 110/6/2 111/6/2 114/6/2
f 111/1/2 112/1/2 115/1/2
f 114/6/2 111/6/2 115/6/2
f 115/1/2 112/1/2 116/1/2
f 117/4/2 118/4/2 119/4/2
f 119/4/2 118/4/2 120/4/2
f 121/4/2 122/4/2 124/4/2
f 123/3/2 124/3/2 125/3/2
f 124/4/2 122/4/2 126/4/2
f 125/3/2 124/3/2 126/3/2
f 126/4/2 122/4/2 127/4/2
f 127/3/2 128/3/2 129/3/2
f 126/3/2 127/3/2 129/3/2
f 129/3/2 128/3/2 130/3/2
f 131/4/2 132/4/2 133/4/2
f 133/4/2 132/4/2 134/4/2
f 137/5/3 136/5/3 135/5/3
f 138/5/3 136/5/3 137/5/3
f 141/4/3 140/4/3 139/4/3
f 142/4/3 140/4/3 141/4/3
f 148/3/3 144/3/3 143/3/3
f 149/3/3 144/3/3 148/3/3
f 154/3/3 147/3/3 146/3/3
f 154/4/3 146/4/3 145/4/3
f 155/4/3 148/4/3 147/4/3
f 155/3/3 147/3/3 154/3/3
f 155/4/3 149/4/3 148/4/3
f 156/4/3 149/4/3 155/4/3
f 157/6/3 151/6/3 150/6/3
f 157/1/3 150/1/3 149/1/3
f 158/6/3 151/6/3 157/6/3
f 159/3/3 156/3/3 155/3/3
f 159/4/3 155/4/3 154/4/3
f 160/4/3 149/4/3 156/4/3
f 160/3/3 156/3/3 159/3/3
f 161/1/3 158/1/3 157/1/3
f 161/4/3 149/4/3 160/4/3
f 161/1/3 157/1/3 149/1/3
f 162/1/3 158/1/3 161/1/3
f 163/1/3 158/1/3 162/1/3
f 164/4/3 159/4/3 154/4/3
f 164/4/3 154/4/3 145/4/3
f 164/4/3 160/4/3 159/4/3
f 165/3/3 161/3/3 160/3/3
f 165/4/3 160/4/3 164/4/3
f 166/1/3 162/1/3 161/1/3
f 166/3/3 161/3/3 165/3/3
f 167/6/3 163/6/3 162/6/3
f 167/1/3 162/1/3 166/1/3
f 168/6/3 163/6/3 167/6/3
f 169/4/3 153/4/3 152/4/3
f 170/4/3 153/4/3 169/4/3
f 171/3/3 166/3/3 165/3/3
f 172/3/3 166/3/3 171/3/3
f 179/4/3 174/4/3 173/4/3
f 180/4/3 174/4/3 179/4/3
f 181/4/3 174/4/3 180/4/3
f 182/3/3 176/3/3 175/3/3
f 183/3/3 176/3/3 182/3/3
f 184/4/3 178/4/3 177/4/3
f 185/4/3 178/4/3 184/4/3
f 190/4/3 187/4/3 186/4/3
f 191/4/3 187/4/3 190/4/3
f 192/4/3 189/4/3 188/4/3
f 193/4/3 189/4/3 192/4/3
f 197/4/3 194/4/3 193/4/3
f 198/4/3 194/4/3 197/4/3
f 199/3/3 196/3/3 195/3/3
f 200/3/3 196/3/3 199/3/3
f 203/4/3 202/4/3 201/4/3
f 204/4/3 202/4/3 203/4/3
f 205/4/4 206/4/4 209/4/4
f 209/4/4 206/4/4 210/4/4
f 210/4/4 206/4/4 211/4/4
f 207/4/4 208/4/4 212/4/4
f 212/4/4 208/4/4 213/4/4
f 214/4/4 215/4/4 216/4/4
f 216/4/4 215/4/4 217/4/4
f 218/4/4 219/4/4 220/4/4
f 217/4/4 218/4/4 220/4/4
f 220/4/4 219/4/4 221/4/4
f 222/3/4 223/3/4 227/3/4
f 227/3/4 223/3/4 228/3/4
f 225/3/4 226/3/4 232/3/4
f 224/4/4 225/4/4 232/4/4
f 226/4/4 227/4/4 233/4/4
f 232/3/4 226/3/4 233/3/4
f 233/4/4 227/4/4 234/4/4
f 228/1/4 229/1/4 235/1/4
f 235/1/4 229/1/4 236/1/4
f 230/4/4 231/4/4 237/4/4
f 232/4/4 233/4/4 239/4/4
f 233/3/4 234/3/4 239/3/4
f 234/4/4 227/4/4 240/4/4
f 239/3/4 234/3/4 240/3/4
f 240/4/4 227/4/4 241/4/4
f 237/4/4 238/4/4 244/4/4
f 230/4/4 237/4/4 244/4/4
f 244/4/4 238/4/4 245/4/4
f 232/4/4 239/4/4 246/4/4
f 224/4/4 232/4/4 246/4/4
f 239/4/4 240/4/4 246/4/4
f 240/3/4 241/3/4 247/3/4
f 246/4/4 240/4/4 247/4/4
f 247/3/4 241/3/4 248/3/4
f 242/1/4 243/1/4 249/1/4
f 249/1/4 243/1/4 250/1/4
f 230/4/4 244/4/4 251/4/4
f 251/4/4 244/4/4 252/4/4
f 248/3/4 249/3/4 253/3/4
f 253/3/4 249/3/4 254/3/4
f 257/3/4 258/3/4 259/3/4
f 255/4/4 256/4/4 260/4/4
f 257/3/4 259/3/4 263/3/4
f 259/3/4 260/3/4 263/3/4
f 260/4/4 256/4/4 264/4/4
f 263/3/4 260/3/4 264/3/4
f 261/4/4 262/4/4 265/4/4
f 265/4/4 262/4/4 266/4/4
f 257/3/4 263/3/4 267/3/4
f 267/3/4 263/3/4 268/3/4
f 264/4/4 256/4/4 269/4/4
f 269/4/4 256/4/4 270/4/4
f 271/2/4 272/2/4 273/2/4
f 273/2/4 272/2/4 274/2/4
f 279/4/5 276/4/5 275/4/5
f 280/4/5 276/4/5 279/4/5
f 281/4/5 278/4/5 277/4/5
f 282/4/5 278/4/5 281/4/5
f 285/5/5 284/5/5 283/5/5
f 286/5/5 284/5/5 285/5/5
f 287/2/5 286/2/5 285/2/5
f 289/2/5 287/2/5 285/2/5
f 290/4/5 288/4/5 287/4/5
f 290/2/5 287/2/5 289/2/5
f 291/4/5 288/4/5 290/4/5
f 292/4/5 288/4/5 291/4/5
f 293/4/5 288/4/5 292/4/5
f 295/4/5 290/4/5 289/4/5
f 296/4/5 290/4/5 295/4/5
f 297/4/5 292/4/5 291/4/5
f 298/4/5 292/4/5 297/4/5
f 299/4/5 294/4/5 293/4/5
f 300/4/5 294/4/5 299/4/5
f 301/4/5 298/4/5 297/4/5
f 301/2/5 296/2/5 295/2/5
f 301/4/5 299/4/5 298/4/5
f 301/4/5 297/4/5 296/4/5
f 302/4/5 299/4/5 301/4/5
f 303/2/5 301/2/5 295/2/5
f 304/2/5 301/2/5 303/2/5
f 309/3/5 306/3/5 305/3/5
f 310/3/5 306/3/5 309/3/5
f 311/3/5 308/3/5 307/3/5
f 312/3/5 308/3/5 311/3/5
f 317/3/5 314/3/5 313/3/5
f 318/3/5 314/3/5 317/3/5
f 320/3/5 316/3/5 315/3/5
f 321/3/5 316/3/5 320/3/5
f 322/3/5 319/3/5 318/3/5
f 322/3/5 320/3/5 319/3/5
f 323/3/5 320/3/5 322/3/5
f 326/4/5 325/4/5 324/4/5
f 327/4/5 325/4/5 326/4/5
f 328/4/5 325/4/5 327/4/5
f 329/4/5 325/4/5 328/4/5
f 330/4/5 326/4/5 324/4/5
f 331/4/5 325/4/5 329/4/5
f 332/4/5 330/4/5 324/4/5
f 335/4/5 325/4/5 331/4/5
f 336/4/5 333/4/5 332/4/5
f 336/4/5 332/4/5 324/4/5
f 337/4/5 333/4/5 336/4/5
f 338/4/5 335/4/5 334/4/5
f 339/4/5 325/4/5 335/4/5
f 339/4/5 335/4/5 338/4/5
f 342/4/5 341/4/5 340/4/5
f 343/4/5 341/4/5 342/4/5
f 344/5/6 345/5/6 346/5/6
f 346/5/6 345/5/6 347/5/6
f 346/2/6 347/2/6 348/2/6
f 346/2/6 348/2/6 349/2/6
f 349/2/6 348/2/6 350/2/6
f 351/2/6 352/2/6 353/2/6
f 351/2/6 353/2/6 354/2/6
f 354/2/6 353/2/6 355/2/6
f 356/3/6 357/3/6 360/3/6
f 360/3/6 357/3/6 361/3/6
f 358/3/6 359/3/6 362/3/6
f 362/3/6 359/3/6 363/3/6
f 364/3/6 365/3/6 368/3/6
f 368/3/6 365/3/6 369/3/6
f 366/3/6 367/3/6 372/3/6
f 372/3/6 367/3/6 373/3/6
f 369/3/6 370/3/6 374/3/6
f 374/3/6 370/3/6 375/3/6
f 371/3/6 372/3/6 376/3/6
f 376/3/6 372/3/6 377/3/6
f 378/4/6 379/4/6 380/4/6
f 380/4/6 379/4/6 381/4/6
f 378/4/6 380/4/6 382/4/6
f 381/4/6 379/4/6 383/4/6
f 378/4/6 382/4/6 384/4/6
f 382/4/6 383/4/6 384/4/6
f 383/4/6 379/4/6 385/4/6
f 384/4/6 383/4/6 385/4/6
f 386/4/6 387/4/6 388/4/6
f 388/4/6 387/4/6 389/4/6
f 386/4/6 388/4/6 390/4/6
f 390/4/6 388/4/6 391/4/6
f 389/4/6 387/4/6 392/4/6
f 392/4/6 387/4/6 393/4/6
f 394/4/6 395/4/6 396/4/6
f 396/4/6 395/4/6 397/4/6
f 398/4/6 399/4/6 400/4/6
f 400/4/6 399/4/6 401/4/6
