# MagicaVoxel @ Ephtracy

# group
o 

# material
mtllib 1.mtl
usemtl palette

# normals
vn -1 0 0
vn 1 0 0
vn 0 0 1
vn 0 0 -1
vn 0 -1 0
vn 0 1 0

# texcoords
vt 0.537109 0.5
vt 0.876953 0.5
vt 0.880859 0.5
vt 0.908203 0.5

# verts
v 0.4 2.3 -0.3
v 0.4 2.3 -0.9
v 0.4 2.3 -1.1
v 0.4 2.5 -0.3
v 0.4 2.5 -0.9
v 0.4 2.8 -0.9
v 0.4 2.8 -1.1
v 0.4 2.9 -0.9
v 0.4 2.9 -1.1
v 0.5 2.9 -0.9
v 0.5 2.9 -1.1
v 0.5 3 -0.9
v 0.5 3 -1.1
v 0.6 2.2 -0.8
v 0.6 2.2 -1.2
v 0.6 2.3 -0.8
v 0.6 2.3 -0.9
v 0.6 2.3 -1.1
v 0.6 2.5 -0.8
v 0.6 2.5 -0.9
v 0.6 2.8 -0.9
v 0.6 2.8 -1.1
v 0.6 2.9 -0.8
v 0.6 2.9 -0.9
v 0.6 2.9 -1.1
v 0.6 2.9 -1.2
v 0.7 2 -0.9
v 0.7 2 -1.1
v 0.7 2.2 -0.9
v 0.7 2.2 -1.1
v 0.7 2.3 -0.7
v 0.7 2.3 -0.8
v 0.7 2.3 -1.2
v 0.7 2.3 -1.3
v 0.7 2.8 -0.7
v 0.7 2.8 -0.8
v 0.7 2.8 -1.2
v 0.7 2.8 -1.3
v 0.7 2.9 -0.7
v 0.7 2.9 -0.8
v 0.7 2.9 -0.9
v 0.7 2.9 -1.1
v 0.7 2.9 -1.2
v 0.7 2.9 -1.3
v 0.7 3 -0.9
v 0.7 3 -1.1
v 0.7 3.4 -0.7
v 0.7 3.4 -0.8
v 0.7 3.4 -1
v 0.7 3.4 -1.3
v 0.7 3.5 -0.8
v 0.7 3.5 -1
v 1.1 2 -0.9
v 1.1 2 -1.1
v 1.1 2.2 -0.9
v 1.1 2.2 -1.1
v 1.1 3.4 -0.8
v 1.1 3.4 -1
v 1.1 3.5 -0.8
v 1.1 3.5 -1
v 0.6 2.3 -0.3
v 0.6 2.3 -0.8
v 0.6 2.5 -0.3
v 0.6 2.5 -0.8
v 0.9 2 -0.9
v 0.9 2 -1.1
v 0.9 2.2 -0.9
v 0.9 2.2 -1.1
v 0.9 3.4 -0.8
v 0.9 3.4 -1
v 0.9 3.5 -0.8
v 0.9 3.5 -1
v 1.3 2 -0.9
v 1.3 2 -1.1
v 1.3 2.2 -0.9
v 1.3 2.2 -1.1
v 1.3 2.3 -0.7
v 1.3 2.3 -0.8
v 1.3 2.3 -1.2
v 1.3 2.3 -1.3
v 1.3 2.8 -0.7
v 1.3 2.8 -0.8
v 1.3 2.8 -1.2
v 1.3 2.8 -1.3
v 1.3 2.9 -0.7
v 1.3 2.9 -0.8
v 1.3 2.9 -0.9
v 1.3 2.9 -1.1
v 1.3 2.9 -1.2
v 1.3 2.9 -1.3
v 1.3 3 -0.9
v 1.3 3 -1.1
v 1.3 3.4 -0.7
v 1.3 3.4 -0.8
v 1.3 3.4 -1
v 1.3 3.4 -1.3
v 1.3 3.5 -0.8
v 1.3 3.5 -1
v 1.4 2.2 -0.8
v 1.4 2.2 -1.2
v 1.4 2.3 -0.9
v 1.4 2.3 -1.1
v 1.4 2.8 -0.9
v 1.4 2.8 -1.1
v 1.4 2.9 -0.8
v 1.4 2.9 -0.9
v 1.4 2.9 -1.1
v 1.4 2.9 -1.2
v 1.5 2.9 -0.9
v 1.5 2.9 -1.1
v 1.5 3 -0.9
v 1.5 3 -1.1
v 1.6 2.3 -0.9
v 1.6 2.3 -1.1
v 1.6 2.8 -0.9
v 1.6 2.8 -1.1
v 1.6 2.9 -0.9
v 1.6 2.9 -1.1
v 0.4 2.3 -0.3
v 0.4 2.5 -0.3
v 0.6 2.3 -0.3
v 0.6 2.5 -0.3
v 0.7 2.3 -0.7
v 0.7 2.8 -0.7
v 0.7 2.9 -0.7
v 0.7 3.4 -0.7
v 0.8 3.2 -0.7
v 0.8 3.3 -0.7
v 0.9 3.2 -0.7
v 0.9 3.3 -0.7
v 1.1 3.2 -0.7
v 1.1 3.3 -0.7
v 1.2 3.2 -0.7
v 1.2 3.3 -0.7
v 1.3 2.3 -0.7
v 1.3 2.8 -0.7
v 1.3 2.9 -0.7
v 1.3 3.4 -0.7
v 0.6 2.2 -0.8
v 0.6 2.3 -0.8
v 0.6 2.5 -0.8
v 0.6 2.9 -0.8
v 0.7 2.3 -0.8
v 0.7 2.8 -0.8
v 0.7 2.9 -0.8
v 0.7 3.4 -0.8
v 0.7 3.5 -0.8
v 0.9 3.4 -0.8
v 0.9 3.5 -0.8
v 1.1 3.4 -0.8
v 1.1 3.5 -0.8
v 1.3 2.3 -0.8
v 1.3 2.8 -0.8
v 1.3 2.9 -0.8
v 1.3 3.4 -0.8
v 1.3 3.5 -0.8
v 1.4 2.2 -0.8
v 1.4 2.9 -0.8
v 0.4 2.5 -0.9
v 0.4 2.8 -0.9
v 0.4 2.9 -0.9
v 0.5 2.9 -0.9
v 0.5 3 -0.9
v 0.6 2.5 -0.9
v 0.6 2.8 -0.9
v 0.6 2.9 -0.9
v 0.7 2 -0.9
v 0.7 2.2 -0.9
v 0.7 2.9 -0.9
v 0.7 3 -0.9
v 0.9 2 -0.9
v 0.9 2.2 -0.9
v 1.1 2 -0.9
v 1.1 2.2 -0.9
v 1.3 2 -0.9
v 1.3 2.2 -0.9
v 1.3 2.9 -0.9
v 1.3 3 -0.9
v 1.4 2.3 -0.9
v 1.4 2.8 -0.9
v 1.4 2.9 -0.9
v 1.5 2.9 -0.9
v 1.5 3 -0.9
v 1.6 2.3 -0.9
v 1.6 2.8 -0.9
v 1.6 2.9 -0.9
v 0.7 3.4 -1
v 0.7 3.5 -1
v 0.9 3.4 -1
v 0.9 3.5 -1
v 1.1 3.4 -1
v 1.1 3.5 -1
v 1.3 3.4 -1
v 1.3 3.5 -1
v 0.4 2.3 -1.1
v 0.4 2.8 -1.1
v 0.4 2.9 -1.1
v 0.5 2.9 -1.1
v 0.5 3 -1.1
v 0.6 2.3 -1.1
v 0.6 2.8 -1.1
v 0.6 2.9 -1.1
v 0.7 2 -1.1
v 0.7 2.2 -1.1
v 0.7 2.9 -1.1
v 0.7 3 -1.1
v 0.9 2 -1.1
v 0.9 2.2 -1.1
v 1.1 2 -1.1
v 1.1 2.2 -1.1
v 1.3 2 -1.1
v 1.3 2.2 -1.1
v 1.3 2.9 -1.1
v 1.3 3 -1.1
v 1.4 2.3 -1.1
v 1.4 2.8 -1.1
v 1.4 2.9 -1.1
v 1.5 2.9 -1.1
v 1.5 3 -1.1
v 1.6 2.3 -1.1
v 1.6 2.8 -1.1
v 1.6 2.9 -1.1
v 0.6 2.2 -1.2
v 0.6 2.9 -1.2
v 0.7 2.3 -1.2
v 0.7 2.8 -1.2
v 0.7 2.9 -1.2
v 1.3 2.3 -1.2
v 1.3 2.8 -1.2
v 1.3 2.9 -1.2
v 1.4 2.2 -1.2
v 1.4 2.9 -1.2
v 0.7 2.3 -1.3
v 0.7 2.8 -1.3
v 0.7 2.9 -1.3
v 0.7 3.4 -1.3
v 1.3 2.3 -1.3
v 1.3 2.8 -1.3
v 1.3 2.9 -1.3
v 1.3 3.4 -1.3
v 0.7 2 -0.9
v 0.9 2 -0.9
v 1.1 2 -0.9
v 1.3 2 -0.9
v 0.7 2 -1.1
v 0.9 2 -1.1
v 1.1 2 -1.1
v 1.3 2 -1.1
v 0.6 2.2 -0.8
v 1.4 2.2 -0.8
v 0.7 2.2 -0.9
v 0.9 2.2 -0.9
v 1.1 2.2 -0.9
v 1.3 2.2 -0.9
v 0.7 2.2 -1.1
v 0.9 2.2 -1.1
v 1.1 2.2 -1.1
v 1.3 2.2 -1.1
v 0.6 2.2 -1.2
v 1.4 2.2 -1.2
v 0.4 2.3 -0.3
v 0.6 2.3 -0.3
v 0.7 2.3 -0.7
v 1.3 2.3 -0.7
v 0.6 2.3 -0.8
v 0.7 2.3 -0.8
v 1.3 2.3 -0.8
v 0.4 2.3 -0.9
v 0.6 2.3 -0.9
v 1.4 2.3 -0.9
v 1.6 2.3 -0.9
v 0.4 2.3 -1.1
v 0.6 2.3 -1.1
v 1.4 2.3 -1.1
v 1.6 2.3 -1.1
v 0.7 2.3 -1.2
v 1.3 2.3 -1.2
v 0.7 2.3 -1.3
v 1.3 2.3 -1.3
v 0.7 2.9 -0.7
v 1.3 2.9 -0.7
v 0.7 2.9 -0.8
v 1.3 2.9 -0.8
v 0.7 2.9 -1.2
v 1.3 2.9 -1.2
v 0.7 2.9 -1.3
v 1.3 2.9 -1.3
v 0.4 2.5 -0.3
v 0.6 2.5 -0.3
v 0.6 2.5 -0.8
v 0.4 2.5 -0.9
v 0.6 2.5 -0.9
v 0.7 2.8 -0.7
v 1.3 2.8 -0.7
v 0.7 2.8 -0.8
v 1.3 2.8 -0.8
v 0.7 2.8 -1.2
v 1.3 2.8 -1.2
v 0.7 2.8 -1.3
v 1.3 2.8 -1.3
v 0.6 2.9 -0.8
v 0.7 2.9 -0.8
v 1.3 2.9 -0.8
v 1.4 2.9 -0.8
v 0.4 2.9 -0.9
v 0.5 2.9 -0.9
v 0.6 2.9 -0.9
v 0.7 2.9 -0.9
v 1.3 2.9 -0.9
v 1.4 2.9 -0.9
v 1.5 2.9 -0.9
v 1.6 2.9 -0.9
v 0.4 2.9 -1.1
v 0.5 2.9 -1.1
v 0.6 2.9 -1.1
v 0.7 2.9 -1.1
v 1.3 2.9 -1.1
v 1.4 2.9 -1.1
v 1.5 2.9 -1.1
v 1.6 2.9 -1.1
v 0.6 2.9 -1.2
v 0.7 2.9 -1.2
v 1.3 2.9 -1.2
v 1.4 2.9 -1.2
v 0.5 3 -0.9
v 0.7 3 -0.9
v 1.3 3 -0.9
v 1.5 3 -0.9
v 0.5 3 -1.1
v 0.7 3 -1.1
v 1.3 3 -1.1
v 1.5 3 -1.1
v 0.7 3.4 -0.7
v 1.3 3.4 -0.7
v 0.7 3.4 -0.8
v 0.9 3.4 -0.8
v 1.1 3.4 -0.8
v 1.3 3.4 -0.8
v 0.7 3.4 -1
v 0.9 3.4 -1
v 1.1 3.4 -1
v 1.3 3.4 -1
v 0.7 3.4 -1.3
v 1.3 3.4 -1.3
v 0.7 3.5 -0.8
v 0.9 3.5 -0.8
v 1.1 3.5 -0.8
v 1.3 3.5 -0.8
v 0.7 3.5 -1
v 0.9 3.5 -1
v 1.1 3.5 -1
v 1.3 3.5 -1

# faces
f 4/2/1 2/2/1 1/2/1
f 5/1/1 3/1/1 2/1/1
f 5/2/1 2/2/1 4/2/1
f 6/1/1 3/1/1 5/1/1
f 7/1/1 3/1/1 6/1/1
f 8/4/1 7/4/1 6/4/1
f 9/4/1 7/4/1 8/4/1
f 12/4/1 11/4/1 10/4/1
f 13/4/1 11/4/1 12/4/1
f 16/4/1 15/4/1 14/4/1
f 17/4/1 15/4/1 16/4/1
f 18/4/1 15/4/1 17/4/1
f 21/4/1 20/4/1 19/4/1
f 22/4/1 15/4/1 18/4/1
f 23/4/1 21/4/1 19/4/1
f 24/4/1 21/4/1 23/4/1
f 25/4/1 15/4/1 22/4/1
f 26/4/1 15/4/1 25/4/1
f 29/1/1 28/1/1 27/1/1
f 30/1/1 28/1/1 29/1/1
f 35/1/1 32/1/1 31/1/1
f 36/1/1 32/1/1 35/1/1
f 37/1/1 34/1/1 33/1/1
f 38/1/1 34/1/1 37/1/1
f 45/1/1 40/1/1 39/1/1
f 45/1/1 41/1/1 40/1/1
f 46/1/1 44/1/1 43/1/1
f 46/1/1 43/1/1 42/1/1
f 47/1/1 45/1/1 39/1/1
f 47/1/1 46/1/1 45/1/1
f 48/1/1 46/1/1 47/1/1
f 49/1/1 46/1/1 48/1/1
f 50/1/1 44/1/1 46/1/1
f 50/1/1 46/1/1 49/1/1
f 51/4/1 49/4/1 48/4/1
f 52/4/1 49/4/1 51/4/1
f 55/1/1 54/1/1 53/1/1
f 56/1/1 54/1/1 55/1/1
f 59/4/1 58/4/1 57/4/1
f 60/4/1 58/4/1 59/4/1
f 61/2/2 62/2/2 63/2/2
f 63/2/2 62/2/2 64/2/2
f 65/1/2 66/1/2 67/1/2
f 67/1/2 66/1/2 68/1/2
f 69/4/2 70/4/2 71/4/2
f 71/4/2 70/4/2 72/4/2
f 73/1/2 74/1/2 75/1/2
f 75/1/2 74/1/2 76/1/2
f 77/1/2 78/1/2 81/1/2
f 81/1/2 78/1/2 82/1/2
f 79/1/2 80/1/2 83/1/2
f 83/1/2 80/1/2 84/1/2
f 85/1/2 86/1/2 91/1/2
f 86/1/2 87/1/2 91/1/2
f 89/1/2 90/1/2 92/1/2
f 88/1/2 89/1/2 92/1/2
f 85/1/2 91/1/2 93/1/2
f 91/1/2 92/1/2 93/1/2
f 93/1/2 92/1/2 94/1/2
f 94/1/2 92/1/2 95/1/2
f 92/1/2 90/1/2 96/1/2
f 95/1/2 92/1/2 96/1/2
f 94/4/2 95/4/2 97/4/2
f 97/4/2 95/4/2 98/4/2
f 99/4/2 100/4/2 101/4/2
f 101/4/2 100/4/2 102/4/2
f 99/4/2 101/4/2 103/4/2
f 102/4/2 100/4/2 104/4/2
f 99/4/2 103/4/2 105/4/2
f 105/4/2 103/4/2 106/4/2
f 104/4/2 100/4/2 107/4/2
f 107/4/2 100/4/2 108/4/2
f 109/4/2 110/4/2 111/4/2
f 111/4/2 110/4/2 112/4/2
f 113/1/2 114/1/2 115/1/2
f 115/1/2 114/1/2 116/1/2
f 115/4/2 116/4/2 117/4/2
f 117/4/2 116/4/2 118/4/2
f 121/2/3 120/2/3 119/2/3
f 122/2/3 120/2/3 121/2/3
f 127/1/3 126/1/3 125/1/3
f 128/1/3 126/1/3 127/1/3
f 129/1/3 127/1/3 125/1/3
f 129/3/3 128/3/3 127/3/3
f 130/1/3 126/1/3 128/1/3
f 130/3/3 128/3/3 129/3/3
f 131/1/3 129/1/3 125/1/3
f 131/1/3 130/1/3 129/1/3
f 132/1/3 126/1/3 130/1/3
f 132/1/3 130/1/3 131/1/3
f 133/1/3 131/1/3 125/1/3
f 133/3/3 132/3/3 131/3/3
f 134/1/3 126/1/3 132/1/3
f 134/3/3 132/3/3 133/3/3
f 135/1/3 124/1/3 123/1/3
f 136/1/3 124/1/3 135/1/3
f 137/1/3 133/1/3 125/1/3
f 137/1/3 134/1/3 133/1/3
f 138/1/3 126/1/3 134/1/3
f 138/1/3 134/1/3 137/1/3
f 143/4/3 140/4/3 139/4/3
f 143/4/3 142/4/3 141/4/3
f 143/4/3 141/4/3 140/4/3
f 144/4/3 142/4/3 143/4/3
f 145/4/3 142/4/3 144/4/3
f 148/4/3 147/4/3 146/4/3
f 149/4/3 147/4/3 148/4/3
f 152/4/3 143/4/3 139/4/3
f 153/4/3 145/4/3 144/4/3
f 154/4/3 145/4/3 153/4/3
f 155/4/3 151/4/3 150/4/3
f 156/4/3 151/4/3 155/4/3
f 157/4/3 154/4/3 153/4/3
f 157/4/3 152/4/3 139/4/3
f 157/4/3 153/4/3 152/4/3
f 158/4/3 154/4/3 157/4/3
f 162/4/3 161/4/3 160/4/3
f 164/1/3 160/1/3 159/1/3
f 165/4/3 163/4/3 162/4/3
f 165/1/3 160/1/3 164/1/3
f 165/4/3 162/4/3 160/4/3
f 166/4/3 163/4/3 165/4/3
f 169/4/3 163/4/3 166/4/3
f 170/4/3 163/4/3 169/4/3
f 171/1/3 168/1/3 167/1/3
f 172/1/3 168/1/3 171/1/3
f 175/1/3 174/1/3 173/1/3
f 176/1/3 174/1/3 175/1/3
f 181/4/3 178/4/3 177/4/3
f 182/4/3 178/4/3 181/4/3
f 182/4/3 181/4/3 180/4/3
f 183/4/3 178/4/3 182/4/3
f 184/1/3 180/1/3 179/1/3
f 185/4/3 182/4/3 180/4/3
f 185/1/3 180/1/3 184/1/3
f 186/4/3 182/4/3 185/4/3
f 187/4/4 188/4/4 189/4/4
f 189/4/4 188/4/4 190/4/4
f 191/4/4 192/4/4 193/4/4
f 193/4/4 192/4/4 194/4/4
f 196/4/4 197/4/4 198/4/4
f 195/1/4 196/1/4 200/1/4
f 198/4/4 199/4/4 201/4/4
f 200/1/4 196/1/4 201/1/4
f 196/4/4 198/4/4 201/4/4
f 201/4/4 199/4/4 202/4/4
f 202/4/4 199/4/4 205/4/4
f 205/4/4 199/4/4 206/4/4
f 203/1/4 204/1/4 207/1/4
f 207/1/4 204/1/4 208/1/4
f 209/1/4 210/1/4 211/1/4
f 211/1/4 210/1/4 212/1/4
f 213/4/4 214/4/4 217/4/4
f 217/4/4 214/4/4 218/4/4
f 216/4/4 217/4/4 218/4/4
f 218/4/4 214/4/4 219/4/4
f 215/1/4 216/1/4 220/1/4
f 216/4/4 218/4/4 221/4/4
f 220/1/4 216/1/4 221/1/4
f 221/4/4 218/4/4 222/4/4
f 223/4/4 224/4/4 225/4/4
f 225/4/4 224/4/4 226/4/4
f 226/4/4 224/4/4 227/4/4
f 223/4/4 225/4/4 228/4/4
f 226/4/4 227/4/4 229/4/4
f 229/4/4 227/4/4 230/4/4
f 223/4/4 228/4/4 231/4/4
f 228/4/4 229/4/4 231/4/4
f 229/4/4 230/4/4 231/4/4
f 231/4/4 230/4/4 232/4/4
f 233/1/4 234/1/4 237/1/4
f 237/1/4 234/1/4 238/1/4
f 235/1/4 236/1/4 239/1/4
f 239/1/4 236/1/4 240/1/4
f 245/1/5 242/1/5 241/1/5
f 246/1/5 242/1/5 245/1/5
f 247/1/5 244/1/5 243/1/5
f 248/1/5 244/1/5 247/1/5
f 251/4/5 250/4/5 249/4/5
f 252/4/5 250/4/5 251/4/5
f 253/4/5 250/4/5 252/4/5
f 254/4/5 250/4/5 253/4/5
f 255/4/5 251/4/5 249/4/5
f 256/4/5 253/4/5 252/4/5
f 257/4/5 253/4/5 256/4/5
f 258/4/5 250/4/5 254/4/5
f 259/4/5 257/4/5 256/4/5
f 259/4/5 258/4/5 257/4/5
f 259/4/5 255/4/5 249/4/5
f 259/4/5 256/4/5 255/4/5
f 260/4/5 250/4/5 258/4/5
f 260/4/5 258/4/5 259/4/5
f 265/2/5 262/2/5 261/2/5
f 266/1/5 264/1/5 263/1/5
f 267/1/5 264/1/5 266/1/5
f 268/2/5 265/2/5 261/2/5
f 269/2/5 265/2/5 268/2/5
f 272/1/5 269/1/5 268/1/5
f 273/1/5 269/1/5 272/1/5
f 274/1/5 271/1/5 270/1/5
f 275/1/5 271/1/5 274/1/5
f 278/1/5 277/1/5 276/1/5
f 279/1/5 277/1/5 278/1/5
f 282/1/5 281/1/5 280/1/5
f 283/1/5 281/1/5 282/1/5
f 286/1/5 285/1/5 284/1/5
f 287/1/5 285/1/5 286/1/5
f 288/2/6 289/2/6 290/2/6
f 288/2/6 290/2/6 291/2/6
f 291/2/6 290/2/6 292/2/6
f 293/1/6 294/1/6 295/1/6
f 295/1/6 294/1/6 296/1/6
f 297/1/6 298/1/6 299/1/6
f 299/1/6 298/1/6 300/1/6
f 301/4/6 302/4/6 307/4/6
f 307/4/6 302/4/6 308/4/6
f 303/4/6 304/4/6 309/4/6
f 309/4/6 304/4/6 310/4/6
f 305/4/6 306/4/6 313/4/6
f 313/4/6 306/4/6 314/4/6
f 311/4/6 312/4/6 319/4/6
f 319/4/6 312/4/6 320/4/6
f 315/4/6 316/4/6 321/4/6
f 321/4/6 316/4/6 322/4/6
f 317/4/6 318/4/6 323/4/6
f 323/4/6 318/4/6 324/4/6
f 325/4/6 326/4/6 329/4/6
f 329/4/6 326/4/6 330/4/6
f 327/4/6 328/4/6 331/4/6
f 331/4/6 328/4/6 332/4/6
f 333/1/6 334/1/6 335/1/6
f 335/1/6 334/1/6 336/1/6
f 336/1/6 334/1/6 337/1/6
f 337/1/6 334/1/6 338/1/6
f 336/1/6 337/1/6 340/1/6
f 340/1/6 337/1/6 341/1/6
f 339/1/6 340/1/6 343/1/6
f 341/1/6 342/1/6 343/1/6
f 340/1/6 341/1/6 343/1/6
f 343/1/6 342/1/6 344/1/6
f 345/4/6 346/4/6 349/4/6
f 349/4/6 346/4/6 350/4/6
f 347/4/6 348/4/6 351/4/6
f 351/4/6 348/4/6 352/4/6
