# MagicaVoxel @ Ephtracy

# group
o 

# material
mtllib 1.mtl
usemtl palette

# normals
vn -1 0 0
vn 1 0 0
vn 0 0 1
vn 0 0 -1
vn 0 -1 0
vn 0 1 0

# texcoords
vt 0.841797 0.5
vt 0.873047 0.5
vt 0.994141 0.5

# verts
v 0.6 2.3 -0.5
v 0.6 2.3 -0.7
v 0.6 2.4 -0.5
v 0.6 2.4 -0.7
v 0.7 2.3 -0.7
v 0.7 2.3 -0.9
v 0.7 2.3 -1
v 0.7 2.3 -1.2
v 0.7 2.4 -0.7
v 0.7 2.4 -0.9
v 0.7 2.4 -1
v 0.7 2.4 -1.2
v 0.7 2.6 -0.9
v 0.7 2.6 -1
v 0.7 2.8 -0.9
v 0.7 2.8 -1
v 0.7 3 -0.9
v 0.7 3 -1
v 0.8 2 -0.9
v 0.8 2 -1
v 0.8 2.2 -0.8
v 0.8 2.2 -0.9
v 0.8 2.2 -1
v 0.8 2.2 -1.1
v 0.8 2.3 -0.5
v 0.8 2.3 -0.7
v 0.8 2.3 -0.8
v 0.8 2.3 -0.9
v 0.8 2.3 -1
v 0.8 2.3 -1.1
v 0.8 2.4 -0.5
v 0.8 2.4 -0.7
v 0.8 2.4 -0.8
v 0.8 2.4 -0.9
v 0.8 2.4 -1
v 0.8 2.4 -1.1
v 0.8 2.6 -0.9
v 0.8 2.6 -1
v 0.8 2.7 -0.8
v 0.8 2.7 -0.9
v 0.8 2.8 -0.8
v 0.8 2.8 -0.9
v 0.8 2.8 -1
v 0.8 2.9 -0.8
v 0.8 2.9 -0.9
v 0.8 2.9 -1
v 0.8 2.9 -1.1
v 1 2 -0.9
v 1 2 -1
v 1 2.2 -0.9
v 1 2.2 -1
v 1.1 2.9 -0.9
v 1.1 2.9 -1
v 1.1 3 -0.9
v 1.1 3 -1
v 0.7 2.3 -0.5
v 0.7 2.3 -0.7
v 0.7 2.4 -0.5
v 0.7 2.4 -0.7
v 0.8 2.3 -0.7
v 0.8 2.3 -0.8
v 0.8 2.3 -1.1
v 0.8 2.3 -1.2
v 0.8 2.4 -0.7
v 0.8 2.4 -0.8
v 0.8 2.4 -1.1
v 0.8 2.4 -1.2
v 0.8 2.9 -0.9
v 0.8 2.9 -1
v 0.8 3 -0.9
v 0.8 3 -1
v 0.9 2 -0.9
v 0.9 2 -1
v 0.9 2.2 -0.9
v 0.9 2.2 -1
v 0.9 2.3 -0.5
v 0.9 2.3 -0.7
v 0.9 2.4 -0.5
v 0.9 2.4 -0.7
v 1.1 2 -0.9
v 1.1 2 -1
v 1.1 2.2 -0.8
v 1.1 2.2 -0.9
v 1.1 2.2 -1
v 1.1 2.2 -1.1
v 1.1 2.3 -0.9
v 1.1 2.3 -1
v 1.1 2.6 -0.9
v 1.1 2.6 -1
v 1.1 2.7 -0.8
v 1.1 2.7 -0.9
v 1.1 2.8 -0.8
v 1.1 2.8 -0.9
v 1.1 2.8 -1
v 1.1 2.9 -0.8
v 1.1 2.9 -0.9
v 1.1 2.9 -1
v 1.1 2.9 -1.1
v 1.2 2.3 -0.9
v 1.2 2.3 -1
v 1.2 2.6 -0.9
v 1.2 2.6 -1
v 1.2 2.8 -0.9
v 1.2 2.8 -1
v 1.2 3 -0.9
v 1.2 3 -1
v 0.6 2.3 -0.5
v 0.6 2.4 -0.5
v 0.7 2.3 -0.5
v 0.7 2.4 -0.5
v 0.8 2.3 -0.5
v 0.8 2.4 -0.5
v 0.9 2.3 -0.5
v 0.9 2.4 -0.5
v 0.7 2.3 -0.7
v 0.7 2.4 -0.7
v 0.8 2.3 -0.7
v 0.8 2.4 -0.7
v 0.8 2.2 -0.8
v 0.8 2.3 -0.8
v 0.8 2.4 -0.8
v 0.8 2.7 -0.8
v 0.8 2.8 -0.8
v 0.8 2.9 -0.8
v 0.9 2.7 -0.8
v 0.9 2.8 -0.8
v 1 2.7 -0.8
v 1 2.8 -0.8
v 1.1 2.2 -0.8
v 1.1 2.7 -0.8
v 1.1 2.8 -0.8
v 1.1 2.9 -0.8
v 0.7 2.4 -0.9
v 0.7 2.6 -0.9
v 0.7 2.8 -0.9
v 0.7 3 -0.9
v 0.8 2 -0.9
v 0.8 2.2 -0.9
v 0.8 2.4 -0.9
v 0.8 2.6 -0.9
v 0.8 2.8 -0.9
v 0.8 2.9 -0.9
v 0.8 3 -0.9
v 0.9 2 -0.9
v 0.9 2.2 -0.9
v 1 2 -0.9
v 1 2.2 -0.9
v 1.1 2 -0.9
v 1.1 2.2 -0.9
v 1.1 2.3 -0.9
v 1.1 2.6 -0.9
v 1.1 2.8 -0.9
v 1.1 2.9 -0.9
v 1.1 3 -0.9
v 1.2 2.3 -0.9
v 1.2 2.6 -0.9
v 1.2 2.8 -0.9
v 1.2 3 -0.9
v 0.6 2.3 -0.7
v 0.6 2.4 -0.7
v 0.7 2.3 -0.7
v 0.7 2.4 -0.7
v 0.8 2.3 -0.7
v 0.8 2.4 -0.7
v 0.9 2.3 -0.7
v 0.9 2.4 -0.7
v 0.7 2.4 -1
v 0.7 2.6 -1
v 0.7 2.8 -1
v 0.7 3 -1
v 0.8 2 -1
v 0.8 2.2 -1
v 0.8 2.4 -1
v 0.8 2.6 -1
v 0.8 2.8 -1
v 0.8 2.9 -1
v 0.8 3 -1
v 0.9 2 -1
v 0.9 2.2 -1
v 1 2 -1
v 1 2.2 -1
v 1.1 2 -1
v 1.1 2.2 -1
v 1.1 2.3 -1
v 1.1 2.6 -1
v 1.1 2.8 -1
v 1.1 2.9 -1
v 1.1 3 -1
v 1.2 2.3 -1
v 1.2 2.6 -1
v 1.2 2.8 -1
v 1.2 3 -1
v 0.8 2.2 -1.1
v 0.8 2.3 -1.1
v 0.8 2.4 -1.1
v 0.8 2.9 -1.1
v 1.1 2.2 -1.1
v 1.1 2.9 -1.1
v 0.7 2.3 -1.2
v 0.7 2.4 -1.2
v 0.8 2.3 -1.2
v 0.8 2.4 -1.2
v 0.8 2 -0.9
v 0.9 2 -0.9
v 1 2 -0.9
v 1.1 2 -0.9
v 0.8 2 -1
v 0.9 2 -1
v 1 2 -1
v 1.1 2 -1
v 0.8 2.2 -0.8
v 1.1 2.2 -0.8
v 0.8 2.2 -0.9
v 0.9 2.2 -0.9
v 1 2.2 -0.9
v 1.1 2.2 -0.9
v 0.8 2.2 -1
v 0.9 2.2 -1
v 1 2.2 -1
v 1.1 2.2 -1
v 0.8 2.2 -1.1
v 1.1 2.2 -1.1
v 0.6 2.3 -0.5
v 0.7 2.3 -0.5
v 0.8 2.3 -0.5
v 0.9 2.3 -0.5
v 0.6 2.3 -0.7
v 0.7 2.3 -0.7
v 0.8 2.3 -0.7
v 0.9 2.3 -0.7
v 0.8 2.3 -0.8
v 0.7 2.3 -0.9
v 0.8 2.3 -0.9
v 1.1 2.3 -0.9
v 1.2 2.3 -0.9
v 0.7 2.3 -1
v 0.8 2.3 -1
v 1.1 2.3 -1
v 1.2 2.3 -1
v 0.8 2.3 -1.1
v 0.7 2.3 -1.2
v 0.8 2.3 -1.2
v 0.7 2.8 -0.9
v 0.8 2.8 -0.9
v 1.1 2.8 -0.9
v 1.2 2.8 -0.9
v 0.7 2.8 -1
v 0.8 2.8 -1
v 1.1 2.8 -1
v 1.2 2.8 -1
v 0.6 2.4 -0.5
v 0.7 2.4 -0.5
v 0.8 2.4 -0.5
v 0.9 2.4 -0.5
v 0.6 2.4 -0.7
v 0.7 2.4 -0.7
v 0.8 2.4 -0.7
v 0.9 2.4 -0.7
v 0.8 2.4 -0.8
v 0.7 2.4 -0.9
v 0.8 2.4 -0.9
v 0.7 2.4 -1
v 0.8 2.4 -1
v 0.8 2.4 -1.1
v 0.7 2.4 -1.2
v 0.8 2.4 -1.2
v 0.7 2.6 -0.9
v 0.8 2.6 -0.9
v 1.1 2.6 -0.9
v 1.2 2.6 -0.9
v 0.7 2.6 -1
v 0.8 2.6 -1
v 1.1 2.6 -1
v 1.2 2.6 -1
v 0.8 2.9 -0.8
v 1.1 2.9 -0.8
v 0.8 2.9 -0.9
v 1.1 2.9 -0.9
v 0.8 2.9 -1
v 1.1 2.9 -1
v 0.8 2.9 -1.1
v 1.1 2.9 -1.1
v 0.7 3 -0.9
v 0.8 3 -0.9
v 1.1 3 -0.9
v 1.2 3 -0.9
v 0.7 3 -1
v 0.8 3 -1
v 1.1 3 -1
v 1.2 3 -1

# faces
f 3/3/1 2/3/1 1/3/1
f 4/3/1 2/3/1 3/3/1
f 9/3/1 6/3/1 5/3/1
f 10/2/1 7/2/1 6/2/1
f 10/3/1 6/3/1 9/3/1
f 11/3/1 8/3/1 7/3/1
f 11/2/1 7/2/1 10/2/1
f 12/3/1 8/3/1 11/3/1
f 13/2/1 11/2/1 10/2/1
f 14/2/1 11/2/1 13/2/1
f 17/3/1 16/3/1 15/3/1
f 18/3/1 16/3/1 17/3/1
f 22/2/1 20/2/1 19/2/1
f 23/2/1 20/2/1 22/2/1
f 27/2/1 22/2/1 21/2/1
f 27/2/1 23/2/1 22/2/1
f 27/2/1 24/2/1 23/2/1
f 28/2/1 24/2/1 27/2/1
f 29/2/1 24/2/1 28/2/1
f 30/2/1 24/2/1 29/2/1
f 31/3/1 26/3/1 25/3/1
f 32/3/1 26/3/1 31/3/1
f 37/2/1 34/2/1 33/2/1
f 38/2/1 36/2/1 35/2/1
f 39/2/1 37/2/1 33/2/1
f 39/2/1 38/2/1 37/2/1
f 40/2/1 38/2/1 39/2/1
f 41/1/1 40/1/1 39/1/1
f 42/2/1 38/2/1 40/2/1
f 42/1/1 40/1/1 41/1/1
f 43/2/1 36/2/1 38/2/1
f 43/2/1 38/2/1 42/2/1
f 44/2/1 42/2/1 41/2/1
f 45/2/1 42/2/1 44/2/1
f 46/2/1 36/2/1 43/2/1
f 47/2/1 36/2/1 46/2/1
f 50/2/1 49/2/1 48/2/1
f 51/2/1 49/2/1 50/2/1
f 54/3/1 53/3/1 52/3/1
f 55/3/1 53/3/1 54/3/1
f 56/3/2 57/3/2 58/3/2
f 58/3/2 57/3/2 59/3/2
f 60/3/2 61/3/2 64/3/2
f 64/3/2 61/3/2 65/3/2
f 62/3/2 63/3/2 66/3/2
f 66/3/2 63/3/2 67/3/2
f 68/3/2 69/3/2 70/3/2
f 70/3/2 69/3/2 71/3/2
f 72/2/2 73/2/2 74/2/2
f 74/2/2 73/2/2 75/2/2
f 76/3/2 77/3/2 78/3/2
f 78/3/2 77/3/2 79/3/2
f 80/2/2 81/2/2 83/2/2
f 83/2/2 81/2/2 84/2/2
f 82/2/2 83/2/2 86/2/2
f 84/2/2 85/2/2 86/2/2
f 83/2/2 84/2/2 86/2/2
f 86/2/2 85/2/2 87/2/2
f 82/2/2 86/2/2 88/2/2
f 87/2/2 85/2/2 89/2/2
f 82/2/2 88/2/2 90/2/2
f 88/2/2 89/2/2 90/2/2
f 90/2/2 89/2/2 91/2/2
f 90/1/2 91/1/2 92/1/2
f 91/2/2 89/2/2 93/2/2
f 92/1/2 91/1/2 93/1/2
f 89/2/2 85/2/2 94/2/2
f 93/2/2 89/2/2 94/2/2
f 92/2/2 93/2/2 95/2/2
f 95/2/2 93/2/2 96/2/2
f 94/2/2 85/2/2 97/2/2
f 97/2/2 85/2/2 98/2/2
f 99/2/2 100/2/2 101/2/2
f 101/2/2 100/2/2 102/2/2
f 103/3/2 104/3/2 105/3/2
f 105/3/2 104/3/2 106/3/2
f 109/3/3 108/3/3 107/3/3
f 110/3/3 108/3/3 109/3/3
f 113/3/3 112/3/3 111/3/3
f 114/3/3 112/3/3 113/3/3
f 117/3/3 116/3/3 115/3/3
f 118/3/3 116/3/3 117/3/3
f 125/2/3 120/2/3 119/2/3
f 125/2/3 121/2/3 120/2/3
f 125/1/3 123/1/3 122/1/3
f 125/2/3 122/2/3 121/2/3
f 126/2/3 124/2/3 123/2/3
f 126/1/3 123/1/3 125/1/3
f 127/2/3 125/2/3 119/2/3
f 127/2/3 126/2/3 125/2/3
f 128/2/3 124/2/3 126/2/3
f 128/2/3 126/2/3 127/2/3
f 129/2/3 127/2/3 119/2/3
f 130/1/3 128/1/3 127/1/3
f 130/2/3 127/2/3 129/2/3
f 131/2/3 124/2/3 128/2/3
f 131/1/3 128/1/3 130/1/3
f 132/2/3 124/2/3 131/2/3
f 139/2/3 134/2/3 133/2/3
f 140/2/3 134/2/3 139/2/3
f 141/3/3 136/3/3 135/3/3
f 142/3/3 136/3/3 141/3/3
f 143/3/3 136/3/3 142/3/3
f 144/2/3 138/2/3 137/2/3
f 145/2/3 138/2/3 144/2/3
f 148/2/3 147/2/3 146/2/3
f 149/2/3 147/2/3 148/2/3
f 155/2/3 151/2/3 150/2/3
f 156/2/3 151/2/3 155/2/3
f 157/3/3 154/3/3 153/3/3
f 157/3/3 153/3/3 152/3/3
f 158/3/3 154/3/3 157/3/3
f 159/3/4 160/3/4 161/3/4
f 161/3/4 160/3/4 162/3/4
f 163/3/4 164/3/4 165/3/4
f 165/3/4 164/3/4 166/3/4
f 167/2/4 168/2/4 173/2/4
f 173/2/4 168/2/4 174/2/4
f 169/3/4 170/3/4 175/3/4
f 175/3/4 170/3/4 176/3/4
f 176/3/4 170/3/4 177/3/4
f 171/2/4 172/2/4 178/2/4
f 178/2/4 172/2/4 179/2/4
f 180/2/4 181/2/4 182/2/4
f 182/2/4 181/2/4 183/2/4
f 184/2/4 185/2/4 189/2/4
f 189/2/4 185/2/4 190/2/4
f 187/3/4 188/3/4 191/3/4
f 186/3/4 187/3/4 191/3/4
f 191/3/4 188/3/4 192/3/4
f 193/2/4 194/2/4 197/2/4
f 195/2/4 196/2/4 197/2/4
f 194/2/4 195/2/4 197/2/4
f 197/2/4 196/2/4 198/2/4
f 199/3/4 200/3/4 201/3/4
f 201/3/4 200/3/4 202/3/4
f 207/2/5 204/2/5 203/2/5
f 208/2/5 204/2/5 207/2/5
f 209/2/5 206/2/5 205/2/5
f 210/2/5 206/2/5 209/2/5
f 213/2/5 212/2/5 211/2/5
f 214/2/5 212/2/5 213/2/5
f 215/2/5 212/2/5 214/2/5
f 216/2/5 212/2/5 215/2/5
f 218/2/5 215/2/5 214/2/5
f 219/2/5 215/2/5 218/2/5
f 221/2/5 218/2/5 217/2/5
f 221/2/5 220/2/5 219/2/5
f 221/2/5 219/2/5 218/2/5
f 222/2/5 220/2/5 221/2/5
f 227/3/5 224/3/5 223/3/5
f 228/3/5 224/3/5 227/3/5
f 229/3/5 226/3/5 225/3/5
f 230/3/5 226/3/5 229/3/5
f 231/3/5 229/3/5 228/3/5
f 232/3/5 231/3/5 228/3/5
f 233/3/5 231/3/5 232/3/5
f 236/2/5 233/2/5 232/2/5
f 237/2/5 233/2/5 236/2/5
f 238/2/5 235/2/5 234/2/5
f 239/2/5 235/2/5 238/2/5
f 240/3/5 237/3/5 236/3/5
f 241/3/5 240/3/5 236/3/5
f 242/3/5 240/3/5 241/3/5
f 247/3/5 244/3/5 243/3/5
f 248/3/5 244/3/5 247/3/5
f 249/3/5 246/3/5 245/3/5
f 250/3/5 246/3/5 249/3/5
f 251/3/6 252/3/6 255/3/6
f 255/3/6 252/3/6 256/3/6
f 253/3/6 254/3/6 257/3/6
f 257/3/6 254/3/6 258/3/6
f 256/3/6 257/3/6 259/3/6
f 256/3/6 259/3/6 260/3/6
f 260/3/6 259/3/6 261/3/6
f 262/3/6 263/3/6 264/3/6
f 262/3/6 264/3/6 265/3/6
f 265/3/6 264/3/6 266/3/6
f 267/2/6 268/2/6 271/2/6
f 271/2/6 268/2/6 272/2/6
f 269/2/6 270/2/6 273/2/6
f 273/2/6 270/2/6 274/2/6
f 275/2/6 276/2/6 277/2/6
f 277/2/6 276/2/6 278/2/6
f 277/2/6 278/2/6 279/2/6
f 279/2/6 278/2/6 280/2/6
f 279/2/6 280/2/6 281/2/6
f 281/2/6 280/2/6 282/2/6
f 283/3/6 284/3/6 287/3/6
f 287/3/6 284/3/6 288/3/6
f 285/3/6 286/3/6 289/3/6
f 289/3/6 286/3/6 290/3/6
