# MagicaVoxel @ Ephtracy

# group
o 

# material
mtllib altar.mtl
usemtl palette

# normals
vn -1 0 0
vn 1 0 0
vn 0 0 1
vn 0 0 -1
vn 0 -1 0
vn 0 1 0

# texcoords
vt 0.693359 0.5
vt 0.697266 0.5
vt 0.705078 0.5

# verts
v 0.2 2 -0.2
v 0.2 2 -3.8
v 0.2 2.3 -0.2
v 0.2 2.3 -3.8
v 0.4 2.3 -0.4
v 0.4 2.3 -3.6
v 0.4 2.4 -0.4
v 0.4 2.4 -3.6
v 0.6 2.4 -0.6
v 0.6 2.4 -1.2
v 0.6 2.4 -2.8
v 0.6 2.4 -3.4
v 0.6 3.5 -0.6
v 0.6 3.5 -1.2
v 0.6 3.5 -2.8
v 0.6 3.5 -3.4
v 0.7 2.4 -1.2
v 0.7 2.4 -2.8
v 0.7 3 -1.2
v 0.7 3 -2.8
v 0.7 3.5 -0.7
v 0.7 3.5 -1.1
v 0.7 3.5 -2.9
v 0.7 3.5 -3.3
v 0.7 3.6 -0.7
v 0.7 3.6 -1.1
v 0.7 3.6 -2.9
v 0.7 3.6 -3.3
v 1.4 2.4 -1.4
v 1.4 2.4 -2.6
v 1.4 2.7 -1.4
v 1.4 2.7 -2.6
v 1.4 2.8 -1.4
v 1.4 2.8 -2.6
v 1.6 2.8 -1.6
v 1.6 2.8 -2.4
v 1.6 2.9 -1.6
v 1.6 2.9 -2.4
v 1.6 3 -1.6
v 1.6 3 -2.4
v 2.8 2.4 -0.6
v 2.8 2.4 -0.7
v 2.8 2.4 -1
v 2.8 2.4 -1.2
v 2.8 2.4 -2.8
v 2.8 2.4 -3
v 2.8 2.4 -3.3
v 2.8 2.4 -3.4
v 2.8 3 -0.7
v 2.8 3 -1
v 2.8 3 -3
v 2.8 3 -3.3
v 2.8 3.5 -0.6
v 2.8 3.5 -1.2
v 2.8 3.5 -2.8
v 2.8 3.5 -3.4
v 2.9 3.5 -0.7
v 2.9 3.5 -1.1
v 2.9 3.5 -2.9
v 2.9 3.5 -3.3
v 2.9 3.6 -0.7
v 2.9 3.6 -1.1
v 2.9 3.6 -2.9
v 2.9 3.6 -3.3
v 3 2.4 -1.2
v 3 2.4 -2.8
v 3 3 -1.2
v 3 3 -2.8
v 1 2.4 -1.2
v 1 2.4 -2.8
v 1 3 -1.2
v 1 3 -2.8
v 1.1 3.5 -0.7
v 1.1 3.5 -1.1
v 1.1 3.5 -2.9
v 1.1 3.5 -3.3
v 1.1 3.6 -0.7
v 1.1 3.6 -1.1
v 1.1 3.6 -2.9
v 1.1 3.6 -3.3
v 1.2 2.4 -0.6
v 1.2 2.4 -0.7
v 1.2 2.4 -1
v 1.2 2.4 -1.2
v 1.2 2.4 -2.8
v 1.2 2.4 -3
v 1.2 2.4 -3.3
v 1.2 2.4 -3.4
v 1.2 3 -0.7
v 1.2 3 -1
v 1.2 3 -3
v 1.2 3 -3.3
v 1.2 3.5 -0.6
v 1.2 3.5 -1.2
v 1.2 3.5 -2.8
v 1.2 3.5 -3.4
v 2.4 2.8 -1.6
v 2.4 2.8 -2.4
v 2.4 2.9 -1.6
v 2.4 2.9 -2.4
v 2.4 3 -1.6
v 2.4 3 -2.4
v 2.6 2.4 -1.4
v 2.6 2.4 -2.6
v 2.6 2.7 -1.4
v 2.6 2.7 -2.6
v 2.6 2.8 -1.4
v 2.6 2.8 -2.6
v 3.3 2.4 -1.2
v 3.3 2.4 -2.8
v 3.3 3 -1.2
v 3.3 3 -2.8
v 3.3 3.5 -0.7
v 3.3 3.5 -1.1
v 3.3 3.5 -2.9
v 3.3 3.5 -3.3
v 3.3 3.6 -0.7
v 3.3 3.6 -1.1
v 3.3 3.6 -2.9
v 3.3 3.6 -3.3
v 3.4 2.4 -0.6
v 3.4 2.4 -1.2
v 3.4 2.4 -2.8
v 3.4 2.4 -3.4
v 3.4 3.5 -0.6
v 3.4 3.5 -1.2
v 3.4 3.5 -2.8
v 3.4 3.5 -3.4
v 3.6 2.3 -0.4
v 3.6 2.3 -3.6
v 3.6 2.4 -0.4
v 3.6 2.4 -3.6
v 3.8 2 -0.2
v 3.8 2 -3.8
v 3.8 2.3 -0.2
v 3.8 2.3 -3.8
v 0.2 2 -0.2
v 0.2 2.3 -0.2
v 3.8 2 -0.2
v 3.8 2.3 -0.2
v 0.4 2.3 -0.4
v 0.4 2.4 -0.4
v 3.6 2.3 -0.4
v 3.6 2.4 -0.4
v 0.6 2.4 -0.6
v 0.6 3.5 -0.6
v 1.2 2.4 -0.6
v 1.2 3.5 -0.6
v 2.8 2.4 -0.6
v 2.8 3.5 -0.6
v 3.4 2.4 -0.6
v 3.4 3.5 -0.6
v 0.7 3.5 -0.7
v 0.7 3.6 -0.7
v 1.1 3.5 -0.7
v 1.1 3.6 -0.7
v 1.2 2.4 -0.7
v 1.2 3 -0.7
v 2.8 2.4 -0.7
v 2.8 3 -0.7
v 2.9 3.5 -0.7
v 2.9 3.6 -0.7
v 3.3 3.5 -0.7
v 3.3 3.6 -0.7
v 1.4 2.4 -1.4
v 1.4 2.7 -1.4
v 1.4 2.8 -1.4
v 2.6 2.4 -1.4
v 2.6 2.7 -1.4
v 2.6 2.8 -1.4
v 1.6 2.8 -1.6
v 1.6 2.9 -1.6
v 1.6 3 -1.6
v 2.4 2.8 -1.6
v 2.4 2.9 -1.6
v 2.4 3 -1.6
v 0.6 2.4 -2.8
v 0.6 3.5 -2.8
v 0.7 2.4 -2.8
v 0.7 3 -2.8
v 1 2.4 -2.8
v 1 3 -2.8
v 1.2 2.4 -2.8
v 1.2 3.5 -2.8
v 2.8 2.4 -2.8
v 2.8 3.5 -2.8
v 3 2.4 -2.8
v 3 3 -2.8
v 3.3 2.4 -2.8
v 3.3 3 -2.8
v 3.4 2.4 -2.8
v 3.4 3.5 -2.8
v 0.7 3.5 -2.9
v 0.7 3.6 -2.9
v 1.1 3.5 -2.9
v 1.1 3.6 -2.9
v 2.9 3.5 -2.9
v 2.9 3.6 -2.9
v 3.3 3.5 -2.9
v 3.3 3.6 -2.9
v 1.2 2.4 -3
v 1.2 3 -3
v 2.8 2.4 -3
v 2.8 3 -3
v 1.2 2.4 -1
v 1.2 3 -1
v 2.8 2.4 -1
v 2.8 3 -1
v 0.7 3.5 -1.1
v 0.7 3.6 -1.1
v 1.1 3.5 -1.1
v 1.1 3.6 -1.1
v 2.9 3.5 -1.1
v 2.9 3.6 -1.1
v 3.3 3.5 -1.1
v 3.3 3.6 -1.1
v 0.6 2.4 -1.2
v 0.6 3.5 -1.2
v 0.7 2.4 -1.2
v 0.7 3 -1.2
v 1 2.4 -1.2
v 1 3 -1.2
v 1.2 2.4 -1.2
v 1.2 3.5 -1.2
v 2.8 2.4 -1.2
v 2.8 3.5 -1.2
v 3 2.4 -1.2
v 3 3 -1.2
v 3.3 2.4 -1.2
v 3.3 3 -1.2
v 3.4 2.4 -1.2
v 3.4 3.5 -1.2
v 1.6 2.8 -2.4
v 1.6 2.9 -2.4
v 1.6 3 -2.4
v 2.4 2.8 -2.4
v 2.4 2.9 -2.4
v 2.4 3 -2.4
v 1.4 2.4 -2.6
v 1.4 2.7 -2.6
v 1.4 2.8 -2.6
v 2.6 2.4 -2.6
v 2.6 2.7 -2.6
v 2.6 2.8 -2.6
v 0.7 3.5 -3.3
v 0.7 3.6 -3.3
v 1.1 3.5 -3.3
v 1.1 3.6 -3.3
v 1.2 2.4 -3.3
v 1.2 3 -3.3
v 2.8 2.4 -3.3
v 2.8 3 -3.3
v 2.9 3.5 -3.3
v 2.9 3.6 -3.3
v 3.3 3.5 -3.3
v 3.3 3.6 -3.3
v 0.6 2.4 -3.4
v 0.6 3.5 -3.4
v 1.2 2.4 -3.4
v 1.2 3.5 -3.4
v 2.8 2.4 -3.4
v 2.8 3.5 -3.4
v 3.4 2.4 -3.4
v 3.4 3.5 -3.4
v 0.4 2.3 -3.6
v 0.4 2.4 -3.6
v 3.6 2.3 -3.6
v 3.6 2.4 -3.6
v 0.2 2 -3.8
v 0.2 2.3 -3.8
v 3.8 2 -3.8
v 3.8 2.3 -3.8
v 0.2 2 -0.2
v 3.8 2 -0.2
v 0.2 2 -3.8
v 3.8 2 -3.8
v 0.2 2.3 -0.2
v 3.8 2.3 -0.2
v 0.4 2.3 -0.4
v 3.6 2.3 -0.4
v 0.4 2.3 -3.6
v 3.6 2.3 -3.6
v 0.2 2.3 -3.8
v 3.8 2.3 -3.8
v 0.4 2.4 -0.4
v 3.6 2.4 -0.4
v 0.6 2.4 -0.6
v 1.2 2.4 -0.6
v 2.8 2.4 -0.6
v 3.4 2.4 -0.6
v 1.2 2.4 -0.7
v 2.8 2.4 -0.7
v 1.2 2.4 -1
v 2.8 2.4 -1
v 0.6 2.4 -1.2
v 0.7 2.4 -1.2
v 1 2.4 -1.2
v 1.2 2.4 -1.2
v 2.8 2.4 -1.2
v 3 2.4 -1.2
v 3.3 2.4 -1.2
v 3.4 2.4 -1.2
v 1.4 2.4 -1.4
v 2.6 2.4 -1.4
v 1.4 2.4 -2.6
v 2.6 2.4 -2.6
v 0.6 2.4 -2.8
v 0.7 2.4 -2.8
v 1 2.4 -2.8
v 1.2 2.4 -2.8
v 2.8 2.4 -2.8
v 3 2.4 -2.8
v 3.3 2.4 -2.8
v 3.4 2.4 -2.8
v 1.2 2.4 -3
v 2.8 2.4 -3
v 1.2 2.4 -3.3
v 2.8 2.4 -3.3
v 0.6 2.4 -3.4
v 1.2 2.4 -3.4
v 2.8 2.4 -3.4
v 3.4 2.4 -3.4
v 0.4 2.4 -3.6
v 3.6 2.4 -3.6
v 1.4 2.8 -1.4
v 2.6 2.8 -1.4
v 1.6 2.8 -1.6
v 2.4 2.8 -1.6
v 1.6 2.8 -2.4
v 2.4 2.8 -2.4
v 1.4 2.8 -2.6
v 2.6 2.8 -2.6
v 1.2 3 -0.7
v 2.8 3 -0.7
v 1.2 3 -1
v 2.8 3 -1
v 0.7 3 -1.2
v 1 3 -1.2
v 3 3 -1.2
v 3.3 3 -1.2
v 1.6 3 -1.6
v 2.4 3 -1.6
v 1.6 3 -2.4
v 2.4 3 -2.4
v 0.7 3 -2.8
v 1 3 -2.8
v 3 3 -2.8
v 3.3 3 -2.8
v 1.2 3 -3
v 2.8 3 -3
v 1.2 3 -3.3
v 2.8 3 -3.3
v 0.6 3.5 -0.6
v 1.2 3.5 -0.6
v 2.8 3.5 -0.6
v 3.4 3.5 -0.6
v 0.7 3.5 -0.7
v 1.1 3.5 -0.7
v 2.9 3.5 -0.7
v 3.3 3.5 -0.7
v 0.7 3.5 -1.1
v 1.1 3.5 -1.1
v 2.9 3.5 -1.1
v 3.3 3.5 -1.1
v 0.6 3.5 -1.2
v 1.2 3.5 -1.2
v 2.8 3.5 -1.2
v 3.4 3.5 -1.2
v 0.6 3.5 -2.8
v 1.2 3.5 -2.8
v 2.8 3.5 -2.8
v 3.4 3.5 -2.8
v 0.7 3.5 -2.9
v 1.1 3.5 -2.9
v 2.9 3.5 -2.9
v 3.3 3.5 -2.9
v 0.7 3.5 -3.3
v 1.1 3.5 -3.3
v 2.9 3.5 -3.3
v 3.3 3.5 -3.3
v 0.6 3.5 -3.4
v 1.2 3.5 -3.4
v 2.8 3.5 -3.4
v 3.4 3.5 -3.4
v 0.7 3.6 -0.7
v 1.1 3.6 -0.7
v 2.9 3.6 -0.7
v 3.3 3.6 -0.7
v 0.7 3.6 -1.1
v 1.1 3.6 -1.1
v 2.9 3.6 -1.1
v 3.3 3.6 -1.1
v 0.7 3.6 -2.9
v 1.1 3.6 -2.9
v 2.9 3.6 -2.9
v 3.3 3.6 -2.9
v 0.7 3.6 -3.3
v 1.1 3.6 -3.3
v 2.9 3.6 -3.3
v 3.3 3.6 -3.3

# faces
f 3/2/1 2/2/1 1/2/1
f 4/2/1 2/2/1 3/2/1
f 7/1/1 6/1/1 5/1/1
f 8/1/1 6/1/1 7/1/1
f 13/2/1 10/2/1 9/2/1
f 14/2/1 10/2/1 13/2/1
f 15/2/1 12/2/1 11/2/1
f 16/2/1 12/2/1 15/2/1
f 19/1/1 18/1/1 17/1/1
f 20/1/1 18/1/1 19/1/1
f 25/1/1 22/1/1 21/1/1
f 26/1/1 22/1/1 25/1/1
f 27/1/1 24/1/1 23/1/1
f 28/1/1 24/1/1 27/1/1
f 31/1/1 30/1/1 29/1/1
f 32/1/1 30/1/1 31/1/1
f 33/2/1 32/2/1 31/2/1
f 34/2/1 32/2/1 33/2/1
f 37/1/1 36/1/1 35/1/1
f 38/1/1 36/1/1 37/1/1
f 39/3/1 38/3/1 37/3/1
f 40/3/1 38/3/1 39/3/1
f 49/2/1 42/2/1 41/2/1
f 50/2/1 44/2/1 43/2/1
f 51/2/1 46/2/1 45/2/1
f 52/2/1 48/2/1 47/2/1
f 53/2/1 49/2/1 41/2/1
f 53/2/1 50/2/1 49/2/1
f 54/2/1 44/2/1 50/2/1
f 54/2/1 50/2/1 53/2/1
f 55/2/1 51/2/1 45/2/1
f 55/2/1 52/2/1 51/2/1
f 56/2/1 48/2/1 52/2/1
f 56/2/1 52/2/1 55/2/1
f 61/1/1 58/1/1 57/1/1
f 62/1/1 58/1/1 61/1/1
f 63/1/1 60/1/1 59/1/1
f 64/1/1 60/1/1 63/1/1
f 67/1/1 66/1/1 65/1/1
f 68/1/1 66/1/1 67/1/1
f 69/1/2 70/1/2 71/1/2
f 71/1/2 70/1/2 72/1/2
f 73/1/2 74/1/2 77/1/2
f 77/1/2 74/1/2 78/1/2
f 75/1/2 76/1/2 79/1/2
f 79/1/2 76/1/2 80/1/2
f 81/2/2 82/2/2 89/2/2
f 83/2/2 84/2/2 90/2/2
f 85/2/2 86/2/2 91/2/2
f 87/2/2 88/2/2 92/2/2
f 81/2/2 89/2/2 93/2/2
f 89/2/2 90/2/2 93/2/2
f 90/2/2 84/2/2 94/2/2
f 93/2/2 90/2/2 94/2/2
f 85/2/2 91/2/2 95/2/2
f 91/2/2 92/2/2 95/2/2
f 92/2/2 88/2/2 96/2/2
f 95/2/2 92/2/2 96/2/2
f 97/1/2 98/1/2 99/1/2
f 99/1/2 98/1/2 100/1/2
f 99/3/2 100/3/2 101/3/2
f 101/3/2 100/3/2 102/3/2
f 103/1/2 104/1/2 105/1/2
f 105/1/2 104/1/2 106/1/2
f 105/2/2 106/2/2 107/2/2
f 107/2/2 106/2/2 108/2/2
f 109/1/2 110/1/2 111/1/2
f 111/1/2 110/1/2 112/1/2
f 113/1/2 114/1/2 117/1/2
f 117/1/2 114/1/2 118/1/2
f 115/1/2 116/1/2 119/1/2
f 119/1/2 116/1/2 120/1/2
f 121/2/2 122/2/2 125/2/2
f 125/2/2 122/2/2 126/2/2
f 123/2/2 124/2/2 127/2/2
f 127/2/2 124/2/2 128/2/2
f 129/1/2 130/1/2 131/1/2
f 131/1/2 130/1/2 132/1/2
f 133/2/2 134/2/2 135/2/2
f 135/2/2 134/2/2 136/2/2
f 139/2/3 138/2/3 137/2/3
f 140/2/3 138/2/3 139/2/3
f 143/1/3 142/1/3 141/1/3
f 144/1/3 142/1/3 143/1/3
f 147/2/3 146/2/3 145/2/3
f 148/2/3 146/2/3 147/2/3
f 151/2/3 150/2/3 149/2/3
f 152/2/3 150/2/3 151/2/3
f 155/1/3 154/1/3 153/1/3
f 156/1/3 154/1/3 155/1/3
f 159/1/3 158/1/3 157/1/3
f 160/1/3 158/1/3 159/1/3
f 163/1/3 162/1/3 161/1/3
f 164/1/3 162/1/3 163/1/3
f 168/1/3 166/1/3 165/1/3
f 169/2/3 167/2/3 166/2/3
f 169/1/3 166/1/3 168/1/3
f 170/2/3 167/2/3 169/2/3
f 174/1/3 172/1/3 171/1/3
f 175/3/3 173/3/3 172/3/3
f 175/1/3 172/1/3 174/1/3
f 176/3/3 173/3/3 175/3/3
f 179/2/3 178/2/3 177/2/3
f 180/2/3 178/2/3 179/2/3
f 182/2/3 178/2/3 180/2/3
f 183/2/3 182/2/3 181/2/3
f 184/2/3 178/2/3 182/2/3
f 184/2/3 182/2/3 183/2/3
f 187/2/3 186/2/3 185/2/3
f 188/2/3 186/2/3 187/2/3
f 190/2/3 186/2/3 188/2/3
f 191/2/3 190/2/3 189/2/3
f 192/2/3 186/2/3 190/2/3
f 192/2/3 190/2/3 191/2/3
f 195/1/3 194/1/3 193/1/3
f 196/1/3 194/1/3 195/1/3
f 199/1/3 198/1/3 197/1/3
f 200/1/3 198/1/3 199/1/3
f 203/1/3 202/1/3 201/1/3
f 204/1/3 202/1/3 203/1/3
f 205/1/4 206/1/4 207/1/4
f 207/1/4 206/1/4 208/1/4
f 209/1/4 210/1/4 211/1/4
f 211/1/4 210/1/4 212/1/4
f 213/1/4 214/1/4 215/1/4
f 215/1/4 214/1/4 216/1/4
f 217/2/4 218/2/4 219/2/4
f 219/2/4 218/2/4 220/2/4
f 220/2/4 218/2/4 222/2/4
f 221/2/4 222/2/4 223/2/4
f 222/2/4 218/2/4 224/2/4
f 223/2/4 222/2/4 224/2/4
f 225/2/4 226/2/4 227/2/4
f 227/2/4 226/2/4 228/2/4
f 228/2/4 226/2/4 230/2/4
f 229/2/4 230/2/4 231/2/4
f 230/2/4 226/2/4 232/2/4
f 231/2/4 230/2/4 232/2/4
f 233/1/4 234/1/4 236/1/4
f 234/3/4 235/3/4 237/3/4
f 236/1/4 234/1/4 237/1/4
f 237/3/4 235/3/4 238/3/4
f 239/1/4 240/1/4 242/1/4
f 240/2/4 241/2/4 243/2/4
f 242/1/4 240/1/4 243/1/4
f 243/2/4 241/2/4 244/2/4
f 245/1/4 246/1/4 247/1/4
f 247/1/4 246/1/4 248/1/4
f 249/1/4 250/1/4 251/1/4
f 251/1/4 250/1/4 252/1/4
f 253/1/4 254/1/4 255/1/4
f 255/1/4 254/1/4 256/1/4
f 257/2/4 258/2/4 259/2/4
f 259/2/4 258/2/4 260/2/4
f 261/2/4 262/2/4 263/2/4
f 263/2/4 262/2/4 264/2/4
f 265/1/4 266/1/4 267/1/4
f 267/1/4 266/1/4 268/1/4
f 269/2/4 270/2/4 271/2/4
f 271/2/4 270/2/4 272/2/4
f 275/2/5 274/2/5 273/2/5
f 276/2/5 274/2/5 275/2/5
f 277/2/6 278/2/6 279/2/6
f 279/2/6 278/2/6 280/2/6
f 277/2/6 279/2/6 281/2/6
f 280/2/6 278/2/6 282/2/6
f 277/2/6 281/2/6 283/2/6
f 281/2/6 282/2/6 283/2/6
f 282/2/6 278/2/6 284/2/6
f 283/2/6 282/2/6 284/2/6
f 285/1/6 286/1/6 287/1/6
f 287/1/6 286/1/6 288/1/6
f 288/1/6 286/1/6 289/1/6
f 289/1/6 286/1/6 290/1/6
f 288/1/6 289/1/6 291/1/6
f 291/1/6 289/1/6 292/1/6
f 285/1/6 287/1/6 295/1/6
f 293/2/6 294/2/6 298/2/6
f 298/2/6 294/2/6 299/2/6
f 290/1/6 286/1/6 302/1/6
f 299/2/6 300/2/6 303/2/6
f 298/2/6 299/2/6 303/2/6
f 297/2/6 298/2/6 303/2/6
f 303/2/6 300/2/6 304/2/6
f 297/2/6 303/2/6 305/2/6
f 304/2/6 300/2/6 306/2/6
f 295/1/6 296/1/6 307/1/6
f 285/1/6 295/1/6 307/1/6
f 307/1/6 296/1/6 308/1/6
f 305/2/6 306/2/6 309/2/6
f 297/2/6 305/2/6 309/2/6
f 309/2/6 306/2/6 310/2/6
f 306/2/6 300/2/6 311/2/6
f 310/2/6 306/2/6 311/2/6
f 311/2/6 300/2/6 312/2/6
f 301/1/6 302/1/6 313/1/6
f 302/1/6 286/1/6 314/1/6
f 313/1/6 302/1/6 314/1/6
f 310/2/6 311/2/6 315/2/6
f 315/2/6 311/2/6 316/2/6
f 285/1/6 307/1/6 319/1/6
f 317/1/6 318/1/6 320/1/6
f 320/1/6 318/1/6 321/1/6
f 314/1/6 286/1/6 322/1/6
f 320/1/6 321/1/6 323/1/6
f 321/1/6 322/1/6 323/1/6
f 285/1/6 319/1/6 323/1/6
f 319/1/6 320/1/6 323/1/6
f 322/1/6 286/1/6 324/1/6
f 323/1/6 322/1/6 324/1/6
f 325/2/6 326/2/6 327/2/6
f 327/2/6 326/2/6 328/2/6
f 325/2/6 327/2/6 329/2/6
f 328/2/6 326/2/6 330/2/6
f 325/2/6 329/2/6 331/2/6
f 329/2/6 330/2/6 331/2/6
f 330/2/6 326/2/6 332/2/6
f 331/2/6 330/2/6 332/2/6
f 333/1/6 334/1/6 335/1/6
f 335/1/6 334/1/6 336/1/6
f 341/3/6 342/3/6 343/3/6
f 343/3/6 342/3/6 344/3/6
f 337/1/6 338/1/6 345/1/6
f 345/1/6 338/1/6 346/1/6
f 339/1/6 340/1/6 347/1/6
f 347/1/6 340/1/6 348/1/6
f 349/1/6 350/1/6 351/1/6
f 351/1/6 350/1/6 352/1/6
f 353/2/6 354/2/6 357/2/6
f 357/2/6 354/2/6 358/2/6
f 355/2/6 356/2/6 359/2/6
f 359/2/6 356/2/6 360/2/6
f 353/2/6 357/2/6 361/2/6
f 358/2/6 354/2/6 362/2/6
f 355/2/6 359/2/6 363/2/6
f 360/2/6 356/2/6 364/2/6
f 353/2/6 361/2/6 365/2/6
f 361/2/6 362/2/6 365/2/6
f 362/2/6 354/2/6 366/2/6
f 365/2/6 362/2/6 366/2/6
f 363/2/6 364/2/6 367/2/6
f 355/2/6 363/2/6 367/2/6
f 364/2/6 356/2/6 368/2/6
f 367/2/6 364/2/6 368/2/6
f 369/2/6 370/2/6 373/2/6
f 373/2/6 370/2/6 374/2/6
f 371/2/6 372/2/6 375/2/6
f 375/2/6 372/2/6 376/2/6
f 369/2/6 373/2/6 377/2/6
f 374/2/6 370/2/6 378/2/6
f 371/2/6 375/2/6 379/2/6
f 376/2/6 372/2/6 380/2/6
f 369/2/6 377/2/6 381/2/6
f 377/2/6 378/2/6 381/2/6
f 378/2/6 370/2/6 382/2/6
f 381/2/6 378/2/6 382/2/6
f 379/2/6 380/2/6 383/2/6
f 371/2/6 379/2/6 383/2/6
f 380/2/6 372/2/6 384/2/6
f 383/2/6 380/2/6 384/2/6
f 385/1/6 386/1/6 389/1/6
f 389/1/6 386/1/6 390/1/6
f 387/1/6 388/1/6 391/1/6
f 391/1/6 388/1/6 392/1/6
f 393/1/6 394/1/6 397/1/6
f 397/1/6 394/1/6 398/1/6
f 395/1/6 396/1/6 399/1/6
f 399/1/6 396/1/6 400/1/6
