# MagicaVoxel @ Ephtracy

# group
o 

# material
mtllib teleport.mtl
usemtl palette

# normals
vn -1 0 0
vn 1 0 0
vn 0 0 1
vn 0 0 -1
vn 0 -1 0
vn 0 1 0

# texcoords
vt 0.818359 0.5
vt 0.880859 0.5
vt 0.974609 0.5

# verts
v 0 2 0
v 0 2 -4
v 0 2.1 0
v 0 2.1 -4
v 0.2 2.1 -0.2
v 0.2 2.1 -3.8
v 0.2 2.2 -0.2
v 0.2 2.2 -3.8
v 0.8 2.1 -1.1
v 0.8 2.1 -2.3
v 0.8 2.2 -1.1
v 0.8 2.2 -2.3
v 0.9 2.1 -2.3
v 0.9 2.1 -2.5
v 0.9 2.2 -2.3
v 0.9 2.2 -2.5
v 1 2.1 -0.9
v 1 2.1 -1.1
v 1 2.2 -0.9
v 1 2.2 -1.1
v 1.8 2.1 -3
v 1.8 2.1 -3.4
v 1.8 2.2 -3
v 1.8 2.2 -3.4
v 2 2.1 -0.4
v 2 2.1 -0.9
v 2 2.2 -0.4
v 2 2.2 -0.9
v 2.1 2.1 -2.6
v 2.1 2.1 -3
v 2.1 2.2 -2.6
v 2.1 2.2 -3
v 2.9 2.1 -0.4
v 2.9 2.1 -0.9
v 2.9 2.2 -0.4
v 2.9 2.2 -0.9
v 3.1 2.1 -1.7
v 3.1 2.1 -2.2
v 3.1 2.1 -2.6
v 3.1 2.1 -2.8
v 3.1 2.2 -1.7
v 3.1 2.2 -2.2
v 3.1 2.2 -2.6
v 3.1 2.2 -2.8
v 3.4 2.1 -2.8
v 3.4 2.1 -3.6
v 3.4 2.2 -2.8
v 3.4 2.2 -3.6
v 3.5 2.1 -1.2
v 3.5 2.1 -1.7
v 3.5 2.2 -1.2
v 3.5 2.2 -1.7
v 0.4 2.1 -2
v 0.4 2.1 -2.5
v 0.4 2.2 -2
v 0.4 2.2 -2.5
v 0.5 2.1 -1.6
v 0.5 2.1 -2
v 0.5 2.2 -1.6
v 0.5 2.2 -2
v 0.6 2.1 -0.9
v 0.6 2.1 -1.6
v 0.6 2.2 -0.9
v 0.6 2.2 -1.6
v 0.9 2.1 -0.4
v 0.9 2.1 -0.8
v 0.9 2.1 -3
v 0.9 2.1 -3.4
v 0.9 2.2 -0.4
v 0.9 2.2 -0.8
v 0.9 2.2 -3
v 0.9 2.2 -3.4
v 1.3 2.1 -2.6
v 1.3 2.1 -3
v 1.3 2.2 -2.6
v 1.3 2.2 -3
v 1.4 2.1 -0.8
v 1.4 2.1 -0.9
v 1.4 2.1 -1.6
v 1.4 2.1 -2.2
v 1.4 2.2 -0.8
v 1.4 2.2 -0.9
v 1.4 2.2 -1.6
v 1.4 2.2 -2.2
v 2.3 2.1 -0.7
v 2.3 2.1 -0.9
v 2.3 2.2 -0.7
v 2.3 2.2 -0.9
v 2.6 2.1 -0.4
v 2.6 2.1 -0.7
v 2.6 2.1 -1.2
v 2.6 2.1 -1.6
v 2.6 2.2 -0.4
v 2.6 2.2 -0.7
v 2.6 2.2 -1.2
v 2.6 2.2 -1.6
v 2.9 2.1 -2.6
v 2.9 2.1 -3.2
v 2.9 2.2 -2.6
v 2.9 2.2 -3.2
v 3.1 2.1 -3.2
v 3.1 2.1 -3.6
v 3.1 2.2 -3.2
v 3.1 2.2 -3.6
v 3.8 2.1 -0.2
v 3.8 2.1 -3.8
v 3.8 2.2 -0.2
v 3.8 2.2 -3.8
v 4 2 0
v 4 2 -4
v 4 2.1 0
v 4 2.1 -4
v 0 2 0
v 0 2.1 0
v 4 2 0
v 4 2.1 0
v 0.2 2.1 -0.2
v 0.2 2.2 -0.2
v 3.8 2.1 -0.2
v 3.8 2.2 -0.2
v 0.9 2.1 -0.8
v 0.9 2.2 -0.8
v 1.4 2.1 -0.8
v 1.4 2.2 -0.8
v 1.4 2.1 -0.9
v 1.4 2.2 -0.9
v 2 2.1 -0.9
v 2 2.2 -0.9
v 2.3 2.1 -0.9
v 2.3 2.2 -0.9
v 2.9 2.1 -0.9
v 2.9 2.2 -0.9
v 0.8 2.1 -1.1
v 0.8 2.2 -1.1
v 1 2.1 -1.1
v 1 2.2 -1.1
v 3.1 2.1 -1.7
v 3.1 2.2 -1.7
v 3.5 2.1 -1.7
v 3.5 2.2 -1.7
v 1.4 2.1 -2.2
v 1.4 2.2 -2.2
v 3.1 2.1 -2.2
v 3.1 2.2 -2.2
v 0.4 2.1 -2.5
v 0.4 2.2 -2.5
v 0.9 2.1 -2.5
v 0.9 2.2 -2.5
v 1.8 2.1 -3
v 1.8 2.2 -3
v 2.1 2.1 -3
v 2.1 2.2 -3
v 2.9 2.1 -3.2
v 2.9 2.2 -3.2
v 3.1 2.1 -3.2
v 3.1 2.2 -3.2
v 0.9 2.1 -3.4
v 0.9 2.2 -3.4
v 1.8 2.1 -3.4
v 1.8 2.2 -3.4
v 3.1 2.1 -3.6
v 3.1 2.2 -3.6
v 3.4 2.1 -3.6
v 3.4 2.2 -3.6
v 0.9 2.1 -0.4
v 0.9 2.2 -0.4
v 2 2.1 -0.4
v 2 2.2 -0.4
v 2.6 2.1 -0.4
v 2.6 2.2 -0.4
v 2.9 2.1 -0.4
v 2.9 2.2 -0.4
v 2.3 2.1 -0.7
v 2.3 2.2 -0.7
v 2.6 2.1 -0.7
v 2.6 2.2 -0.7
v 0.6 2.1 -0.9
v 0.6 2.2 -0.9
v 1 2.1 -0.9
v 1 2.2 -0.9
v 2.6 2.1 -1.2
v 2.6 2.2 -1.2
v 3.5 2.1 -1.2
v 3.5 2.2 -1.2
v 0.5 2.1 -1.6
v 0.5 2.2 -1.6
v 0.6 2.1 -1.6
v 0.6 2.2 -1.6
v 1.4 2.1 -1.6
v 1.4 2.2 -1.6
v 2.6 2.1 -1.6
v 2.6 2.2 -1.6
v 0.4 2.1 -2
v 0.4 2.2 -2
v 0.5 2.1 -2
v 0.5 2.2 -2
v 0.8 2.1 -2.3
v 0.8 2.2 -2.3
v 0.9 2.1 -2.3
v 0.9 2.2 -2.3
v 1.3 2.1 -2.6
v 1.3 2.2 -2.6
v 2.1 2.1 -2.6
v 2.1 2.2 -2.6
v 2.9 2.1 -2.6
v 2.9 2.2 -2.6
v 3.1 2.1 -2.6
v 3.1 2.2 -2.6
v 3.1 2.1 -2.8
v 3.1 2.2 -2.8
v 3.4 2.1 -2.8
v 3.4 2.2 -2.8
v 0.9 2.1 -3
v 0.9 2.2 -3
v 1.3 2.1 -3
v 1.3 2.2 -3
v 0.2 2.1 -3.8
v 0.2 2.2 -3.8
v 3.8 2.1 -3.8
v 3.8 2.2 -3.8
v 0 2 -4
v 0 2.1 -4
v 4 2 -4
v 4 2.1 -4
v 0 2 0
v 4 2 0
v 0.9 2 -0.4
v 2 2 -0.4
v 2.6 2 -0.4
v 2.9 2 -0.4
v 2.3 2 -0.7
v 2.6 2 -0.7
v 0.9 2 -0.8
v 1.4 2 -0.8
v 0.6 2 -0.9
v 1 2 -0.9
v 1.4 2 -0.9
v 2 2 -0.9
v 2.3 2 -0.9
v 2.9 2 -0.9
v 0.8 2 -1.1
v 1 2 -1.1
v 2.6 2 -1.2
v 3.5 2 -1.2
v 0.5 2 -1.6
v 0.6 2 -1.6
v 1.4 2 -1.6
v 2.6 2 -1.6
v 3.1 2 -1.7
v 3.5 2 -1.7
v 0.4 2 -2
v 0.5 2 -2
v 1.4 2 -2.2
v 3.1 2 -2.2
v 0.8 2 -2.3
v 0.9 2 -2.3
v 0.4 2 -2.5
v 0.9 2 -2.5
v 1.3 2 -2.6
v 2.1 2 -2.6
v 2.9 2 -2.6
v 3.1 2 -2.6
v 3.1 2 -2.8
v 3.4 2 -2.8
v 0.9 2 -3
v 1.3 2 -3
v 1.8 2 -3
v 2.1 2 -3
v 2.9 2 -3.2
v 3.1 2 -3.2
v 0.9 2 -3.4
v 1.8 2 -3.4
v 3.1 2 -3.6
v 3.4 2 -3.6
v 0 2 -4
v 4 2 -4
v 0 2.1 0
v 4 2.1 0
v 0.2 2.1 -0.2
v 3.8 2.1 -0.2
v 0.9 2.1 -0.4
v 2 2.1 -0.4
v 2.6 2.1 -0.4
v 2.9 2.1 -0.4
v 2.3 2.1 -0.7
v 2.6 2.1 -0.7
v 0.9 2.1 -0.8
v 1.4 2.1 -0.8
v 0.6 2.1 -0.9
v 1 2.1 -0.9
v 1.4 2.1 -0.9
v 2 2.1 -0.9
v 2.3 2.1 -0.9
v 2.9 2.1 -0.9
v 0.8 2.1 -1.1
v 1 2.1 -1.1
v 2.6 2.1 -1.2
v 3.5 2.1 -1.2
v 0.5 2.1 -1.6
v 0.6 2.1 -1.6
v 1.4 2.1 -1.6
v 2.6 2.1 -1.6
v 3.1 2.1 -1.7
v 3.5 2.1 -1.7
v 0.4 2.1 -2
v 0.5 2.1 -2
v 1.4 2.1 -2.2
v 3.1 2.1 -2.2
v 0.8 2.1 -2.3
v 0.9 2.1 -2.3
v 0.4 2.1 -2.5
v 0.9 2.1 -2.5
v 1.3 2.1 -2.6
v 2.1 2.1 -2.6
v 2.9 2.1 -2.6
v 3.1 2.1 -2.6
v 3.1 2.1 -2.8
v 3.4 2.1 -2.8
v 0.9 2.1 -3
v 1.3 2.1 -3
v 1.8 2.1 -3
v 2.1 2.1 -3
v 2.9 2.1 -3.2
v 3.1 2.1 -3.2
v 0.9 2.1 -3.4
v 1.8 2.1 -3.4
v 3.1 2.1 -3.6
v 3.4 2.1 -3.6
v 0.2 2.1 -3.8
v 3.8 2.1 -3.8
v 0 2.1 -4
v 4 2.1 -4
v 0.2 2.2 -0.2
v 3.8 2.2 -0.2
v 0.9 2.2 -0.4
v 2 2.2 -0.4
v 2.6 2.2 -0.4
v 2.9 2.2 -0.4
v 2.3 2.2 -0.7
v 2.6 2.2 -0.7
v 0.9 2.2 -0.8
v 1.4 2.2 -0.8
v 0.6 2.2 -0.9
v 1 2.2 -0.9
v 1.4 2.2 -0.9
v 2 2.2 -0.9
v 2.3 2.2 -0.9
v 2.9 2.2 -0.9
v 0.8 2.2 -1.1
v 1 2.2 -1.1
v 2.6 2.2 -1.2
v 3.5 2.2 -1.2
v 0.5 2.2 -1.6
v 0.6 2.2 -1.6
v 1.4 2.2 -1.6
v 2.6 2.2 -1.6
v 3.1 2.2 -1.7
v 3.5 2.2 -1.7
v 0.4 2.2 -2
v 0.5 2.2 -2
v 1.4 2.2 -2.2
v 3.1 2.2 -2.2
v 0.8 2.2 -2.3
v 0.9 2.2 -2.3
v 0.4 2.2 -2.5
v 0.9 2.2 -2.5
v 1.3 2.2 -2.6
v 2.1 2.2 -2.6
v 2.9 2.2 -2.6
v 3.1 2.2 -2.6
v 3.1 2.2 -2.8
v 3.4 2.2 -2.8
v 0.9 2.2 -3
v 1.3 2.2 -3
v 1.8 2.2 -3
v 2.1 2.2 -3
v 2.9 2.2 -3.2
v 3.1 2.2 -3.2
v 0.9 2.2 -3.4
v 1.8 2.2 -3.4
v 3.1 2.2 -3.6
v 3.4 2.2 -3.6
v 0.2 2.2 -3.8
v 3.8 2.2 -3.8

# faces
f 3/2/1 2/2/1 1/2/1
f 4/2/1 2/2/1 3/2/1
f 7/1/1 6/1/1 5/1/1
f 8/1/1 6/1/1 7/1/1
f 11/1/1 10/1/1 9/1/1
f 12/1/1 10/1/1 11/1/1
f 15/1/1 14/1/1 13/1/1
f 16/1/1 14/1/1 15/1/1
f 19/1/1 18/1/1 17/1/1
f 20/1/1 18/1/1 19/1/1
f 23/1/1 22/1/1 21/1/1
f 24/1/1 22/1/1 23/1/1
f 27/1/1 26/1/1 25/1/1
f 28/1/1 26/1/1 27/1/1
f 31/1/1 30/1/1 29/1/1
f 32/1/1 30/1/1 31/1/1
f 35/1/1 34/1/1 33/1/1
f 36/1/1 34/1/1 35/1/1
f 41/1/1 38/1/1 37/1/1
f 42/1/1 38/1/1 41/1/1
f 43/1/1 40/1/1 39/1/1
f 44/1/1 40/1/1 43/1/1
f 47/1/1 46/1/1 45/1/1
f 48/1/1 46/1/1 47/1/1
f 51/1/1 50/1/1 49/1/1
f 52/1/1 50/1/1 51/1/1
f 53/1/2 54/1/2 55/1/2
f 55/1/2 54/1/2 56/1/2
f 57/1/2 58/1/2 59/1/2
f 59/1/2 58/1/2 60/1/2
f 61/1/2 62/1/2 63/1/2
f 63/1/2 62/1/2 64/1/2
f 65/1/2 66/1/2 69/1/2
f 69/1/2 66/1/2 70/1/2
f 67/1/2 68/1/2 71/1/2
f 71/1/2 68/1/2 72/1/2
f 73/1/2 74/1/2 75/1/2
f 75/1/2 74/1/2 76/1/2
f 77/1/2 78/1/2 81/1/2
f 81/1/2 78/1/2 82/1/2
f 79/1/2 80/1/2 83/1/2
f 83/1/2 80/1/2 84/1/2
f 85/1/2 86/1/2 87/1/2
f 87/1/2 86/1/2 88/1/2
f 89/1/2 90/1/2 93/1/2
f 93/1/2 90/1/2 94/1/2
f 91/1/2 92/1/2 95/1/2
f 95/1/2 92/1/2 96/1/2
f 97/1/2 98/1/2 99/1/2
f 99/1/2 98/1/2 100/1/2
f 101/1/2 102/1/2 103/1/2
f 103/1/2 102/1/2 104/1/2
f 105/1/2 106/1/2 107/1/2
f 107/1/2 106/1/2 108/1/2
f 109/2/2 110/2/2 111/2/2
f 111/2/2 110/2/2 112/2/2
f 115/2/3 114/2/3 113/2/3
f 116/2/3 114/2/3 115/2/3
f 119/1/3 118/1/3 117/1/3
f 120/1/3 118/1/3 119/1/3
f 123/1/3 122/1/3 121/1/3
f 124/1/3 122/1/3 123/1/3
f 127/1/3 126/1/3 125/1/3
f 128/1/3 126/1/3 127/1/3
f 131/1/3 130/1/3 129/1/3
f 132/1/3 130/1/3 131/1/3
f 135/1/3 134/1/3 133/1/3
f 136/1/3 134/1/3 135/1/3
f 139/1/3 138/1/3 137/1/3
f 140/1/3 138/1/3 139/1/3
f 143/1/3 142/1/3 141/1/3
f 144/1/3 142/1/3 143/1/3
f 147/1/3 146/1/3 145/1/3
f 148/1/3 146/1/3 147/1/3
f 151/1/3 150/1/3 149/1/3
f 152/1/3 150/1/3 151/1/3
f 155/1/3 154/1/3 153/1/3
f 156/1/3 154/1/3 155/1/3
f 159/1/3 158/1/3 157/1/3
f 160/1/3 158/1/3 159/1/3
f 163/1/3 162/1/3 161/1/3
f 164/1/3 162/1/3 163/1/3
f 165/1/4 166/1/4 167/1/4
f 167/1/4 166/1/4 168/1/4
f 169/1/4 170/1/4 171/1/4
f 171/1/4 170/1/4 172/1/4
f 173/1/4 174/1/4 175/1/4
f 175/1/4 174/1/4 176/1/4
f 177/1/4 178/1/4 179/1/4
f 179/1/4 178/1/4 180/1/4
f 181/1/4 182/1/4 183/1/4
f 183/1/4 182/1/4 184/1/4
f 185/1/4 186/1/4 187/1/4
f 187/1/4 186/1/4 188/1/4
f 189/1/4 190/1/4 191/1/4
f 191/1/4 190/1/4 192/1/4
f 193/1/4 194/1/4 195/1/4
f 195/1/4 194/1/4 196/1/4
f 197/1/4 198/1/4 199/1/4
f 199/1/4 198/1/4 200/1/4
f 201/1/4 202/1/4 203/1/4
f 203/1/4 202/1/4 204/1/4
f 205/1/4 206/1/4 207/1/4
f 207/1/4 206/1/4 208/1/4
f 209/1/4 210/1/4 211/1/4
f 211/1/4 210/1/4 212/1/4
f 213/1/4 214/1/4 215/1/4
f 215/1/4 214/1/4 216/1/4
f 217/1/4 218/1/4 219/1/4
f 219/1/4 218/1/4 220/1/4
f 221/2/4 222/2/4 223/2/4
f 223/2/4 222/2/4 224/2/4
f 227/2/5 226/2/5 225/2/5
f 228/2/5 226/2/5 227/2/5
f 229/2/5 226/2/5 228/2/5
f 230/2/5 226/2/5 229/2/5
f 231/2/5 229/2/5 228/2/5
f 232/3/5 230/3/5 229/3/5
f 232/2/5 229/2/5 231/2/5
f 233/2/5 227/2/5 225/2/5
f 233/3/5 228/3/5 227/3/5
f 234/3/5 228/3/5 233/3/5
f 235/2/5 233/2/5 225/2/5
f 235/2/5 234/2/5 233/2/5
f 236/2/5 234/2/5 235/2/5
f 237/3/5 228/3/5 234/3/5
f 237/2/5 234/2/5 236/2/5
f 238/2/5 231/2/5 228/2/5
f 238/3/5 228/3/5 237/3/5
f 239/3/5 232/3/5 231/3/5
f 239/2/5 231/2/5 238/2/5
f 240/3/5 230/3/5 232/3/5
f 240/3/5 232/3/5 239/3/5
f 240/2/5 226/2/5 230/2/5
f 241/3/5 236/3/5 235/3/5
f 242/2/5 239/2/5 238/2/5
f 242/3/5 236/3/5 241/3/5
f 242/2/5 238/2/5 237/2/5
f 242/2/5 240/2/5 239/2/5
f 242/2/5 237/2/5 236/2/5
f 243/2/5 242/2/5 241/2/5
f 243/2/5 240/2/5 242/2/5
f 244/2/5 226/2/5 240/2/5
f 244/2/5 240/2/5 243/2/5
f 245/2/5 235/2/5 225/2/5
f 246/3/5 241/3/5 235/3/5
f 246/2/5 235/2/5 245/2/5
f 247/2/5 243/2/5 241/2/5
f 248/3/5 244/3/5 243/3/5
f 248/2/5 243/2/5 247/2/5
f 249/3/5 248/3/5 247/3/5
f 249/3/5 244/3/5 248/3/5
f 250/2/5 226/2/5 244/2/5
f 250/3/5 244/3/5 249/3/5
f 251/2/5 245/2/5 225/2/5
f 252/3/5 246/3/5 245/3/5
f 252/2/5 245/2/5 251/2/5
f 253/3/5 249/3/5 247/3/5
f 253/2/5 247/2/5 241/2/5
f 254/2/5 250/2/5 249/2/5
f 254/3/5 249/3/5 253/3/5
f 255/3/5 241/3/5 246/3/5
f 255/3/5 246/3/5 252/3/5
f 255/2/5 254/2/5 253/2/5
f 255/2/5 253/2/5 241/2/5
f 255/3/5 252/3/5 251/3/5
f 256/2/5 254/2/5 255/2/5
f 257/2/5 251/2/5 225/2/5
f 257/3/5 255/3/5 251/3/5
f 257/3/5 256/3/5 255/3/5
f 258/2/5 254/2/5 256/2/5
f 258/3/5 256/3/5 257/3/5
f 259/2/5 258/2/5 257/2/5
f 259/2/5 254/2/5 258/2/5
f 260/2/5 254/2/5 259/2/5
f 261/2/5 254/2/5 260/2/5
f 262/2/5 250/2/5 254/2/5
f 262/2/5 254/2/5 261/2/5
f 263/3/5 262/3/5 261/3/5
f 263/2/5 250/2/5 262/2/5
f 264/2/5 250/2/5 263/2/5
f 265/2/5 259/2/5 257/2/5
f 266/3/5 260/3/5 259/3/5
f 266/2/5 259/2/5 265/2/5
f 267/3/5 260/3/5 266/3/5
f 268/2/5 261/2/5 260/2/5
f 268/3/5 260/3/5 267/3/5
f 269/3/5 263/3/5 261/3/5
f 269/2/5 261/2/5 268/2/5
f 269/2/5 268/2/5 267/2/5
f 269/3/5 264/3/5 263/3/5
f 270/3/5 264/3/5 269/3/5
f 271/3/5 267/3/5 266/3/5
f 271/2/5 265/2/5 257/2/5
f 271/3/5 266/3/5 265/3/5
f 272/2/5 270/2/5 269/2/5
f 272/3/5 267/3/5 271/3/5
f 272/2/5 269/2/5 267/2/5
f 273/3/5 264/3/5 270/3/5
f 273/2/5 270/2/5 272/2/5
f 273/2/5 272/2/5 271/2/5
f 274/2/5 250/2/5 264/2/5
f 274/3/5 264/3/5 273/3/5
f 275/2/5 271/2/5 257/2/5
f 275/2/5 257/2/5 225/2/5
f 275/2/5 274/2/5 273/2/5
f 275/2/5 273/2/5 271/2/5
f 276/2/5 226/2/5 250/2/5
f 276/2/5 274/2/5 275/2/5
f 276/2/5 250/2/5 274/2/5
f 277/2/6 278/2/6 279/2/6
f 279/2/6 278/2/6 280/2/6
f 283/3/6 284/3/6 286/3/6
f 281/3/6 282/3/6 287/3/6
f 287/3/6 282/3/6 288/3/6
f 288/3/6 282/3/6 291/3/6
f 291/3/6 282/3/6 292/3/6
f 285/3/6 286/3/6 293/3/6
f 286/3/6 284/3/6 294/3/6
f 293/3/6 286/3/6 294/3/6
f 289/3/6 290/3/6 295/3/6
f 295/3/6 290/3/6 296/3/6
f 289/3/6 295/3/6 300/3/6
f 297/3/6 298/3/6 302/3/6
f 302/3/6 298/3/6 303/3/6
f 301/3/6 302/3/6 303/3/6
f 303/3/6 298/3/6 304/3/6
f 299/3/6 300/3/6 306/3/6
f 301/3/6 303/3/6 307/3/6
f 307/3/6 303/3/6 308/3/6
f 300/3/6 295/3/6 309/3/6
f 305/3/6 306/3/6 309/3/6
f 306/3/6 300/3/6 309/3/6
f 305/3/6 309/3/6 311/3/6
f 309/3/6 310/3/6 311/3/6
f 311/3/6 310/3/6 312/3/6
f 315/3/6 316/3/6 317/3/6
f 313/3/6 314/3/6 320/3/6
f 320/3/6 314/3/6 321/3/6
f 321/3/6 314/3/6 322/3/6
f 315/3/6 317/3/6 323/3/6
f 317/3/6 318/3/6 323/3/6
f 323/3/6 318/3/6 324/3/6
f 320/3/6 321/3/6 325/3/6
f 319/3/6 320/3/6 325/3/6
f 325/3/6 321/3/6 326/3/6
f 324/3/6 318/3/6 327/3/6
f 327/3/6 318/3/6 328/3/6
f 277/2/6 279/2/6 329/2/6
f 280/2/6 278/2/6 330/2/6
f 277/2/6 329/2/6 331/2/6
f 329/2/6 330/2/6 331/2/6
f 330/2/6 278/2/6 332/2/6
f 331/2/6 330/2/6 332/2/6
f 333/1/6 334/1/6 335/1/6
f 335/1/6 334/1/6 336/1/6
f 336/1/6 334/1/6 337/1/6
f 337/1/6 334/1/6 338/1/6
f 336/1/6 337/1/6 339/1/6
f 339/1/6 337/1/6 340/1/6
f 333/1/6 335/1/6 341/1/6
f 333/1/6 341/1/6 343/1/6
f 341/1/6 342/1/6 343/1/6
f 343/1/6 342/1/6 344/1/6
f 344/1/6 342/1/6 345/1/6
f 336/1/6 339/1/6 346/1/6
f 346/1/6 339/1/6 347/1/6
f 338/1/6 334/1/6 348/1/6
f 346/1/6 347/1/6 350/1/6
f 345/1/6 346/1/6 350/1/6
f 344/1/6 345/1/6 350/1/6
f 347/1/6 348/1/6 350/1/6
f 350/1/6 348/1/6 351/1/6
f 349/1/6 350/1/6 351/1/6
f 348/1/6 334/1/6 352/1/6
f 351/1/6 348/1/6 352/1/6
f 333/1/6 343/1/6 353/1/6
f 353/1/6 343/1/6 354/1/6
f 349/1/6 351/1/6 355/1/6
f 355/1/6 351/1/6 356/1/6
f 352/1/6 334/1/6 358/1/6
f 333/1/6 353/1/6 359/1/6
f 359/1/6 353/1/6 360/1/6
f 349/1/6 355/1/6 361/1/6
f 357/1/6 358/1/6 362/1/6
f 349/1/6 361/1/6 363/1/6
f 361/1/6 362/1/6 363/1/6
f 363/1/6 362/1/6 364/1/6
f 333/1/6 359/1/6 365/1/6
f 364/1/6 362/1/6 366/1/6
f 366/1/6 362/1/6 367/1/6
f 365/1/6 366/1/6 367/1/6
f 367/1/6 362/1/6 368/1/6
f 368/1/6 362/1/6 369/1/6
f 362/1/6 358/1/6 370/1/6
f 369/1/6 362/1/6 370/1/6
f 370/1/6 358/1/6 371/1/6
f 371/1/6 358/1/6 372/1/6
f 365/1/6 367/1/6 373/1/6
f 373/1/6 367/1/6 374/1/6
f 368/1/6 369/1/6 376/1/6
f 375/1/6 376/1/6 377/1/6
f 376/1/6 369/1/6 377/1/6
f 365/1/6 373/1/6 379/1/6
f 377/1/6 378/1/6 380/1/6
f 375/1/6 377/1/6 380/1/6
f 380/1/6 378/1/6 381/1/6
f 379/1/6 380/1/6 381/1/6
f 372/1/6 358/1/6 382/1/6
f 333/1/6 365/1/6 383/1/6
f 381/1/6 382/1/6 383/1/6
f 379/1/6 381/1/6 383/1/6
f 365/1/6 379/1/6 383/1/6
f 382/1/6 358/1/6 384/1/6
f 383/1/6 382/1/6 384/1/6
f 358/1/6 334/1/6 384/1/6
